<?xml version="1.0" standalone="no"?>
<!DOCTYPE svg PUBLIC "-//W3C//DTD SVG 1.1//EN" "http://www.w3.org/Graphics/SVG/1.1/DTD/svg11.dtd" >
<svg xmlns="http://www.w3.org/2000/svg" xmlns:xlink="http://www.w3.org/1999/xlink" version="1.1">
<metadata>
Created by FontForge 20190801 at Sun Mar 22 15:46:25 2020
 By Unknown
Copyright 2017 The Exo Project Authors (https://github.com/NDISCOVER/Exo-1.0)
</metadata>
<defs>
<font id="Exo-Regular" horiz-adv-x="609" >
  <font-face 
    font-family="Exo"
    font-weight="400"
    font-stretch="normal"
    units-per-em="1000"
    panose-1="0 0 0 0 0 0 0 0 0 0"
    ascent="800"
    descent="-200"
    x-height="534"
    cap-height="736"
    bbox="-508 -270 1333 1101"
    underline-thickness="50"
    underline-position="-125"
    unicode-range="U+000D-FB05"
  />
<missing-glyph horiz-adv-x="654" 
d="M57 537h540v-540h-540v540zM553 40v453h-453v-453h453zM458 99l-131 131l-130 -131l-37 37l131 130l-131 131l37 36l130 -130l131 130l36 -36l-130 -131l130 -130z" />
    <glyph glyph-name="f_f" unicode="ff" horiz-adv-x="767" 
d="M102 0v469h-82v51l82 14v71q0 83 32 123.5t115 40.5q37 0 64.5 -4.5t48.5 -10.5v-56q-21 2 -45 3.5t-45 1.5q-56 0 -73.5 -27.5t-17.5 -80.5v-61h308v61q0 85 32 129.5t121 44.5q34 0 58.5 -3t44.5 -7v-56h-90q-54 0 -70.5 -26.5t-16.5 -77.5v-65h165v-65h-165v-469h-79
v469h-308v-469h-79z" />
    <glyph glyph-name="f_f_i" unicode="ffi" horiz-adv-x="998" 
d="M102 0v469h-82v51l82 14v71q0 83 32 123.5t115 40.5q37 0 64.5 -4.5t48.5 -10.5v-56q-21 2 -45 3.5t-45 1.5q-56 0 -73.5 -27.5t-17.5 -80.5v-61h304v71q0 83 32 123.5t115 40.5q37 0 64.5 -4.5t48.5 -10.5v-56q-20 2 -44 3.5t-46 1.5q-56 0 -73 -27.5t-17 -80.5v-61h357
v-534h-79v469h-278v-469h-80v469h-304v-469h-79zM854 629q-15 0 -15 16v78q0 16 15 16h57q15 0 15 -16v-78q0 -16 -15 -16h-57z" />
    <glyph glyph-name="f_f_l" unicode="ffl" horiz-adv-x="1060" 
d="M102 0v469h-82v51l82 14v71q0 83 32 123.5t115 40.5q37 0 64.5 -4.5t48.5 -10.5v-56q-21 2 -45 3.5t-45 1.5q-56 0 -73.5 -27.5t-17.5 -80.5v-61h304v64q0 87 42 129t148 42q76 0 139 -7.5t108 -13.5v-566q0 -47 9 -71.5t25.5 -34.5t40.5 -13l53 -6v-57h-67
q-69 0 -104.5 38t-35.5 134v527q-40 2 -80.5 3t-77.5 1q-49 0 -75 -12t-35.5 -36t-9.5 -60v-61h165v-65h-165v-469h-80v469h-304v-469h-79z" />
    <glyph glyph-name="fi" unicode="fi" horiz-adv-x="614" 
d="M102 0v469h-82v51l82 14v71q0 83 32 123.5t115 40.5q37 0 64.5 -4.5t48.5 -10.5v-56q-21 2 -45 3.5t-45 1.5q-56 0 -73.5 -27.5t-17.5 -80.5v-61h357v-534h-79v469h-278v-469h-79zM471 629q-16 0 -16 16v78q0 16 16 16h57q14 0 14 -16v-78q0 -16 -14 -16h-57z" />
    <glyph glyph-name="fl" unicode="fl" horiz-adv-x="677" 
d="M102 0v469h-82v51l82 14v64q0 87 42 129t148 42q76 0 138.5 -7.5t107.5 -13.5v-566q0 -47 9 -71.5t26 -34.5t40 -13l54 -6v-57h-67q-69 0 -105 38t-36 134v527q-39 2 -80 3t-77 1q-49 0 -75 -12t-36 -36t-10 -60v-61h165v-65h-165v-469h-79z" />
    <glyph glyph-name=".notdef" horiz-adv-x="654" 
d="M57 537h540v-540h-540v540zM553 40v453h-453v-453h453zM458 99l-131 131l-130 -131l-37 37l131 130l-131 131l37 36l130 -130l131 130l36 -36l-130 -131l130 -130z" />
    <glyph glyph-name="A" unicode="A" horiz-adv-x="674" 
d="M34 0l252 736h102l252 -736h-82l-74 210h-296l-72 -210h-82zM208 282h256l-127 384z" />
    <glyph glyph-name="Aacute" unicode="&#xc1;" horiz-adv-x="674" 
d="M34 0l252 736h102l252 -736h-82l-74 210h-296l-72 -210h-82zM208 282h256l-127 384zM318 791l104 136h67l-125 -136h-46z" />
    <glyph glyph-name="Abreve" unicode="&#x102;" horiz-adv-x="674" 
d="M34 0l252 736h102l252 -736h-82l-74 210h-296l-72 -210h-82zM208 282h256l-127 384zM330 789q-36 0 -65.5 13.5t-47.5 44.5t-18 83h39q0 -57 27.5 -80.5t64.5 -22.5q41 0 67 22.5t26 80.5h39q0 -53 -18 -84t-48 -44t-66 -13z" />
    <glyph glyph-name="uni1EAE" unicode="&#x1eae;" horiz-adv-x="674" 
d="M34 0l252 736h102l252 -736h-82l-74 210h-296l-72 -210h-82zM208 282h256l-127 384zM301 901l104 136h68l-125 -136h-47zM238 894q0 -43 28 -60.5t64 -16.5q41 0 67 17t26 60h40q0 -43 -18.5 -67t-48.5 -34.5t-66 -10.5q-54 0 -92 25t-38 87h38z" />
    <glyph glyph-name="uni1EB6" unicode="&#x1eb6;" horiz-adv-x="674" 
d="M34 0l252 736h102l252 -736h-82l-74 210h-296l-72 -210h-82zM208 282h256l-127 384zM330 789q-36 0 -65.5 13.5t-47.5 44.5t-18 83h39q0 -57 27.5 -80.5t64.5 -22.5q41 0 67 22.5t26 80.5h39q0 -53 -18 -84t-48 -44t-66 -13zM318 -210q-16 0 -16 16v78q0 16 16 16h37
q15 0 15 -16v-78q0 -16 -15 -16h-37z" />
    <glyph glyph-name="uni1EB0" unicode="&#x1eb0;" horiz-adv-x="674" 
d="M34 0l252 736h102l252 -736h-82l-74 210h-296l-72 -210h-82zM208 282h256l-127 384zM323 901l-125 136h68l103 -136h-46zM238 894q0 -43 28 -60.5t64 -16.5q41 0 67 17t26 60h40q0 -43 -18.5 -67t-48.5 -34.5t-66 -10.5q-54 0 -92 25t-38 87h38z" />
    <glyph glyph-name="uni1EB2" unicode="&#x1eb2;" horiz-adv-x="674" 
d="M34 0l252 736h102l252 -736h-82l-74 210h-296l-72 -210h-82zM208 282h256l-127 384zM313 859v37q33 10 45 26t12 33q0 21 -11 32.5t-37 11.5q-17 0 -36 -6v34q20 7 46 7q42 0 61.5 -21t19.5 -56q0 -32 -23.5 -57.5t-76.5 -40.5zM330 782q-54 0 -92 25t-38 87h38
q0 -43 28 -60.5t64 -16.5q41 0 67 17t26 60h40q0 -43 -18.5 -67t-48.5 -34.5t-66 -10.5z" />
    <glyph glyph-name="uni1EB4" unicode="&#x1eb4;" horiz-adv-x="674" 
d="M34 0l252 736h102l252 -736h-82l-74 210h-296l-72 -210h-82zM208 282h256l-127 384zM175 929q2 50 27.5 66.5t54.5 16.5q28 0 52 -10.5t46 -21t45 -10.5q24 0 39 11.5t15 32.5h40q-4 -84 -83 -84q-26 0 -50 10.5t-47 21t-46 10.5q-22 0 -37 -11t-15 -32h-41zM238 894
q0 -43 28 -60.5t64 -16.5q41 0 67 17t26 60h40q0 -43 -18.5 -67t-48.5 -34.5t-66 -10.5q-54 0 -92 25t-38 87h38z" />
    <glyph glyph-name="Acircumflex" unicode="&#xc2;" horiz-adv-x="674" 
d="M34 0l252 736h102l252 -736h-82l-74 210h-296l-72 -210h-82zM208 282h256l-127 384zM190 791l122 135h56l110 -135h-48l-91 97l-100 -97h-49z" />
    <glyph glyph-name="uni1EA4" unicode="&#x1ea4;" horiz-adv-x="674" 
d="M34 0l252 736h102l252 -736h-82l-74 210h-296l-72 -210h-82zM208 282h256l-127 384zM508 997h68l-109 -129h-46zM311 889h57l110 -98h-48l-92 61l-100 -61h-48z" />
    <glyph glyph-name="uni1EAC" unicode="&#x1eac;" horiz-adv-x="674" 
d="M34 0l252 736h102l252 -736h-82l-74 210h-296l-72 -210h-82zM208 282h256l-127 384zM190 791l122 135h56l110 -135h-48l-91 97l-100 -97h-49zM318 -210q-16 0 -16 16v78q0 16 16 16h37q15 0 15 -16v-78q0 -16 -15 -16h-37z" />
    <glyph glyph-name="uni1EA6" unicode="&#x1ea6;" horiz-adv-x="674" 
d="M34 0l252 736h102l252 -736h-82l-74 210h-296l-72 -210h-82zM208 282h256l-127 384zM98 997h68l87 -129h-46zM311 889h57l110 -98h-48l-92 61l-100 -61h-48z" />
    <glyph glyph-name="uni1EA8" unicode="&#x1ea8;" horiz-adv-x="674" 
d="M34 0l252 736h102l252 -736h-82l-74 210h-296l-72 -210h-82zM208 282h256l-127 384zM444 843v36q28 9 39 23t11 28q0 17 -9.5 27t-32.5 10q-17 0 -35 -6v30q20 7 45 7q37 0 54.5 -17.5t17.5 -47.5q0 -29 -21.5 -53t-68.5 -37zM190 791l121 98h57l110 -98h-48l-92 61
l-100 -61h-48z" />
    <glyph glyph-name="uni1EAA" unicode="&#x1eaa;" horiz-adv-x="674" 
d="M34 0l252 736h102l252 -736h-82l-74 210h-296l-72 -210h-82zM208 282h256l-127 384zM175 936q2 49 27.5 66t54.5 17q28 0 52 -10.5t46 -21t45 -10.5q24 0 39 11t15 33h40q-4 -85 -83 -85q-27 0 -51.5 10.5t-48 21t-47.5 10.5q-19 0 -33.5 -10.5t-14.5 -31.5h-41zM368 889
l110 -98h-48l-92 61l-100 -61h-48l121 98h57z" />
    <glyph glyph-name="uni0200" unicode="&#x200;" horiz-adv-x="674" 
d="M34 0l252 736h102l252 -736h-82l-74 210h-296l-72 -210h-82zM208 282h256l-127 384zM402 791l-125 136h68l104 -136h-47zM256 791l-125 136h68l104 -136h-47z" />
    <glyph glyph-name="Adieresis" unicode="&#xc4;" horiz-adv-x="674" 
d="M34 0l252 736h102l252 -736h-82l-74 210h-296l-72 -210h-82zM208 282h256l-127 384zM429 813q-16 0 -16 16v78q0 16 16 16h37q15 0 15 -16v-78q0 -16 -15 -16h-37zM193 813q-15 0 -15 16v78q0 16 15 16h37q16 0 16 -16v-78q0 -16 -16 -16h-37z" />
    <glyph glyph-name="uni1EA0" unicode="&#x1ea0;" horiz-adv-x="674" 
d="M34 0l252 736h102l252 -736h-82l-74 210h-296l-72 -210h-82zM208 282h256l-127 384zM318 -210q-16 0 -16 16v78q0 16 16 16h37q15 0 15 -16v-78q0 -16 -15 -16h-37z" />
    <glyph glyph-name="Agrave" unicode="&#xc0;" horiz-adv-x="674" 
d="M34 0l252 736h102l252 -736h-82l-74 210h-296l-72 -210h-82zM208 282h256l-127 384zM320 791l-125 136h67l104 -136h-46z" />
    <glyph glyph-name="uni1EA2" unicode="&#x1ea2;" horiz-adv-x="674" 
d="M34 0l252 736h102l252 -736h-82l-74 210h-296l-72 -210h-82zM208 282h256l-127 384zM315 770v37q32 9 44 25.5t12 33.5q0 20 -10.5 32t-37.5 12q-17 0 -35 -6v34q19 6 45 6q42 0 62 -21t20 -56q0 -31 -24 -56.5t-76 -40.5z" />
    <glyph glyph-name="uni0202" unicode="&#x202;" horiz-adv-x="674" 
d="M34 0l252 736h102l252 -736h-82l-74 210h-296l-72 -210h-82zM208 282h256l-127 384zM334 931q36 0 65.5 -13.5t47.5 -44.5t18 -83h-39q0 57 -27.5 80.5t-64.5 22.5q-41 0 -67 -22.5t-26 -80.5h-39q0 53 18 84t48 44t66 13z" />
    <glyph glyph-name="Amacron" unicode="&#x100;" horiz-adv-x="674" 
d="M34 0l252 736h102l252 -736h-82l-74 210h-296l-72 -210h-82zM208 282h256l-127 384zM198 832v47h265v-47h-265z" />
    <glyph glyph-name="Aogonek" unicode="&#x104;" horiz-adv-x="674" 
d="M34 0l252 736h102l252 -736h-82l-74 210h-296l-72 -210h-82zM208 282h256l-127 384zM588 -187q-51 0 -78 26t-27 63q0 29 18 54.5t57 43.5h30q-63 -34 -63 -81q0 -30 21.5 -47.5t61.5 -17.5h6v-38q-10 -3 -26 -3z" />
    <glyph glyph-name="Aring" unicode="&#xc5;" horiz-adv-x="674" 
d="M34 0l252 736h102l252 -736h-82l-74 210h-296l-72 -210h-82zM208 282h256l-127 384zM338 764q-54 0 -83 23t-29 83q0 61 29 84.5t83 23.5t82 -23.5t28 -84.5q0 -60 -28 -83t-82 -23zM338 797q36 0 53 15t17 58t-17 59t-53 16q-37 0 -55 -16t-18 -59t18 -58t55 -15z" />
    <glyph glyph-name="Aringacute" unicode="&#x1fa;" horiz-adv-x="674" 
d="M34 0l252 736h102l252 -736h-82l-74 210h-296l-72 -210h-82zM208 282h256l-127 384zM338 764q-54 0 -83 23t-29 83q0 61 29 84.5t83 23.5t82 -23.5t28 -84.5q0 -60 -28 -83t-82 -23zM338 797q36 0 53 15t17 58t-17 59t-53 16q-37 0 -55 -16t-18 -59t18 -58t55 -15z
M318 965l104 136h67l-125 -136h-46z" />
    <glyph glyph-name="Atilde" unicode="&#xc3;" horiz-adv-x="674" 
d="M34 0l252 736h102l252 -736h-82l-74 210h-296l-72 -210h-82zM208 282h256l-127 384zM165 807q2 60 31.5 83.5t64.5 23.5q32 0 57.5 -15.5t49 -30.5t48.5 -15q26 0 43 16t18 47h40q-1 -51 -26 -80t-70 -29q-31 0 -56.5 15.5t-50 31t-49.5 15.5q-24 0 -41.5 -15t-17.5 -47
h-41z" />
    <glyph glyph-name="AE" unicode="&#xc6;" horiz-adv-x="964" 
d="M635 -4q-71 -1 -111.5 25.5t-43.5 96.5v91h-238l-129 -209h-79l357 601q38 70 89.5 103t135.5 32q78 -1 152.5 -4t137.5 -6v-63h-281q-41 0 -56.5 -16.5t-15.5 -50.5v-195l310 -5v-61l-310 -5v-173q0 -49 25 -68t70 -19h258v-63q-64 -4 -131 -7t-140 -4zM279 277h201v338
z" />
    <glyph glyph-name="AEacute" unicode="&#x1fc;" horiz-adv-x="964" 
d="M635 -4q-71 -1 -111.5 25.5t-43.5 96.5v91h-238l-129 -209h-79l357 601q38 70 89.5 103t135.5 32q78 -1 152.5 -4t137.5 -6v-63h-281q-41 0 -56.5 -16.5t-15.5 -50.5v-195l310 -5v-61l-310 -5v-173q0 -49 25 -68t70 -19h258v-63q-64 -4 -131 -7t-140 -4zM279 277h201v338
zM511 791l104 136h67l-125 -136h-46z" />
    <glyph glyph-name="B" unicode="B" horiz-adv-x="603" 
d="M77 0v736h266q190 0 190 -189q0 -69 -30.5 -111t-73.5 -54q27 -6 57 -25.5t51.5 -56.5t21.5 -96q0 -79 -25 -123t-71 -62.5t-110 -18.5h-276zM157 410h191q47 0 77.5 34t31.5 92q2 71 -30.5 99.5t-83.5 28.5h-186v-254zM157 71h194q39 0 69 12.5t46.5 44t16.5 89.5
q0 62 -38.5 96t-93.5 34h-194v-276z" />
    <glyph glyph-name="uni1E02" unicode="&#x1e02;" horiz-adv-x="603" 
d="M77 0v736h266q190 0 190 -189q0 -69 -30.5 -111t-73.5 -54q27 -6 57 -25.5t51.5 -56.5t21.5 -96q0 -79 -25 -123t-71 -62.5t-110 -18.5h-276zM157 410h191q47 0 77.5 34t31.5 92q2 71 -30.5 99.5t-83.5 28.5h-186v-254zM157 71h194q39 0 69 12.5t46.5 44t16.5 89.5
q0 62 -38.5 96t-93.5 34h-194v-276zM274 820q-16 0 -16 16v78q0 16 16 16h37q15 0 15 -16v-78q0 -16 -15 -16h-37z" />
    <glyph glyph-name="C" unicode="C" horiz-adv-x="581" 
d="M318 -6q-66 0 -115 15t-81 54.5t-47.5 113.5t-15.5 193q0 112 16 184.5t48.5 113.5t82.5 57.5t118 16.5q31 0 69 -3.5t75 -9.5t67 -14v-59q-16 2 -47.5 5.5t-71 6.5t-80.5 3q-53 0 -91 -12.5t-61.5 -45t-34.5 -92t-11 -152.5q0 -96 10.5 -156t33 -92t60 -44t92.5 -12
q75 0 123 4t78 9v-60q-46 -11 -103.5 -17.5t-113.5 -6.5z" />
    <glyph glyph-name="Cacute" unicode="&#x106;" horiz-adv-x="581" 
d="M318 -6q-66 0 -115 15t-81 54.5t-47.5 113.5t-15.5 193q0 112 16 184.5t48.5 113.5t82.5 57.5t118 16.5q31 0 69 -3.5t75 -9.5t67 -14v-59q-16 2 -47.5 5.5t-71 6.5t-80.5 3q-53 0 -91 -12.5t-61.5 -45t-34.5 -92t-11 -152.5q0 -96 10.5 -156t33 -92t60 -44t92.5 -12
q75 0 123 4t78 9v-60q-46 -11 -103.5 -17.5t-113.5 -6.5zM305 791l104 136h67l-125 -136h-46z" />
    <glyph glyph-name="Ccaron" unicode="&#x10c;" horiz-adv-x="581" 
d="M318 -6q-66 0 -115 15t-81 54.5t-47.5 113.5t-15.5 193q0 112 16 184.5t48.5 113.5t82.5 57.5t118 16.5q31 0 69 -3.5t75 -9.5t67 -14v-59q-16 2 -47.5 5.5t-71 6.5t-80.5 3q-53 0 -91 -12.5t-61.5 -45t-34.5 -92t-11 -152.5q0 -96 10.5 -156t33 -92t60 -44t92.5 -12
q75 0 123 4t78 9v-60q-46 -11 -103.5 -17.5t-113.5 -6.5zM295 791l-111 135h48l92 -97l100 97h48l-121 -135h-56z" />
    <glyph glyph-name="Ccedilla" unicode="&#xc7;" horiz-adv-x="581" 
d="M318 -6q-66 0 -115 15t-81 54.5t-47.5 113.5t-15.5 193q0 112 16 184.5t48.5 113.5t82.5 57.5t118 16.5q31 0 69 -3.5t75 -9.5t67 -14v-59q-16 2 -47.5 5.5t-71 6.5t-80.5 3q-53 0 -91 -12.5t-61.5 -45t-34.5 -92t-11 -152.5q0 -96 10.5 -156t33 -92t60 -44t92.5 -12
q75 0 123 4t78 9v-60q-46 -11 -103.5 -17.5t-113.5 -6.5zM275 -66l52 79h37l-45 -68q73 -4 73 -63q0 -34 -25 -52.5t-71 -18.5h-33v32l22 2q56 5 56 45q0 17 -13 29.5t-53 14.5z" />
    <glyph glyph-name="uni1E08" unicode="&#x1e08;" horiz-adv-x="581" 
d="M318 -6q-66 0 -115 15t-81 54.5t-47.5 113.5t-15.5 193q0 112 16 184.5t48.5 113.5t82.5 57.5t118 16.5q31 0 69 -3.5t75 -9.5t67 -14v-59q-16 2 -47.5 5.5t-71 6.5t-80.5 3q-53 0 -91 -12.5t-61.5 -45t-34.5 -92t-11 -152.5q0 -96 10.5 -156t33 -92t60 -44t92.5 -12
q75 0 123 4t78 9v-60q-46 -11 -103.5 -17.5t-113.5 -6.5zM275 -66l52 79h37l-45 -68q73 -4 73 -63q0 -34 -25 -52.5t-71 -18.5h-33v32l22 2q56 5 56 45q0 17 -13 29.5t-53 14.5zM305 791l104 136h67l-125 -136h-46z" />
    <glyph glyph-name="Ccircumflex" unicode="&#x108;" horiz-adv-x="581" 
d="M318 -6q-66 0 -115 15t-81 54.5t-47.5 113.5t-15.5 193q0 112 16 184.5t48.5 113.5t82.5 57.5t118 16.5q31 0 69 -3.5t75 -9.5t67 -14v-59q-16 2 -47.5 5.5t-71 6.5t-80.5 3q-53 0 -91 -12.5t-61.5 -45t-34.5 -92t-11 -152.5q0 -96 10.5 -156t33 -92t60 -44t92.5 -12
q75 0 123 4t78 9v-60q-46 -11 -103.5 -17.5t-113.5 -6.5zM177 791l122 135h56l110 -135h-48l-91 97l-100 -97h-49z" />
    <glyph glyph-name="Cdotaccent" unicode="&#x10a;" horiz-adv-x="581" 
d="M318 -6q-66 0 -115 15t-81 54.5t-47.5 113.5t-15.5 193q0 112 16 184.5t48.5 113.5t82.5 57.5t118 16.5q31 0 69 -3.5t75 -9.5t67 -14v-59q-16 2 -47.5 5.5t-71 6.5t-80.5 3q-53 0 -91 -12.5t-61.5 -45t-34.5 -92t-11 -152.5q0 -96 10.5 -156t33 -92t60 -44t92.5 -12
q75 0 123 4t78 9v-60q-46 -11 -103.5 -17.5t-113.5 -6.5zM305 820q-16 0 -16 16v78q0 16 16 16h37q15 0 15 -16v-78q0 -16 -15 -16h-37z" />
    <glyph glyph-name="D" unicode="D" horiz-adv-x="669" 
d="M77 0v736h291q89 0 142 -43t76.5 -125t23.5 -200q0 -173 -61 -270.5t-181 -97.5h-291zM157 71h205q88 0 128.5 80.5t40.5 216.5q0 109 -17.5 174t-55 93.5t-96.5 28.5h-205v-593z" />
    <glyph glyph-name="Eth" unicode="&#xd0;" horiz-adv-x="669" 
d="M77 0v345h-62v55h62v336h291q89 0 142 -43t76.5 -125t23.5 -200q0 -173 -61 -270.5t-181 -97.5h-291zM157 71h205q88 0 128.5 80.5t40.5 216.5q0 109 -17.5 174t-55 93.5t-96.5 28.5h-205v-264h168v-55h-168v-274z" />
    <glyph glyph-name="Dcaron" unicode="&#x10e;" horiz-adv-x="669" 
d="M77 0v736h291q89 0 142 -43t76.5 -125t23.5 -200q0 -173 -61 -270.5t-181 -97.5h-291zM157 71h205q88 0 128.5 80.5t40.5 216.5q0 109 -17.5 174t-55 93.5t-96.5 28.5h-205v-593zM289 791l-111 135h48l92 -97l100 97h48l-121 -135h-56z" />
    <glyph glyph-name="Dcroat" unicode="&#x110;" horiz-adv-x="669" 
d="M77 0v345h-62v55h62v336h291q89 0 142 -43t76.5 -125t23.5 -200q0 -173 -61 -270.5t-181 -97.5h-291zM157 71h205q88 0 128.5 80.5t40.5 216.5q0 109 -17.5 174t-55 93.5t-96.5 28.5h-205v-264h168v-55h-168v-274z" />
    <glyph glyph-name="uni1E0A" unicode="&#x1e0a;" horiz-adv-x="669" 
d="M77 0v736h291q89 0 142 -43t76.5 -125t23.5 -200q0 -173 -61 -270.5t-181 -97.5h-291zM157 71h205q88 0 128.5 80.5t40.5 216.5q0 109 -17.5 174t-55 93.5t-96.5 28.5h-205v-593zM299 820q-16 0 -16 16v78q0 16 16 16h37q15 0 15 -16v-78q0 -16 -15 -16h-37z" />
    <glyph glyph-name="uni1E0C" unicode="&#x1e0c;" horiz-adv-x="669" 
d="M77 0v736h291q89 0 142 -43t76.5 -125t23.5 -200q0 -173 -61 -270.5t-181 -97.5h-291zM157 71h205q88 0 128.5 80.5t40.5 216.5q0 109 -17.5 174t-55 93.5t-96.5 28.5h-205v-593zM285 -210q-16 0 -16 16v78q0 16 16 16h37q15 0 15 -16v-78q0 -16 -15 -16h-37z" />
    <glyph glyph-name="uni1E0E" unicode="&#x1e0e;" horiz-adv-x="669" 
d="M77 0v736h291q89 0 142 -43t76.5 -125t23.5 -200q0 -173 -61 -270.5t-181 -97.5h-291zM157 71h205q88 0 128.5 80.5t40.5 216.5q0 109 -17.5 174t-55 93.5t-96.5 28.5h-205v-593zM168 -188v47h265v-47h-265z" />
    <glyph glyph-name="E" unicode="E" horiz-adv-x="587" 
d="M233 -4q-24 0 -51.5 4t-51 18t-38.5 43t-15 78v449q0 57 21.5 89t55 45.5t68.5 13.5q92 -1 166.5 -4t141.5 -5v-64h-288q-39 0 -62 -21t-23 -67v-174l329 -5v-61l-329 -5v-173q0 -37 12.5 -56t33 -25t43.5 -6h284v-64q-70 -4 -147 -6.5t-150 -3.5z" />
    <glyph glyph-name="Eacute" unicode="&#xc9;" horiz-adv-x="587" 
d="M233 -4q-24 0 -51.5 4t-51 18t-38.5 43t-15 78v449q0 57 21.5 89t55 45.5t68.5 13.5q92 -1 166.5 -4t141.5 -5v-64h-288q-39 0 -62 -21t-23 -67v-174l329 -5v-61l-329 -5v-173q0 -37 12.5 -56t33 -25t43.5 -6h284v-64q-70 -4 -147 -6.5t-150 -3.5zM292 791l104 136h67
l-125 -136h-46z" />
    <glyph glyph-name="Ebreve" unicode="&#x114;" horiz-adv-x="587" 
d="M233 -4q-24 0 -51.5 4t-51 18t-38.5 43t-15 78v449q0 57 21.5 89t55 45.5t68.5 13.5q92 -1 166.5 -4t141.5 -5v-64h-288q-39 0 -62 -21t-23 -67v-174l329 -5v-61l-329 -5v-173q0 -37 12.5 -56t33 -25t43.5 -6h284v-64q-70 -4 -147 -6.5t-150 -3.5zM304 789
q-36 0 -65.5 13.5t-47.5 44.5t-18 83h39q0 -57 27.5 -80.5t64.5 -22.5q41 0 67 22.5t26 80.5h39q0 -53 -18 -84t-48 -44t-66 -13z" />
    <glyph glyph-name="Ecaron" unicode="&#x11a;" horiz-adv-x="587" 
d="M233 -4q-24 0 -51.5 4t-51 18t-38.5 43t-15 78v449q0 57 21.5 89t55 45.5t68.5 13.5q92 -1 166.5 -4t141.5 -5v-64h-288q-39 0 -62 -21t-23 -67v-174l329 -5v-61l-329 -5v-173q0 -37 12.5 -56t33 -25t43.5 -6h284v-64q-70 -4 -147 -6.5t-150 -3.5zM282 791l-111 135h48
l92 -97l100 97h48l-121 -135h-56z" />
    <glyph glyph-name="uni1E1C" unicode="&#x1e1c;" horiz-adv-x="587" 
d="M233 -4q-24 0 -51.5 4t-51 18t-38.5 43t-15 78v449q0 57 21.5 89t55 45.5t68.5 13.5q92 -1 166.5 -4t141.5 -5v-64h-288q-39 0 -62 -21t-23 -67v-174l329 -5v-61l-329 -5v-173q0 -37 12.5 -56t33 -25t43.5 -6h284v-64q-70 -4 -147 -6.5t-150 -3.5zM262 -66l52 79h37
l-45 -68q73 -4 73 -63q0 -34 -25 -52.5t-71 -18.5h-33v32l22 2q56 5 56 45q0 17 -13 29.5t-53 14.5zM304 789q-36 0 -65.5 13.5t-47.5 44.5t-18 83h39q0 -57 27.5 -80.5t64.5 -22.5q41 0 67 22.5t26 80.5h39q0 -53 -18 -84t-48 -44t-66 -13z" />
    <glyph glyph-name="Ecircumflex" unicode="&#xca;" horiz-adv-x="587" 
d="M233 -4q-24 0 -51.5 4t-51 18t-38.5 43t-15 78v449q0 57 21.5 89t55 45.5t68.5 13.5q92 -1 166.5 -4t141.5 -5v-64h-288q-39 0 -62 -21t-23 -67v-174l329 -5v-61l-329 -5v-173q0 -37 12.5 -56t33 -25t43.5 -6h284v-64q-70 -4 -147 -6.5t-150 -3.5zM164 791l122 135h56
l110 -135h-48l-91 97l-100 -97h-49z" />
    <glyph glyph-name="uni1EBE" unicode="&#x1ebe;" horiz-adv-x="587" 
d="M233 -4q-24 0 -51.5 4t-51 18t-38.5 43t-15 78v449q0 57 21.5 89t55 45.5t68.5 13.5q92 -1 166.5 -4t141.5 -5v-64h-288q-39 0 -62 -21t-23 -67v-174l329 -5v-61l-329 -5v-173q0 -37 12.5 -56t33 -25t43.5 -6h284v-64q-70 -4 -147 -6.5t-150 -3.5zM482 997h68l-109 -129
h-46zM285 889h57l110 -98h-48l-92 61l-100 -61h-48z" />
    <glyph glyph-name="uni1EC6" unicode="&#x1ec6;" horiz-adv-x="587" 
d="M233 -4q-24 0 -51.5 4t-51 18t-38.5 43t-15 78v449q0 57 21.5 89t55 45.5t68.5 13.5q92 -1 166.5 -4t141.5 -5v-64h-288q-39 0 -62 -21t-23 -67v-174l329 -5v-61l-329 -5v-173q0 -37 12.5 -56t33 -25t43.5 -6h284v-64q-70 -4 -147 -6.5t-150 -3.5zM164 791l122 135h56
l110 -135h-48l-91 97l-100 -97h-49zM301 -210q-16 0 -16 16v78q0 16 16 16h37q15 0 15 -16v-78q0 -16 -15 -16h-37z" />
    <glyph glyph-name="uni1EC0" unicode="&#x1ec0;" horiz-adv-x="587" 
d="M233 -4q-24 0 -51.5 4t-51 18t-38.5 43t-15 78v449q0 57 21.5 89t55 45.5t68.5 13.5q92 -1 166.5 -4t141.5 -5v-64h-288q-39 0 -62 -21t-23 -67v-174l329 -5v-61l-329 -5v-173q0 -37 12.5 -56t33 -25t43.5 -6h284v-64q-70 -4 -147 -6.5t-150 -3.5zM72 997h68l87 -129h-46
zM285 889h57l110 -98h-48l-92 61l-100 -61h-48z" />
    <glyph glyph-name="uni1EC2" unicode="&#x1ec2;" horiz-adv-x="587" 
d="M233 -4q-24 0 -51.5 4t-51 18t-38.5 43t-15 78v449q0 57 21.5 89t55 45.5t68.5 13.5q92 -1 166.5 -4t141.5 -5v-64h-288q-39 0 -62 -21t-23 -67v-174l329 -5v-61l-329 -5v-173q0 -37 12.5 -56t33 -25t43.5 -6h284v-64q-70 -4 -147 -6.5t-150 -3.5zM418 843v36q28 9 39 23
t11 28q0 17 -9.5 27t-32.5 10q-17 0 -35 -6v30q20 7 45 7q37 0 54.5 -17.5t17.5 -47.5q0 -29 -21.5 -53t-68.5 -37zM164 791l121 98h57l110 -98h-48l-92 61l-100 -61h-48z" />
    <glyph glyph-name="uni1EC4" unicode="&#x1ec4;" horiz-adv-x="587" 
d="M233 -4q-24 0 -51.5 4t-51 18t-38.5 43t-15 78v449q0 57 21.5 89t55 45.5t68.5 13.5q92 -1 166.5 -4t141.5 -5v-64h-288q-39 0 -62 -21t-23 -67v-174l329 -5v-61l-329 -5v-173q0 -37 12.5 -56t33 -25t43.5 -6h284v-64q-70 -4 -147 -6.5t-150 -3.5zM149 936q2 49 27.5 66
t54.5 17q28 0 52 -10.5t46 -21t45 -10.5q24 0 39 11t15 33h40q-4 -85 -83 -85q-27 0 -51.5 10.5t-48 21t-47.5 10.5q-19 0 -33.5 -10.5t-14.5 -31.5h-41zM342 889l110 -98h-48l-92 61l-100 -61h-48l121 98h57z" />
    <glyph glyph-name="uni0204" unicode="&#x204;" horiz-adv-x="587" 
d="M233 -4q-24 0 -51.5 4t-51 18t-38.5 43t-15 78v449q0 57 21.5 89t55 45.5t68.5 13.5q92 -1 166.5 -4t141.5 -5v-64h-288q-39 0 -62 -21t-23 -67v-174l329 -5v-61l-329 -5v-173q0 -37 12.5 -56t33 -25t43.5 -6h284v-64q-70 -4 -147 -6.5t-150 -3.5zM377 791l-125 136h68
l104 -136h-47zM231 791l-125 136h68l104 -136h-47z" />
    <glyph glyph-name="Edieresis" unicode="&#xcb;" horiz-adv-x="587" 
d="M233 -4q-24 0 -51.5 4t-51 18t-38.5 43t-15 78v449q0 57 21.5 89t55 45.5t68.5 13.5q92 -1 166.5 -4t141.5 -5v-64h-288q-39 0 -62 -21t-23 -67v-174l329 -5v-61l-329 -5v-173q0 -37 12.5 -56t33 -25t43.5 -6h284v-64q-70 -4 -147 -6.5t-150 -3.5zM403 813q-16 0 -16 16
v78q0 16 16 16h37q15 0 15 -16v-78q0 -16 -15 -16h-37zM167 813q-15 0 -15 16v78q0 16 15 16h37q16 0 16 -16v-78q0 -16 -16 -16h-37z" />
    <glyph glyph-name="Edotaccent" unicode="&#x116;" horiz-adv-x="587" 
d="M233 -4q-24 0 -51.5 4t-51 18t-38.5 43t-15 78v449q0 57 21.5 89t55 45.5t68.5 13.5q92 -1 166.5 -4t141.5 -5v-64h-288q-39 0 -62 -21t-23 -67v-174l329 -5v-61l-329 -5v-173q0 -37 12.5 -56t33 -25t43.5 -6h284v-64q-70 -4 -147 -6.5t-150 -3.5zM292 820q-16 0 -16 16
v78q0 16 16 16h37q15 0 15 -16v-78q0 -16 -15 -16h-37z" />
    <glyph glyph-name="uni1EB8" unicode="&#x1eb8;" horiz-adv-x="587" 
d="M233 -4q-24 0 -51.5 4t-51 18t-38.5 43t-15 78v449q0 57 21.5 89t55 45.5t68.5 13.5q92 -1 166.5 -4t141.5 -5v-64h-288q-39 0 -62 -21t-23 -67v-174l329 -5v-61l-329 -5v-173q0 -37 12.5 -56t33 -25t43.5 -6h284v-64q-70 -4 -147 -6.5t-150 -3.5zM301 -210q-16 0 -16 16
v78q0 16 16 16h37q15 0 15 -16v-78q0 -16 -15 -16h-37z" />
    <glyph glyph-name="Egrave" unicode="&#xc8;" horiz-adv-x="587" 
d="M233 -4q-24 0 -51.5 4t-51 18t-38.5 43t-15 78v449q0 57 21.5 89t55 45.5t68.5 13.5q92 -1 166.5 -4t141.5 -5v-64h-288q-39 0 -62 -21t-23 -67v-174l329 -5v-61l-329 -5v-173q0 -37 12.5 -56t33 -25t43.5 -6h284v-64q-70 -4 -147 -6.5t-150 -3.5zM294 791l-125 136h67
l104 -136h-46z" />
    <glyph glyph-name="uni1EBA" unicode="&#x1eba;" horiz-adv-x="587" 
d="M233 -4q-24 0 -51.5 4t-51 18t-38.5 43t-15 78v449q0 57 21.5 89t55 45.5t68.5 13.5q92 -1 166.5 -4t141.5 -5v-64h-288q-39 0 -62 -21t-23 -67v-174l329 -5v-61l-329 -5v-173q0 -37 12.5 -56t33 -25t43.5 -6h284v-64q-70 -4 -147 -6.5t-150 -3.5zM289 770v37
q32 9 44 25.5t12 33.5q0 20 -10.5 32t-37.5 12q-17 0 -35 -6v34q19 6 45 6q42 0 62 -21t20 -56q0 -31 -24 -56.5t-76 -40.5z" />
    <glyph glyph-name="uni0206" unicode="&#x206;" horiz-adv-x="587" 
d="M233 -4q-24 0 -51.5 4t-51 18t-38.5 43t-15 78v449q0 57 21.5 89t55 45.5t68.5 13.5q92 -1 166.5 -4t141.5 -5v-64h-288q-39 0 -62 -21t-23 -67v-174l329 -5v-61l-329 -5v-173q0 -37 12.5 -56t33 -25t43.5 -6h284v-64q-70 -4 -147 -6.5t-150 -3.5zM308 931
q36 0 65.5 -13.5t47.5 -44.5t18 -83h-39q0 57 -27.5 80.5t-64.5 22.5q-41 0 -67 -22.5t-26 -80.5h-39q0 53 18 84t48 44t66 13z" />
    <glyph glyph-name="Emacron" unicode="&#x112;" horiz-adv-x="587" 
d="M233 -4q-24 0 -51.5 4t-51 18t-38.5 43t-15 78v449q0 57 21.5 89t55 45.5t68.5 13.5q92 -1 166.5 -4t141.5 -5v-64h-288q-39 0 -62 -21t-23 -67v-174l329 -5v-61l-329 -5v-173q0 -37 12.5 -56t33 -25t43.5 -6h284v-64q-70 -4 -147 -6.5t-150 -3.5zM172 832v47h265v-47
h-265z" />
    <glyph glyph-name="uni1E16" unicode="&#x1e16;" horiz-adv-x="587" 
d="M233 -4q-24 0 -51.5 4t-51 18t-38.5 43t-15 78v449q0 57 21.5 89t55 45.5t68.5 13.5q92 -1 166.5 -4t141.5 -5v-64h-288q-39 0 -62 -21t-23 -67v-174l329 -5v-61l-329 -5v-173q0 -37 12.5 -56t33 -25t43.5 -6h284v-64q-70 -4 -147 -6.5t-150 -3.5zM172 832v47h265v-47
h-265zM288 921l104 136h67l-125 -136h-46z" />
    <glyph glyph-name="uni1E14" unicode="&#x1e14;" horiz-adv-x="587" 
d="M233 -4q-24 0 -51.5 4t-51 18t-38.5 43t-15 78v449q0 57 21.5 89t55 45.5t68.5 13.5q92 -1 166.5 -4t141.5 -5v-64h-288q-39 0 -62 -21t-23 -67v-174l329 -5v-61l-329 -5v-173q0 -37 12.5 -56t33 -25t43.5 -6h284v-64q-70 -4 -147 -6.5t-150 -3.5zM172 832v47h265v-47
h-265zM285 921l-125 136h67l104 -136h-46z" />
    <glyph glyph-name="Eogonek" unicode="&#x118;" horiz-adv-x="587" 
d="M233 -4q-24 0 -51.5 4t-51 18t-38.5 43t-15 78v449q0 57 21.5 89t55 45.5t68.5 13.5q92 -1 166.5 -4t141.5 -5v-64h-288q-39 0 -62 -21t-23 -67v-174l329 -5v-61l-329 -5v-173q0 -37 12.5 -56t33 -25t43.5 -6h284v-64q-70 -4 -147 -6.5t-150 -3.5zM529 -181q-51 0 -78 26
t-27 63q0 29 18 54.5t57 43.5h30q-63 -34 -63 -81q0 -30 21.5 -47.5t61.5 -17.5h6v-38q-10 -3 -26 -3z" />
    <glyph glyph-name="uni1EBC" unicode="&#x1ebc;" horiz-adv-x="587" 
d="M233 -4q-24 0 -51.5 4t-51 18t-38.5 43t-15 78v449q0 57 21.5 89t55 45.5t68.5 13.5q92 -1 166.5 -4t141.5 -5v-64h-288q-39 0 -62 -21t-23 -67v-174l329 -5v-61l-329 -5v-173q0 -37 12.5 -56t33 -25t43.5 -6h284v-64q-70 -4 -147 -6.5t-150 -3.5zM140 807
q2 60 31.5 83.5t64.5 23.5q32 0 57.5 -15.5t49 -30.5t48.5 -15q26 0 43 16t18 47h40q-1 -51 -26 -80t-70 -29q-31 0 -56.5 15.5t-50 31t-49.5 15.5q-24 0 -41.5 -15t-17.5 -47h-41z" />
    <glyph glyph-name="F" unicode="F" horiz-adv-x="567" 
d="M77 0v588q0 57 21.5 89t55 45.5t68.5 13.5q65 -1 147 -3t161 -7v-63h-289q-40 0 -62 -22t-22 -65v-191l329 -5v-61l-329 -5v-314h-80z" />
    <glyph glyph-name="uni1E1E" unicode="&#x1e1e;" horiz-adv-x="567" 
d="M77 0v588q0 57 21.5 89t55 45.5t68.5 13.5q65 -1 147 -3t161 -7v-63h-289q-40 0 -62 -22t-22 -65v-191l329 -5v-61l-329 -5v-314h-80zM292 820q-16 0 -16 16v78q0 16 16 16h37q15 0 15 -16v-78q0 -16 -15 -16h-37z" />
    <glyph glyph-name="G" unicode="G" horiz-adv-x="653" 
d="M295 -5q-93 -1 -144.5 39t-71.5 123.5t-20 212.5q0 125 21.5 207.5t75.5 123.5t152 41q58 0 121.5 -7t115.5 -19v-59q-20 2 -56 5.5t-80 6t-89 2.5q-72 0 -111.5 -30.5t-55 -96.5t-15.5 -175q0 -117 15.5 -182.5t54 -92t109.5 -26.5q48 0 97.5 12t84.5 26v217h-178v59
q29 5 73.5 7.5t91.5 2.5q54 0 89 -4v-388h-58l-12 52q-36 -19 -91.5 -37.5t-118.5 -19.5z" />
    <glyph glyph-name="Gbreve" unicode="&#x11e;" horiz-adv-x="653" 
d="M295 -5q-93 -1 -144.5 39t-71.5 123.5t-20 212.5q0 125 21.5 207.5t75.5 123.5t152 41q58 0 121.5 -7t115.5 -19v-59q-20 2 -56 5.5t-80 6t-89 2.5q-72 0 -111.5 -30.5t-55 -96.5t-15.5 -175q0 -117 15.5 -182.5t54 -92t109.5 -26.5q48 0 97.5 12t84.5 26v217h-178v59
q29 5 73.5 7.5t91.5 2.5q54 0 89 -4v-388h-58l-12 52q-36 -19 -91.5 -37.5t-118.5 -19.5zM321 789q-36 0 -65.5 13.5t-47.5 44.5t-18 83h39q0 -57 27.5 -80.5t64.5 -22.5q41 0 67 22.5t26 80.5h39q0 -53 -18 -84t-48 -44t-66 -13z" />
    <glyph glyph-name="Gcaron" unicode="&#x1e6;" horiz-adv-x="653" 
d="M295 -5q-93 -1 -144.5 39t-71.5 123.5t-20 212.5q0 125 21.5 207.5t75.5 123.5t152 41q58 0 121.5 -7t115.5 -19v-59q-20 2 -56 5.5t-80 6t-89 2.5q-72 0 -111.5 -30.5t-55 -96.5t-15.5 -175q0 -117 15.5 -182.5t54 -92t109.5 -26.5q48 0 97.5 12t84.5 26v217h-178v59
q29 5 73.5 7.5t91.5 2.5q54 0 89 -4v-388h-58l-12 52q-36 -19 -91.5 -37.5t-118.5 -19.5zM299 791l-111 135h48l92 -97l100 97h48l-121 -135h-56z" />
    <glyph glyph-name="Gcircumflex" unicode="&#x11c;" horiz-adv-x="653" 
d="M295 -5q-93 -1 -144.5 39t-71.5 123.5t-20 212.5q0 125 21.5 207.5t75.5 123.5t152 41q58 0 121.5 -7t115.5 -19v-59q-20 2 -56 5.5t-80 6t-89 2.5q-72 0 -111.5 -30.5t-55 -96.5t-15.5 -175q0 -117 15.5 -182.5t54 -92t109.5 -26.5q48 0 97.5 12t84.5 26v217h-178v59
q29 5 73.5 7.5t91.5 2.5q54 0 89 -4v-388h-58l-12 52q-36 -19 -91.5 -37.5t-118.5 -19.5zM181 791l122 135h56l110 -135h-48l-91 97l-100 -97h-49z" />
    <glyph glyph-name="uni0122" unicode="&#x122;" horiz-adv-x="653" 
d="M295 -5q-93 -1 -144.5 39t-71.5 123.5t-20 212.5q0 125 21.5 207.5t75.5 123.5t152 41q58 0 121.5 -7t115.5 -19v-59q-20 2 -56 5.5t-80 6t-89 2.5q-72 0 -111.5 -30.5t-55 -96.5t-15.5 -175q0 -117 15.5 -182.5t54 -92t109.5 -26.5q48 0 97.5 12t84.5 26v217h-178v59
q29 5 73.5 7.5t91.5 2.5q54 0 89 -4v-388h-58l-12 52q-36 -19 -91.5 -37.5t-118.5 -19.5zM257 -202v32l30 5q23 4 38 11.5t22.5 28t7.5 62.5h49q0 -75 -21.5 -107t-87.5 -32h-38z" />
    <glyph glyph-name="Gdotaccent" unicode="&#x120;" horiz-adv-x="653" 
d="M295 -5q-93 -1 -144.5 39t-71.5 123.5t-20 212.5q0 125 21.5 207.5t75.5 123.5t152 41q58 0 121.5 -7t115.5 -19v-59q-20 2 -56 5.5t-80 6t-89 2.5q-72 0 -111.5 -30.5t-55 -96.5t-15.5 -175q0 -117 15.5 -182.5t54 -92t109.5 -26.5q48 0 97.5 12t84.5 26v217h-178v59
q29 5 73.5 7.5t91.5 2.5q54 0 89 -4v-388h-58l-12 52q-36 -19 -91.5 -37.5t-118.5 -19.5zM309 820q-16 0 -16 16v78q0 16 16 16h37q15 0 15 -16v-78q0 -16 -15 -16h-37z" />
    <glyph glyph-name="uni1E20" unicode="&#x1e20;" horiz-adv-x="653" 
d="M295 -5q-93 -1 -144.5 39t-71.5 123.5t-20 212.5q0 125 21.5 207.5t75.5 123.5t152 41q58 0 121.5 -7t115.5 -19v-59q-20 2 -56 5.5t-80 6t-89 2.5q-72 0 -111.5 -30.5t-55 -96.5t-15.5 -175q0 -117 15.5 -182.5t54 -92t109.5 -26.5q48 0 97.5 12t84.5 26v217h-178v59
q29 5 73.5 7.5t91.5 2.5q54 0 89 -4v-388h-58l-12 52q-36 -19 -91.5 -37.5t-118.5 -19.5zM189 832v47h265v-47h-265z" />
    <glyph glyph-name="H" unicode="H" horiz-adv-x="682" 
d="M77 0v736h80v-341h368v341h79v-736h-79v324h-368v-324h-80z" />
    <glyph glyph-name="Hbar" unicode="&#x126;" horiz-adv-x="682" 
d="M77 0v525h-62v46h62v165h80v-165h368v165h79v-165h63v-46h-63v-525h-79v324h-368v-324h-80zM157 395h368v130h-368v-130z" />
    <glyph glyph-name="uni1E2A" unicode="&#x1e2a;" horiz-adv-x="682" 
d="M77 0v736h80v-341h368v341h79v-736h-79v324h-368v-324h-80zM338 -221q-36 0 -65.5 13.5t-47.5 44.5t-18 83h39q0 -57 27.5 -80.5t64.5 -22.5q41 0 67 22.5t26 80.5h39q0 -53 -18 -84t-48 -44t-66 -13z" />
    <glyph glyph-name="Hcircumflex" unicode="&#x124;" horiz-adv-x="682" 
d="M77 0v736h80v-341h368v341h79v-736h-79v324h-368v-324h-80zM194 791l122 135h56l110 -135h-48l-91 97l-100 -97h-49z" />
    <glyph glyph-name="uni1E24" unicode="&#x1e24;" horiz-adv-x="682" 
d="M77 0v736h80v-341h368v341h79v-736h-79v324h-368v-324h-80zM322 -210q-16 0 -16 16v78q0 16 16 16h37q15 0 15 -16v-78q0 -16 -15 -16h-37z" />
    <glyph glyph-name="I" unicode="I" horiz-adv-x="234" 
d="M77 0v736h80v-736h-80z" />
    <glyph glyph-name="Iacute" unicode="&#xcd;" horiz-adv-x="234" 
d="M77 0v736h80v-736h-80zM98 791l104 136h67l-125 -136h-46z" />
    <glyph glyph-name="Ibreve" unicode="&#x12c;" horiz-adv-x="234" 
d="M77 0v736h80v-736h-80zM110 789q-36 0 -65.5 13.5t-47.5 44.5t-18 83h39q0 -57 27.5 -80.5t64.5 -22.5q41 0 67 22.5t26 80.5h39q0 -53 -18 -84t-48 -44t-66 -13z" />
    <glyph glyph-name="Icircumflex" unicode="&#xce;" horiz-adv-x="234" 
d="M77 0v736h80v-736h-80zM-30 791l122 135h56l110 -135h-48l-91 97l-100 -97h-49z" />
    <glyph glyph-name="uni0208" unicode="&#x208;" horiz-adv-x="234" 
d="M77 0v736h80v-736h-80zM182 791l-125 136h68l104 -136h-47zM36 791l-125 136h68l104 -136h-47z" />
    <glyph glyph-name="Idieresis" unicode="&#xcf;" horiz-adv-x="234" 
d="M77 0v736h80v-736h-80zM209 813q-16 0 -16 16v78q0 16 16 16h37q15 0 15 -16v-78q0 -16 -15 -16h-37zM-27 813q-15 0 -15 16v78q0 16 15 16h37q16 0 16 -16v-78q0 -16 -16 -16h-37z" />
    <glyph glyph-name="uni1E2E" unicode="&#x1e2e;" horiz-adv-x="234" 
d="M77 0v736h80v-736h-80zM209 813q-16 0 -16 16v78q0 16 16 16h37q15 0 15 -16v-78q0 -16 -15 -16h-37zM-27 813q-15 0 -15 16v78q0 16 15 16h37q16 0 16 -16v-78q0 -16 -16 -16h-37zM95 954l104 136h67l-125 -136h-46z" />
    <glyph glyph-name="Idotaccent" unicode="&#x130;" horiz-adv-x="234" 
d="M77 0v736h80v-736h-80zM98 820q-16 0 -16 16v78q0 16 16 16h37q15 0 15 -16v-78q0 -16 -15 -16h-37z" />
    <glyph glyph-name="uni1ECA" unicode="&#x1eca;" horiz-adv-x="234" 
d="M77 0v736h80v-736h-80zM98 -210q-16 0 -16 16v78q0 16 16 16h37q15 0 15 -16v-78q0 -16 -15 -16h-37z" />
    <glyph glyph-name="Igrave" unicode="&#xcc;" horiz-adv-x="234" 
d="M77 0v736h80v-736h-80zM100 791l-125 136h67l104 -136h-46z" />
    <glyph glyph-name="uni1EC8" unicode="&#x1ec8;" horiz-adv-x="234" 
d="M77 0v736h80v-736h-80zM95 770v37q32 9 44 25.5t12 33.5q0 20 -10.5 32t-37.5 12q-17 0 -35 -6v34q19 6 45 6q42 0 62 -21t20 -56q0 -31 -24 -56.5t-76 -40.5z" />
    <glyph glyph-name="uni020A" unicode="&#x20a;" horiz-adv-x="234" 
d="M77 0v736h80v-736h-80zM114 931q36 0 65.5 -13.5t47.5 -44.5t18 -83h-39q0 57 -27.5 80.5t-64.5 22.5q-41 0 -67 -22.5t-26 -80.5h-39q0 53 18 84t48 44t66 13z" />
    <glyph glyph-name="Imacron" unicode="&#x12a;" horiz-adv-x="234" 
d="M77 0v736h80v-736h-80zM-22 832v47h265v-47h-265z" />
    <glyph glyph-name="Iogonek" unicode="&#x12e;" horiz-adv-x="234" 
d="M77 0v736h80v-736h-80zM156 -187q-51 0 -78 26t-27 63q0 29 18 54.5t57 43.5h30q-63 -34 -63 -81q0 -30 21.5 -47.5t61.5 -17.5h6v-38q-10 -3 -26 -3z" />
    <glyph glyph-name="Itilde" unicode="&#x128;" horiz-adv-x="234" 
d="M77 0v736h80v-736h-80zM-55 807q2 60 31.5 83.5t64.5 23.5q32 0 57.5 -15.5t49 -30.5t48.5 -15q26 0 43 16t18 47h40q-1 -51 -26 -80t-70 -29q-31 0 -56.5 15.5t-50 31t-49.5 15.5q-24 0 -41.5 -15t-17.5 -47h-41z" />
    <glyph glyph-name="J" unicode="J" horiz-adv-x="385" 
d="M140 -6q-29 0 -60.5 6.5t-52.5 16.5v61q21 -4 48.5 -8.5t49.5 -4.5q47 0 75 21.5t28 84.5v565h79v-575q0 -91 -41.5 -129t-125.5 -38z" />
    <glyph glyph-name="Jcircumflex" unicode="&#x134;" horiz-adv-x="385" 
d="M140 -6q-29 0 -60.5 6.5t-52.5 16.5v61q21 -4 48.5 -8.5t49.5 -4.5q47 0 75 21.5t28 84.5v565h79v-575q0 -91 -41.5 -129t-125.5 -38zM121 791l122 135h56l110 -135h-48l-91 97l-100 -97h-49z" />
    <glyph glyph-name="K" unicode="K" horiz-adv-x="605" 
d="M77 0v736h80v-333h129l202 333h84l-223 -368l226 -368h-85l-204 331h-129v-331h-80z" />
    <glyph glyph-name="uni0136" unicode="&#x136;" horiz-adv-x="605" 
d="M77 0v736h80v-333h129l202 333h84l-223 -368l226 -368h-85l-204 331h-129v-331h-80zM210 -202v32l30 5q23 4 38 11.5t22.5 28t7.5 62.5h49q0 -75 -21.5 -107t-87.5 -32h-38z" />
    <glyph glyph-name="L" unicode="L" horiz-adv-x="532" 
d="M225 0q-43 0 -76.5 13.5t-52.5 45.5t-19 89v588h80v-577q0 -36 12 -54.5t31.5 -25t41.5 -6.5h264v-73h-281z" />
    <glyph glyph-name="Lacute" unicode="&#x139;" horiz-adv-x="532" 
d="M225 0q-43 0 -76.5 13.5t-52.5 45.5t-19 89v588h80v-577q0 -36 12 -54.5t31.5 -25t41.5 -6.5h264v-73h-281zM98 791l104 136h67l-125 -136h-46z" />
    <glyph glyph-name="Lcaron" unicode="&#x13d;" horiz-adv-x="532" 
d="M225 0q-43 0 -76.5 13.5t-52.5 45.5t-19 89v588h80v-577q0 -36 12 -54.5t31.5 -25t41.5 -6.5h264v-73h-281zM250 582l-6 141v60h73v-60l-6 -141h-61z" />
    <glyph glyph-name="uni013B" unicode="&#x13b;" horiz-adv-x="532" 
d="M225 0q-43 0 -76.5 13.5t-52.5 45.5t-19 89v588h80v-577q0 -36 12 -54.5t31.5 -25t41.5 -6.5h264v-73h-281zM191 -202v32l30 5q23 4 38 11.5t22.5 28t7.5 62.5h49q0 -75 -21.5 -107t-87.5 -32h-38z" />
    <glyph glyph-name="Ldot" unicode="&#x13f;" horiz-adv-x="532" 
d="M225 0q-43 0 -76.5 13.5t-52.5 45.5t-19 89v588h80v-577q0 -36 12 -54.5t31.5 -25t41.5 -6.5h264v-73h-281zM370 352q-16 0 -16 15v47q0 16 16 16h44q17 0 17 -16v-47q0 -15 -17 -15h-44z" />
    <glyph glyph-name="uni1E36" unicode="&#x1e36;" horiz-adv-x="532" 
d="M225 0q-43 0 -76.5 13.5t-52.5 45.5t-19 89v588h80v-577q0 -36 12 -54.5t31.5 -25t41.5 -6.5h264v-73h-281zM254 -210q-16 0 -16 16v78q0 16 16 16h37q15 0 15 -16v-78q0 -16 -15 -16h-37z" />
    <glyph glyph-name="uni1E3A" unicode="&#x1e3a;" horiz-adv-x="532" 
d="M225 0q-43 0 -76.5 13.5t-52.5 45.5t-19 89v588h80v-577q0 -36 12 -54.5t31.5 -25t41.5 -6.5h264v-73h-281zM137 -188v47h265v-47h-265z" />
    <glyph glyph-name="Lslash" unicode="&#x141;" horiz-adv-x="532" 
d="M225 0q-43 0 -76.5 13.5t-52.5 45.5t-19 89v198l-75 -32v47l75 32v343h80v-318l135 59v-46l-135 -60v-212q0 -36 12 -54.5t31.5 -25t41.5 -6.5h264v-73h-281z" />
    <glyph glyph-name="M" unicode="M" horiz-adv-x="835" 
d="M57 0l84 736h81l196 -636l192 636h82l86 -736h-77l-70 610l-177 -610h-73l-180 606l-67 -606h-77z" />
    <glyph glyph-name="uni1E40" unicode="&#x1e40;" horiz-adv-x="835" 
d="M57 0l84 736h81l196 -636l192 636h82l86 -736h-77l-70 610l-177 -610h-73l-180 606l-67 -606h-77zM395 820q-16 0 -16 16v78q0 16 16 16h37q15 0 15 -16v-78q0 -16 -15 -16h-37z" />
    <glyph glyph-name="uni1E42" unicode="&#x1e42;" horiz-adv-x="835" 
d="M57 0l84 736h81l196 -636l192 636h82l86 -736h-77l-70 610l-177 -610h-73l-180 606l-67 -606h-77zM395 -210q-16 0 -16 16v78q0 16 16 16h37q15 0 15 -16v-78q0 -16 -15 -16h-37z" />
    <glyph glyph-name="N" unicode="N" horiz-adv-x="683" 
d="M91 0v736h65l384 -599v599h79v-736h-65l-384 599v-599h-79z" />
    <glyph glyph-name="Nacute" unicode="&#x143;" horiz-adv-x="683" 
d="M91 0v736h65l384 -599v599h79v-736h-65l-384 599v-599h-79zM320 791l104 136h67l-125 -136h-46z" />
    <glyph glyph-name="Ncaron" unicode="&#x147;" horiz-adv-x="683" 
d="M91 0v736h65l384 -599v599h79v-736h-65l-384 599v-599h-79zM310 791l-111 135h48l92 -97l100 97h48l-121 -135h-56z" />
    <glyph glyph-name="uni0145" unicode="&#x145;" horiz-adv-x="683" 
d="M91 0v736h65l384 -599v599h79v-736h-65l-384 599v-599h-79zM257 -202v32l30 5q23 4 38 11.5t22.5 28t7.5 62.5h49q0 -75 -21.5 -107t-87.5 -32h-38z" />
    <glyph glyph-name="uni1E44" unicode="&#x1e44;" horiz-adv-x="683" 
d="M91 0v736h65l384 -599v599h79v-736h-65l-384 599v-599h-79zM320 -210q-16 0 -16 16v78q0 16 16 16h37q15 0 15 -16v-78q0 -16 -15 -16h-37z" />
    <glyph glyph-name="uni1E46" unicode="&#x1e46;" horiz-adv-x="683" 
d="M91 0v736h65l384 -599v599h79v-736h-65l-384 599v-599h-79zM320 -210q-16 0 -16 16v78q0 16 16 16h37q15 0 15 -16v-78q0 -16 -15 -16h-37z" />
    <glyph glyph-name="Eng" unicode="&#x14a;" horiz-adv-x="679" 
d="M91 0v736h65l384 -599v599h79v-812q0 -91 -45 -129t-135 -38q-28 0 -60 6.5t-53 16.5v61q22 -4 50 -8.5t51 -4.5q51 0 82 21.5t31 84.5v88l-370 577v-599h-79z" />
    <glyph glyph-name="uni1E48" unicode="&#x1e48;" horiz-adv-x="683" 
d="M91 0v736h65l384 -599v599h79v-736h-65l-384 599v-599h-79zM203 -188v47h265v-47h-265z" />
    <glyph glyph-name="Ntilde" unicode="&#xd1;" horiz-adv-x="683" 
d="M91 0v736h65l384 -599v599h79v-736h-65l-384 599v-599h-79zM168 807q2 60 31.5 83.5t64.5 23.5q32 0 57.5 -15.5t49 -30.5t48.5 -15q26 0 43 16t18 47h40q-1 -51 -26 -80t-70 -29q-31 0 -56.5 15.5t-50 31t-49.5 15.5q-24 0 -41.5 -15t-17.5 -47h-41z" />
    <glyph glyph-name="O" unicode="O" horiz-adv-x="686" 
d="M343 -6q-71 0 -124.5 13.5t-89 51.5t-53 111.5t-17.5 194.5q0 120 18 194.5t54 114t89 54t123 14.5q72 0 125.5 -14.5t89 -54t52.5 -114t17 -194.5q0 -121 -17.5 -194.5t-53 -111.5t-89 -51.5t-124.5 -13.5zM343 65q56 0 95 11t63.5 42t35.5 90.5t11 156.5
q0 101 -11.5 162t-36 92t-63.5 41.5t-94 10.5q-52 0 -90.5 -10.5t-64 -41.5t-38 -92t-12.5 -162q0 -97 10.5 -156.5t34.5 -90.5t63.5 -42t96.5 -11z" />
    <glyph glyph-name="Oacute" unicode="&#xd3;" horiz-adv-x="686" 
d="M343 -6q-71 0 -124.5 13.5t-89 51.5t-53 111.5t-17.5 194.5q0 120 18 194.5t54 114t89 54t123 14.5q72 0 125.5 -14.5t89 -54t52.5 -114t17 -194.5q0 -121 -17.5 -194.5t-53 -111.5t-89 -51.5t-124.5 -13.5zM343 65q56 0 95 11t63.5 42t35.5 90.5t11 156.5
q0 101 -11.5 162t-36 92t-63.5 41.5t-94 10.5q-52 0 -90.5 -10.5t-64 -41.5t-38 -92t-12.5 -162q0 -97 10.5 -156.5t34.5 -90.5t63.5 -42t96.5 -11zM324 791l104 136h67l-125 -136h-46z" />
    <glyph glyph-name="Obreve" unicode="&#x14e;" horiz-adv-x="686" 
d="M343 -6q-71 0 -124.5 13.5t-89 51.5t-53 111.5t-17.5 194.5q0 120 18 194.5t54 114t89 54t123 14.5q72 0 125.5 -14.5t89 -54t52.5 -114t17 -194.5q0 -121 -17.5 -194.5t-53 -111.5t-89 -51.5t-124.5 -13.5zM343 65q56 0 95 11t63.5 42t35.5 90.5t11 156.5
q0 101 -11.5 162t-36 92t-63.5 41.5t-94 10.5q-52 0 -90.5 -10.5t-64 -41.5t-38 -92t-12.5 -162q0 -97 10.5 -156.5t34.5 -90.5t63.5 -42t96.5 -11zM336 789q-36 0 -65.5 13.5t-47.5 44.5t-18 83h39q0 -57 27.5 -80.5t64.5 -22.5q41 0 67 22.5t26 80.5h39q0 -53 -18 -84
t-48 -44t-66 -13z" />
    <glyph glyph-name="Ocircumflex" unicode="&#xd4;" horiz-adv-x="686" 
d="M343 -6q-71 0 -124.5 13.5t-89 51.5t-53 111.5t-17.5 194.5q0 120 18 194.5t54 114t89 54t123 14.5q72 0 125.5 -14.5t89 -54t52.5 -114t17 -194.5q0 -121 -17.5 -194.5t-53 -111.5t-89 -51.5t-124.5 -13.5zM343 65q56 0 95 11t63.5 42t35.5 90.5t11 156.5
q0 101 -11.5 162t-36 92t-63.5 41.5t-94 10.5q-52 0 -90.5 -10.5t-64 -41.5t-38 -92t-12.5 -162q0 -97 10.5 -156.5t34.5 -90.5t63.5 -42t96.5 -11zM196 791l122 135h56l110 -135h-48l-91 97l-100 -97h-49z" />
    <glyph glyph-name="uni1ED0" unicode="&#x1ed0;" horiz-adv-x="686" 
d="M343 -6q-71 0 -124.5 13.5t-89 51.5t-53 111.5t-17.5 194.5q0 120 18 194.5t54 114t89 54t123 14.5q72 0 125.5 -14.5t89 -54t52.5 -114t17 -194.5q0 -121 -17.5 -194.5t-53 -111.5t-89 -51.5t-124.5 -13.5zM343 65q56 0 95 11t63.5 42t35.5 90.5t11 156.5
q0 101 -11.5 162t-36 92t-63.5 41.5t-94 10.5q-52 0 -90.5 -10.5t-64 -41.5t-38 -92t-12.5 -162q0 -97 10.5 -156.5t34.5 -90.5t63.5 -42t96.5 -11zM514 997h68l-109 -129h-46zM317 889h57l110 -98h-48l-92 61l-100 -61h-48z" />
    <glyph glyph-name="uni1ED8" unicode="&#x1ed8;" horiz-adv-x="686" 
d="M343 -6q-71 0 -124.5 13.5t-89 51.5t-53 111.5t-17.5 194.5q0 120 18 194.5t54 114t89 54t123 14.5q72 0 125.5 -14.5t89 -54t52.5 -114t17 -194.5q0 -121 -17.5 -194.5t-53 -111.5t-89 -51.5t-124.5 -13.5zM343 65q56 0 95 11t63.5 42t35.5 90.5t11 156.5
q0 101 -11.5 162t-36 92t-63.5 41.5t-94 10.5q-52 0 -90.5 -10.5t-64 -41.5t-38 -92t-12.5 -162q0 -97 10.5 -156.5t34.5 -90.5t63.5 -42t96.5 -11zM196 791l122 135h56l110 -135h-48l-91 97l-100 -97h-49zM324 -210q-16 0 -16 16v78q0 16 16 16h37q15 0 15 -16v-78
q0 -16 -15 -16h-37z" />
    <glyph glyph-name="uni1ED2" unicode="&#x1ed2;" horiz-adv-x="686" 
d="M343 -6q-71 0 -124.5 13.5t-89 51.5t-53 111.5t-17.5 194.5q0 120 18 194.5t54 114t89 54t123 14.5q72 0 125.5 -14.5t89 -54t52.5 -114t17 -194.5q0 -121 -17.5 -194.5t-53 -111.5t-89 -51.5t-124.5 -13.5zM343 65q56 0 95 11t63.5 42t35.5 90.5t11 156.5
q0 101 -11.5 162t-36 92t-63.5 41.5t-94 10.5q-52 0 -90.5 -10.5t-64 -41.5t-38 -92t-12.5 -162q0 -97 10.5 -156.5t34.5 -90.5t63.5 -42t96.5 -11zM104 997h68l87 -129h-46zM317 889h57l110 -98h-48l-92 61l-100 -61h-48z" />
    <glyph glyph-name="uni1ED4" unicode="&#x1ed4;" horiz-adv-x="686" 
d="M343 -6q-71 0 -124.5 13.5t-89 51.5t-53 111.5t-17.5 194.5q0 120 18 194.5t54 114t89 54t123 14.5q72 0 125.5 -14.5t89 -54t52.5 -114t17 -194.5q0 -121 -17.5 -194.5t-53 -111.5t-89 -51.5t-124.5 -13.5zM343 65q56 0 95 11t63.5 42t35.5 90.5t11 156.5
q0 101 -11.5 162t-36 92t-63.5 41.5t-94 10.5q-52 0 -90.5 -10.5t-64 -41.5t-38 -92t-12.5 -162q0 -97 10.5 -156.5t34.5 -90.5t63.5 -42t96.5 -11zM450 843v36q28 9 39 23t11 28q0 17 -9.5 27t-32.5 10q-17 0 -35 -6v30q20 7 45 7q37 0 54.5 -17.5t17.5 -47.5
q0 -29 -21.5 -53t-68.5 -37zM196 791l121 98h57l110 -98h-48l-92 61l-100 -61h-48z" />
    <glyph glyph-name="uni1ED6" unicode="&#x1ed6;" horiz-adv-x="686" 
d="M343 -6q-71 0 -124.5 13.5t-89 51.5t-53 111.5t-17.5 194.5q0 120 18 194.5t54 114t89 54t123 14.5q72 0 125.5 -14.5t89 -54t52.5 -114t17 -194.5q0 -121 -17.5 -194.5t-53 -111.5t-89 -51.5t-124.5 -13.5zM343 65q56 0 95 11t63.5 42t35.5 90.5t11 156.5
q0 101 -11.5 162t-36 92t-63.5 41.5t-94 10.5q-52 0 -90.5 -10.5t-64 -41.5t-38 -92t-12.5 -162q0 -97 10.5 -156.5t34.5 -90.5t63.5 -42t96.5 -11zM181 936q2 49 27.5 66t54.5 17q28 0 52 -10.5t46 -21t45 -10.5q24 0 39 11t15 33h40q-4 -85 -83 -85q-27 0 -51.5 10.5
t-48 21t-47.5 10.5q-19 0 -33.5 -10.5t-14.5 -31.5h-41zM374 889l110 -98h-48l-92 61l-100 -61h-48l121 98h57z" />
    <glyph glyph-name="uni020C" unicode="&#x20c;" horiz-adv-x="686" 
d="M343 -6q-71 0 -124.5 13.5t-89 51.5t-53 111.5t-17.5 194.5q0 120 18 194.5t54 114t89 54t123 14.5q72 0 125.5 -14.5t89 -54t52.5 -114t17 -194.5q0 -121 -17.5 -194.5t-53 -111.5t-89 -51.5t-124.5 -13.5zM343 65q56 0 95 11t63.5 42t35.5 90.5t11 156.5
q0 101 -11.5 162t-36 92t-63.5 41.5t-94 10.5q-52 0 -90.5 -10.5t-64 -41.5t-38 -92t-12.5 -162q0 -97 10.5 -156.5t34.5 -90.5t63.5 -42t96.5 -11zM409 791l-125 136h68l104 -136h-47zM263 791l-125 136h68l104 -136h-47z" />
    <glyph glyph-name="Odieresis" unicode="&#xd6;" horiz-adv-x="686" 
d="M343 -6q-71 0 -124.5 13.5t-89 51.5t-53 111.5t-17.5 194.5q0 120 18 194.5t54 114t89 54t123 14.5q72 0 125.5 -14.5t89 -54t52.5 -114t17 -194.5q0 -121 -17.5 -194.5t-53 -111.5t-89 -51.5t-124.5 -13.5zM343 65q56 0 95 11t63.5 42t35.5 90.5t11 156.5
q0 101 -11.5 162t-36 92t-63.5 41.5t-94 10.5q-52 0 -90.5 -10.5t-64 -41.5t-38 -92t-12.5 -162q0 -97 10.5 -156.5t34.5 -90.5t63.5 -42t96.5 -11zM435 813q-16 0 -16 16v78q0 16 16 16h37q15 0 15 -16v-78q0 -16 -15 -16h-37zM199 813q-15 0 -15 16v78q0 16 15 16h37
q16 0 16 -16v-78q0 -16 -16 -16h-37z" />
    <glyph glyph-name="uni022A" unicode="&#x22a;" horiz-adv-x="686" 
d="M343 -6q-71 0 -124.5 13.5t-89 51.5t-53 111.5t-17.5 194.5q0 120 18 194.5t54 114t89 54t123 14.5q72 0 125.5 -14.5t89 -54t52.5 -114t17 -194.5q0 -121 -17.5 -194.5t-53 -111.5t-89 -51.5t-124.5 -13.5zM343 65q56 0 95 11t63.5 42t35.5 90.5t11 156.5
q0 101 -11.5 162t-36 92t-63.5 41.5t-94 10.5q-52 0 -90.5 -10.5t-64 -41.5t-38 -92t-12.5 -162q0 -97 10.5 -156.5t34.5 -90.5t63.5 -42t96.5 -11zM449 813q-16 0 -16 16v78q0 16 16 16h37q15 0 15 -16v-78q0 -16 -15 -16h-37zM213 813q-15 0 -15 16v78q0 16 15 16h37
q16 0 16 -16v-78q0 -16 -16 -16h-37zM218 998v47h265v-47h-265z" />
    <glyph glyph-name="uni0230" unicode="&#x230;" horiz-adv-x="686" 
d="M343 -6q-71 0 -124.5 13.5t-89 51.5t-53 111.5t-17.5 194.5q0 120 18 194.5t54 114t89 54t123 14.5q72 0 125.5 -14.5t89 -54t52.5 -114t17 -194.5q0 -121 -17.5 -194.5t-53 -111.5t-89 -51.5t-124.5 -13.5zM343 65q56 0 95 11t63.5 42t35.5 90.5t11 156.5
q0 101 -11.5 162t-36 92t-63.5 41.5t-94 10.5q-52 0 -90.5 -10.5t-64 -41.5t-38 -92t-12.5 -162q0 -97 10.5 -156.5t34.5 -90.5t63.5 -42t96.5 -11zM324 820q-16 0 -16 16v78q0 16 16 16h37q15 0 15 -16v-78q0 -16 -15 -16h-37zM204 992v47h265v-47h-265z" />
    <glyph glyph-name="uni1ECC" unicode="&#x1ecc;" horiz-adv-x="686" 
d="M343 -6q-71 0 -124.5 13.5t-89 51.5t-53 111.5t-17.5 194.5q0 120 18 194.5t54 114t89 54t123 14.5q72 0 125.5 -14.5t89 -54t52.5 -114t17 -194.5q0 -121 -17.5 -194.5t-53 -111.5t-89 -51.5t-124.5 -13.5zM343 65q56 0 95 11t63.5 42t35.5 90.5t11 156.5
q0 101 -11.5 162t-36 92t-63.5 41.5t-94 10.5q-52 0 -90.5 -10.5t-64 -41.5t-38 -92t-12.5 -162q0 -97 10.5 -156.5t34.5 -90.5t63.5 -42t96.5 -11zM324 -210q-16 0 -16 16v78q0 16 16 16h37q15 0 15 -16v-78q0 -16 -15 -16h-37z" />
    <glyph glyph-name="Ograve" unicode="&#xd2;" horiz-adv-x="686" 
d="M343 -6q-71 0 -124.5 13.5t-89 51.5t-53 111.5t-17.5 194.5q0 120 18 194.5t54 114t89 54t123 14.5q72 0 125.5 -14.5t89 -54t52.5 -114t17 -194.5q0 -121 -17.5 -194.5t-53 -111.5t-89 -51.5t-124.5 -13.5zM343 65q56 0 95 11t63.5 42t35.5 90.5t11 156.5
q0 101 -11.5 162t-36 92t-63.5 41.5t-94 10.5q-52 0 -90.5 -10.5t-64 -41.5t-38 -92t-12.5 -162q0 -97 10.5 -156.5t34.5 -90.5t63.5 -42t96.5 -11zM326 791l-125 136h67l104 -136h-46z" />
    <glyph glyph-name="uni1ECE" unicode="&#x1ece;" horiz-adv-x="686" 
d="M343 -6q-71 0 -124.5 13.5t-89 51.5t-53 111.5t-17.5 194.5q0 120 18 194.5t54 114t89 54t123 14.5q72 0 125.5 -14.5t89 -54t52.5 -114t17 -194.5q0 -121 -17.5 -194.5t-53 -111.5t-89 -51.5t-124.5 -13.5zM343 65q56 0 95 11t63.5 42t35.5 90.5t11 156.5
q0 101 -11.5 162t-36 92t-63.5 41.5t-94 10.5q-52 0 -90.5 -10.5t-64 -41.5t-38 -92t-12.5 -162q0 -97 10.5 -156.5t34.5 -90.5t63.5 -42t96.5 -11zM321 770v37q32 9 44 25.5t12 33.5q0 20 -10.5 32t-37.5 12q-17 0 -35 -6v34q19 6 45 6q42 0 62 -21t20 -56q0 -31 -24 -56.5
t-76 -40.5z" />
    <glyph glyph-name="Ohorn" unicode="&#x1a0;" horiz-adv-x="686" 
d="M343 -6q-71 0 -124.5 13.5t-89 51.5t-53 111.5t-17.5 194.5q0 120 18 194.5t54 114t89 54t123 14.5q25 0 48 -1.5t44 -4.5h69q35 0 57 24.5t22 88.5h57q0 -78 -29.5 -114t-72.5 -42q45 -38 67 -115.5t22 -212.5q0 -121 -17.5 -194.5t-53 -111.5t-89 -51.5t-124.5 -13.5z
M343 65q56 0 95 11t63.5 42t35.5 90.5t11 156.5q0 101 -11.5 162t-36 92t-63.5 41.5t-94 10.5q-52 0 -90.5 -10.5t-64 -41.5t-38 -92t-12.5 -162q0 -97 10.5 -156.5t34.5 -90.5t63.5 -42t96.5 -11z" />
    <glyph glyph-name="uni1EDA" unicode="&#x1eda;" horiz-adv-x="686" 
d="M343 -6q-71 0 -124.5 13.5t-89 51.5t-53 111.5t-17.5 194.5q0 120 18 194.5t54 114t89 54t123 14.5q25 0 48 -1.5t44 -4.5h69q35 0 57 24.5t22 88.5h57q0 -78 -29.5 -114t-72.5 -42q45 -38 67 -115.5t22 -212.5q0 -121 -17.5 -194.5t-53 -111.5t-89 -51.5t-124.5 -13.5z
M343 65q56 0 95 11t63.5 42t35.5 90.5t11 156.5q0 101 -11.5 162t-36 92t-63.5 41.5t-94 10.5q-52 0 -90.5 -10.5t-64 -41.5t-38 -92t-12.5 -162q0 -97 10.5 -156.5t34.5 -90.5t63.5 -42t96.5 -11zM312 791l104 136h67l-125 -136h-46z" />
    <glyph glyph-name="uni1EE2" unicode="&#x1ee2;" horiz-adv-x="686" 
d="M343 -6q-71 0 -124.5 13.5t-89 51.5t-53 111.5t-17.5 194.5q0 120 18 194.5t54 114t89 54t123 14.5q25 0 48 -1.5t44 -4.5h69q35 0 57 24.5t22 88.5h57q0 -78 -29.5 -114t-72.5 -42q45 -38 67 -115.5t22 -212.5q0 -121 -17.5 -194.5t-53 -111.5t-89 -51.5t-124.5 -13.5z
M343 65q56 0 95 11t63.5 42t35.5 90.5t11 156.5q0 101 -11.5 162t-36 92t-63.5 41.5t-94 10.5q-52 0 -90.5 -10.5t-64 -41.5t-38 -92t-12.5 -162q0 -97 10.5 -156.5t34.5 -90.5t63.5 -42t96.5 -11zM324 -210q-16 0 -16 16v78q0 16 16 16h37q15 0 15 -16v-78q0 -16 -15 -16
h-37z" />
    <glyph glyph-name="uni1EDC" unicode="&#x1edc;" horiz-adv-x="686" 
d="M343 -6q-71 0 -124.5 13.5t-89 51.5t-53 111.5t-17.5 194.5q0 120 18 194.5t54 114t89 54t123 14.5q25 0 48 -1.5t44 -4.5h69q35 0 57 24.5t22 88.5h57q0 -78 -29.5 -114t-72.5 -42q45 -38 67 -115.5t22 -212.5q0 -121 -17.5 -194.5t-53 -111.5t-89 -51.5t-124.5 -13.5z
M343 65q56 0 95 11t63.5 42t35.5 90.5t11 156.5q0 101 -11.5 162t-36 92t-63.5 41.5t-94 10.5q-52 0 -90.5 -10.5t-64 -41.5t-38 -92t-12.5 -162q0 -97 10.5 -156.5t34.5 -90.5t63.5 -42t96.5 -11zM311 791l-125 136h67l104 -136h-46z" />
    <glyph glyph-name="uni1EDE" unicode="&#x1ede;" horiz-adv-x="686" 
d="M343 -6q-71 0 -124.5 13.5t-89 51.5t-53 111.5t-17.5 194.5q0 120 18 194.5t54 114t89 54t123 14.5q25 0 48 -1.5t44 -4.5h69q35 0 57 24.5t22 88.5h57q0 -78 -29.5 -114t-72.5 -42q45 -38 67 -115.5t22 -212.5q0 -121 -17.5 -194.5t-53 -111.5t-89 -51.5t-124.5 -13.5z
M343 65q56 0 95 11t63.5 42t35.5 90.5t11 156.5q0 101 -11.5 162t-36 92t-63.5 41.5t-94 10.5q-52 0 -90.5 -10.5t-64 -41.5t-38 -92t-12.5 -162q0 -97 10.5 -156.5t34.5 -90.5t63.5 -42t96.5 -11zM321 770v37q32 9 44 25.5t12 33.5q0 20 -10.5 32t-37.5 12q-17 0 -35 -6v34
q19 6 45 6q42 0 62 -21t20 -56q0 -31 -24 -56.5t-76 -40.5z" />
    <glyph glyph-name="uni1EE0" unicode="&#x1ee0;" horiz-adv-x="686" 
d="M343 -6q-71 0 -124.5 13.5t-89 51.5t-53 111.5t-17.5 194.5q0 120 18 194.5t54 114t89 54t123 14.5q25 0 48 -1.5t44 -4.5h69q35 0 57 24.5t22 88.5h57q0 -78 -29.5 -114t-72.5 -42q45 -38 67 -115.5t22 -212.5q0 -121 -17.5 -194.5t-53 -111.5t-89 -51.5t-124.5 -13.5z
M343 65q56 0 95 11t63.5 42t35.5 90.5t11 156.5q0 101 -11.5 162t-36 92t-63.5 41.5t-94 10.5q-52 0 -90.5 -10.5t-64 -41.5t-38 -92t-12.5 -162q0 -97 10.5 -156.5t34.5 -90.5t63.5 -42t96.5 -11zM166 807q2 60 31.5 83.5t64.5 23.5q32 0 57.5 -15.5t49 -30.5t48.5 -15
q26 0 43 16t18 47h40q-1 -51 -26 -80t-70 -29q-31 0 -56.5 15.5t-50 31t-49.5 15.5q-24 0 -41.5 -15t-17.5 -47h-41z" />
    <glyph glyph-name="Ohungarumlaut" unicode="&#x150;" horiz-adv-x="686" 
d="M343 -6q-71 0 -124.5 13.5t-89 51.5t-53 111.5t-17.5 194.5q0 120 18 194.5t54 114t89 54t123 14.5q72 0 125.5 -14.5t89 -54t52.5 -114t17 -194.5q0 -121 -17.5 -194.5t-53 -111.5t-89 -51.5t-124.5 -13.5zM343 65q56 0 95 11t63.5 42t35.5 90.5t11 156.5
q0 101 -11.5 162t-36 92t-63.5 41.5t-94 10.5q-52 0 -90.5 -10.5t-64 -41.5t-38 -92t-12.5 -162q0 -97 10.5 -156.5t34.5 -90.5t63.5 -42t96.5 -11zM374 791l100 136h65l-119 -136h-46zM224 791l100 136h65l-119 -136h-46z" />
    <glyph glyph-name="uni020E" unicode="&#x20e;" horiz-adv-x="686" 
d="M343 -6q-71 0 -124.5 13.5t-89 51.5t-53 111.5t-17.5 194.5q0 120 18 194.5t54 114t89 54t123 14.5q72 0 125.5 -14.5t89 -54t52.5 -114t17 -194.5q0 -121 -17.5 -194.5t-53 -111.5t-89 -51.5t-124.5 -13.5zM343 65q56 0 95 11t63.5 42t35.5 90.5t11 156.5
q0 101 -11.5 162t-36 92t-63.5 41.5t-94 10.5q-52 0 -90.5 -10.5t-64 -41.5t-38 -92t-12.5 -162q0 -97 10.5 -156.5t34.5 -90.5t63.5 -42t96.5 -11zM340 931q36 0 65.5 -13.5t47.5 -44.5t18 -83h-39q0 57 -27.5 80.5t-64.5 22.5q-41 0 -67 -22.5t-26 -80.5h-39q0 53 18 84
t48 44t66 13z" />
    <glyph glyph-name="Omacron" unicode="&#x14c;" horiz-adv-x="686" 
d="M343 -6q-71 0 -124.5 13.5t-89 51.5t-53 111.5t-17.5 194.5q0 120 18 194.5t54 114t89 54t123 14.5q72 0 125.5 -14.5t89 -54t52.5 -114t17 -194.5q0 -121 -17.5 -194.5t-53 -111.5t-89 -51.5t-124.5 -13.5zM343 65q56 0 95 11t63.5 42t35.5 90.5t11 156.5
q0 101 -11.5 162t-36 92t-63.5 41.5t-94 10.5q-52 0 -90.5 -10.5t-64 -41.5t-38 -92t-12.5 -162q0 -97 10.5 -156.5t34.5 -90.5t63.5 -42t96.5 -11zM204 832v47h265v-47h-265z" />
    <glyph glyph-name="uni1E52" unicode="&#x1e52;" horiz-adv-x="686" 
d="M343 -6q-71 0 -124.5 13.5t-89 51.5t-53 111.5t-17.5 194.5q0 120 18 194.5t54 114t89 54t123 14.5q72 0 125.5 -14.5t89 -54t52.5 -114t17 -194.5q0 -121 -17.5 -194.5t-53 -111.5t-89 -51.5t-124.5 -13.5zM343 65q56 0 95 11t63.5 42t35.5 90.5t11 156.5
q0 101 -11.5 162t-36 92t-63.5 41.5t-94 10.5q-52 0 -90.5 -10.5t-64 -41.5t-38 -92t-12.5 -162q0 -97 10.5 -156.5t34.5 -90.5t63.5 -42t96.5 -11zM204 832v47h265v-47h-265zM321 924l104 136h67l-125 -136h-46z" />
    <glyph glyph-name="uni1E50" unicode="&#x1e50;" horiz-adv-x="686" 
d="M343 -6q-71 0 -124.5 13.5t-89 51.5t-53 111.5t-17.5 194.5q0 120 18 194.5t54 114t89 54t123 14.5q72 0 125.5 -14.5t89 -54t52.5 -114t17 -194.5q0 -121 -17.5 -194.5t-53 -111.5t-89 -51.5t-124.5 -13.5zM343 65q56 0 95 11t63.5 42t35.5 90.5t11 156.5
q0 101 -11.5 162t-36 92t-63.5 41.5t-94 10.5q-52 0 -90.5 -10.5t-64 -41.5t-38 -92t-12.5 -162q0 -97 10.5 -156.5t34.5 -90.5t63.5 -42t96.5 -11zM204 832v47h265v-47h-265zM316 924l-125 136h67l104 -136h-46z" />
    <glyph glyph-name="uni01EA" unicode="&#x1ea;" horiz-adv-x="686" 
d="M343 -6q-71 0 -124.5 13.5t-89 51.5t-53 111.5t-17.5 194.5q0 120 18 194.5t54 114t89 54t123 14.5q72 0 125.5 -14.5t89 -54t52.5 -114t17 -194.5q0 -121 -17.5 -194.5t-53 -111.5t-89 -51.5t-124.5 -13.5zM343 65q56 0 95 11t63.5 42t35.5 90.5t11 156.5
q0 101 -11.5 162t-36 92t-63.5 41.5t-94 10.5q-52 0 -90.5 -10.5t-64 -41.5t-38 -92t-12.5 -162q0 -97 10.5 -156.5t34.5 -90.5t63.5 -42t96.5 -11zM415 -187q-51 0 -78 26t-27 63q0 29 18 54.5t57 43.5h30q-63 -34 -63 -81q0 -30 21.5 -47.5t61.5 -17.5h6v-38
q-10 -3 -26 -3z" />
    <glyph glyph-name="Oslash" unicode="&#xd8;" horiz-adv-x="686" 
d="M72 0l47 72q-30 41 -45 111t-15 182q0 120 18 194.5t54 114t89 54t123 14.5q60 0 107.5 -9.5t81.5 -35.5l25 39h58l-49 -74q31 -42 46 -113.5t15 -183.5q0 -121 -17.5 -194.5t-53 -111.5t-89 -51.5t-124.5 -13.5q-60 0 -107 8.5t-82 34.5l-24 -37h-58zM138 365
q0 -156 30 -220l321 487q-25 24 -61 31.5t-85 7.5q-52 0 -90.5 -10.5t-64 -41.5t-38 -92t-12.5 -162zM343 65q56 0 95 11t63.5 42t35.5 90.5t11 156.5q0 158 -30 224l-321 -486q25 -22 60.5 -30t85.5 -8z" />
    <glyph glyph-name="Oslashacute" unicode="&#x1fe;" horiz-adv-x="686" 
d="M72 0l47 72q-30 41 -45 111t-15 182q0 120 18 194.5t54 114t89 54t123 14.5q60 0 107.5 -9.5t81.5 -35.5l25 39h58l-49 -74q31 -42 46 -113.5t15 -183.5q0 -121 -17.5 -194.5t-53 -111.5t-89 -51.5t-124.5 -13.5q-60 0 -107 8.5t-82 34.5l-24 -37h-58zM138 365
q0 -156 30 -220l321 487q-25 24 -61 31.5t-85 7.5q-52 0 -90.5 -10.5t-64 -41.5t-38 -92t-12.5 -162zM343 65q56 0 95 11t63.5 42t35.5 90.5t11 156.5q0 158 -30 224l-321 -486q25 -22 60.5 -30t85.5 -8zM324 791l104 136h67l-125 -136h-46z" />
    <glyph glyph-name="Otilde" unicode="&#xd5;" horiz-adv-x="686" 
d="M343 -6q-71 0 -124.5 13.5t-89 51.5t-53 111.5t-17.5 194.5q0 120 18 194.5t54 114t89 54t123 14.5q72 0 125.5 -14.5t89 -54t52.5 -114t17 -194.5q0 -121 -17.5 -194.5t-53 -111.5t-89 -51.5t-124.5 -13.5zM343 65q56 0 95 11t63.5 42t35.5 90.5t11 156.5
q0 101 -11.5 162t-36 92t-63.5 41.5t-94 10.5q-52 0 -90.5 -10.5t-64 -41.5t-38 -92t-12.5 -162q0 -97 10.5 -156.5t34.5 -90.5t63.5 -42t96.5 -11zM171 807q2 60 31.5 83.5t64.5 23.5q32 0 57.5 -15.5t49 -30.5t48.5 -15q26 0 43 16t18 47h40q-1 -51 -26 -80t-70 -29
q-31 0 -56.5 15.5t-50 31t-49.5 15.5q-24 0 -41.5 -15t-17.5 -47h-41z" />
    <glyph glyph-name="uni1E4C" unicode="&#x1e4c;" horiz-adv-x="686" 
d="M343 -6q-71 0 -124.5 13.5t-89 51.5t-53 111.5t-17.5 194.5q0 120 18 194.5t54 114t89 54t123 14.5q72 0 125.5 -14.5t89 -54t52.5 -114t17 -194.5q0 -121 -17.5 -194.5t-53 -111.5t-89 -51.5t-124.5 -13.5zM343 65q56 0 95 11t63.5 42t35.5 90.5t11 156.5
q0 101 -11.5 162t-36 92t-63.5 41.5t-94 10.5q-52 0 -90.5 -10.5t-64 -41.5t-38 -92t-12.5 -162q0 -97 10.5 -156.5t34.5 -90.5t63.5 -42t96.5 -11zM171 807q2 60 31.5 83.5t64.5 23.5q32 0 57.5 -15.5t49 -30.5t48.5 -15q26 0 43 16t18 47h40q-1 -51 -26 -80t-70 -29
q-31 0 -56.5 15.5t-50 31t-49.5 15.5q-24 0 -41.5 -15t-17.5 -47h-41zM314 948l104 136h67l-125 -136h-46z" />
    <glyph glyph-name="uni1E4E" unicode="&#x1e4e;" horiz-adv-x="686" 
d="M343 -6q-71 0 -124.5 13.5t-89 51.5t-53 111.5t-17.5 194.5q0 120 18 194.5t54 114t89 54t123 14.5q72 0 125.5 -14.5t89 -54t52.5 -114t17 -194.5q0 -121 -17.5 -194.5t-53 -111.5t-89 -51.5t-124.5 -13.5zM343 65q56 0 95 11t63.5 42t35.5 90.5t11 156.5
q0 101 -11.5 162t-36 92t-63.5 41.5t-94 10.5q-52 0 -90.5 -10.5t-64 -41.5t-38 -92t-12.5 -162q0 -97 10.5 -156.5t34.5 -90.5t63.5 -42t96.5 -11zM171 807q2 60 31.5 83.5t64.5 23.5q32 0 57.5 -15.5t49 -30.5t48.5 -15q26 0 43 16t18 47h40q-1 -51 -26 -80t-70 -29
q-31 0 -56.5 15.5t-50 31t-49.5 15.5q-24 0 -41.5 -15t-17.5 -47h-41zM442 970q-16 0 -16 16v78q0 16 16 16h37q15 0 15 -16v-78q0 -16 -15 -16h-37zM206 970q-15 0 -15 16v78q0 16 15 16h37q16 0 16 -16v-78q0 -16 -16 -16h-37z" />
    <glyph glyph-name="uni022C" unicode="&#x22c;" horiz-adv-x="686" 
d="M343 -6q-71 0 -124.5 13.5t-89 51.5t-53 111.5t-17.5 194.5q0 120 18 194.5t54 114t89 54t123 14.5q72 0 125.5 -14.5t89 -54t52.5 -114t17 -194.5q0 -121 -17.5 -194.5t-53 -111.5t-89 -51.5t-124.5 -13.5zM343 65q56 0 95 11t63.5 42t35.5 90.5t11 156.5
q0 101 -11.5 162t-36 92t-63.5 41.5t-94 10.5q-52 0 -90.5 -10.5t-64 -41.5t-38 -92t-12.5 -162q0 -97 10.5 -156.5t34.5 -90.5t63.5 -42t96.5 -11zM221 989v47h265v-47h-265zM171 807q2 60 31.5 83.5t64.5 23.5q32 0 57.5 -15.5t49 -30.5t48.5 -15q26 0 43 16t18 47h40
q-1 -51 -26 -80t-70 -29q-31 0 -56.5 15.5t-50 31t-49.5 15.5q-24 0 -41.5 -15t-17.5 -47h-41z" />
    <glyph glyph-name="OE" unicode="&#x152;" horiz-adv-x="1058" 
d="M343 -6q-71 0 -124.5 13.5t-89 51.5t-53 111.5t-17.5 194.5q0 120 18 194.5t54 114t89 54t123 14.5q72 0 125.5 -14.5t89 -54t52.5 -114t17 -194.5q0 -121 -17.5 -194.5t-53 -111.5t-89 -51.5t-124.5 -13.5zM343 65q56 0 95 11t63.5 42t35.5 90.5t11 156.5
q0 101 -11.5 162t-36 92t-63.5 41.5t-94 10.5q-52 0 -90.5 -10.5t-64 -41.5t-38 -92t-12.5 -162q0 -97 10.5 -156.5t34.5 -90.5t63.5 -42t96.5 -11zM704 -4q-24 0 -51.5 4t-51 18t-38.5 43t-15 78v449q0 57 21.5 89t55 45.5t68.5 13.5q92 -1 166.5 -4t141.5 -5v-64h-288
q-39 0 -62 -21t-23 -67v-174l329 -5v-61l-329 -5v-173q0 -37 12.5 -56t33 -25t43.5 -6h284v-64q-70 -4 -147 -6.5t-150 -3.5z" />
    <glyph glyph-name="P" unicode="P" horiz-adv-x="604" 
d="M77 0v736h293q32 0 65.5 -9t62.5 -33t46.5 -70.5t17.5 -122.5q0 -77 -18.5 -125t-48 -73.5t-63.5 -34.5t-66 -9q-15 0 -44 1t-61.5 2.5t-60.5 3.5t-43 3v-269h-80zM157 330h199q35 0 63.5 15t45.5 52t17 103q0 65 -16.5 100.5t-43.5 49.5t-59 14h-206v-334z" />
    <glyph glyph-name="uni1E56" unicode="&#x1e56;" horiz-adv-x="604" 
d="M77 0v736h293q32 0 65.5 -9t62.5 -33t46.5 -70.5t17.5 -122.5q0 -77 -18.5 -125t-48 -73.5t-63.5 -34.5t-66 -9q-15 0 -44 1t-61.5 2.5t-60.5 3.5t-43 3v-269h-80zM157 330h199q35 0 63.5 15t45.5 52t17 103q0 65 -16.5 100.5t-43.5 49.5t-59 14h-206v-334zM271 820
q-16 0 -16 16v78q0 16 16 16h37q15 0 15 -16v-78q0 -16 -15 -16h-37z" />
    <glyph glyph-name="Thorn" unicode="&#xde;" horiz-adv-x="560" 
d="M77 0v736h80v-135h169q32 0 66 -8t62.5 -30.5t46 -66t17.5 -114.5t-18.5 -115.5t-48 -68.5t-63.5 -32.5t-65 -8.5q-13 0 -35.5 1.5t-48.5 3t-48.5 3.5t-33.5 3v-168h-80zM157 229h156q35 0 63.5 13.5t45 46.5t16.5 93q0 58 -16.5 90t-43.5 44.5t-58 12.5h-163v-300z" />
    <glyph glyph-name="Q" unicode="Q" horiz-adv-x="686" 
d="M343 -6q-71 0 -124.5 13.5t-89 51.5t-53 111.5t-17.5 194.5q0 120 18 194.5t54 114t89 54t123 14.5q72 0 125.5 -14.5t89 -54t52.5 -114t17 -194.5q0 -121 -17.5 -194.5t-53 -111.5t-89 -51.5t-124.5 -13.5zM343 65q56 0 95 11t63.5 42t35.5 90.5t11 156.5
q0 101 -11.5 162t-36 92t-63.5 41.5t-94 10.5q-52 0 -90.5 -10.5t-64 -41.5t-38 -92t-12.5 -162q0 -97 10.5 -156.5t34.5 -90.5t63.5 -42t96.5 -11zM506 -170q-37 0 -71.5 15t-59 45t-29.5 75h54q12 -39 42 -56.5t63 -17.5q14 0 27.5 2.5t24.5 6.5v-62q-12 -4 -25 -6t-26 -2
z" />
    <glyph glyph-name="R" unicode="R" horiz-adv-x="608" 
d="M77 0v736h290q35 0 69.5 -8.5t62 -31t43.5 -65.5t16 -112q0 -60 -13 -98.5t-34 -60.5t-45.5 -33t-47.5 -15l151 -312h-81l-143 301q-22 1 -56.5 1.5t-70 1t-61.5 1.5v-305h-80zM157 366h198q34 0 62 11.5t45 44.5t17 97q0 62 -17.5 93t-45.5 41.5t-61 10.5h-198v-298z
" />
    <glyph glyph-name="Racute" unicode="&#x154;" horiz-adv-x="608" 
d="M77 0v736h290q35 0 69.5 -8.5t62 -31t43.5 -65.5t16 -112q0 -60 -13 -98.5t-34 -60.5t-45.5 -33t-47.5 -15l151 -312h-81l-143 301q-22 1 -56.5 1.5t-70 1t-61.5 1.5v-305h-80zM157 366h198q34 0 62 11.5t45 44.5t17 97q0 62 -17.5 93t-45.5 41.5t-61 10.5h-198v-298z
M274 791l104 136h67l-125 -136h-46z" />
    <glyph glyph-name="Rcaron" unicode="&#x158;" horiz-adv-x="608" 
d="M77 0v736h290q35 0 69.5 -8.5t62 -31t43.5 -65.5t16 -112q0 -60 -13 -98.5t-34 -60.5t-45.5 -33t-47.5 -15l151 -312h-81l-143 301q-22 1 -56.5 1.5t-70 1t-61.5 1.5v-305h-80zM157 366h198q34 0 62 11.5t45 44.5t17 97q0 62 -17.5 93t-45.5 41.5t-61 10.5h-198v-298z
M264 791l-111 135h48l92 -97l100 97h48l-121 -135h-56z" />
    <glyph glyph-name="uni0156" unicode="&#x156;" horiz-adv-x="608" 
d="M77 0v736h290q35 0 69.5 -8.5t62 -31t43.5 -65.5t16 -112q0 -60 -13 -98.5t-34 -60.5t-45.5 -33t-47.5 -15l151 -312h-81l-143 301q-22 1 -56.5 1.5t-70 1t-61.5 1.5v-305h-80zM157 366h198q34 0 62 11.5t45 44.5t17 97q0 62 -17.5 93t-45.5 41.5t-61 10.5h-198v-298z
M213 -202v32l30 5q23 4 38 11.5t22.5 28t7.5 62.5h49q0 -75 -21.5 -107t-87.5 -32h-38z" />
    <glyph glyph-name="uni0210" unicode="&#x210;" horiz-adv-x="608" 
d="M77 0v736h290q35 0 69.5 -8.5t62 -31t43.5 -65.5t16 -112q0 -60 -13 -98.5t-34 -60.5t-45.5 -33t-47.5 -15l151 -312h-81l-143 301q-22 1 -56.5 1.5t-70 1t-61.5 1.5v-305h-80zM157 366h198q34 0 62 11.5t45 44.5t17 97q0 62 -17.5 93t-45.5 41.5t-61 10.5h-198v-298z
M359 791l-125 136h68l104 -136h-47zM213 791l-125 136h68l104 -136h-47z" />
    <glyph glyph-name="uni1E5A" unicode="&#x1e5a;" horiz-adv-x="608" 
d="M77 0v736h290q35 0 69.5 -8.5t62 -31t43.5 -65.5t16 -112q0 -60 -13 -98.5t-34 -60.5t-45.5 -33t-47.5 -15l151 -312h-81l-143 301q-22 1 -56.5 1.5t-70 1t-61.5 1.5v-305h-80zM157 366h198q34 0 62 11.5t45 44.5t17 97q0 62 -17.5 93t-45.5 41.5t-61 10.5h-198v-298z
M276 -210q-16 0 -16 16v78q0 16 16 16h37q15 0 15 -16v-78q0 -16 -15 -16h-37z" />
    <glyph glyph-name="uni0212" unicode="&#x212;" horiz-adv-x="608" 
d="M77 0v736h290q35 0 69.5 -8.5t62 -31t43.5 -65.5t16 -112q0 -60 -13 -98.5t-34 -60.5t-45.5 -33t-47.5 -15l151 -312h-81l-143 301q-22 1 -56.5 1.5t-70 1t-61.5 1.5v-305h-80zM157 366h198q34 0 62 11.5t45 44.5t17 97q0 62 -17.5 93t-45.5 41.5t-61 10.5h-198v-298z
M290 931q36 0 65.5 -13.5t47.5 -44.5t18 -83h-39q0 57 -27.5 80.5t-64.5 22.5q-41 0 -67 -22.5t-26 -80.5h-39q0 53 18 84t48 44t66 13z" />
    <glyph glyph-name="uni1E5E" unicode="&#x1e5e;" horiz-adv-x="608" 
d="M77 0v736h290q35 0 69.5 -8.5t62 -31t43.5 -65.5t16 -112q0 -60 -13 -98.5t-34 -60.5t-45.5 -33t-47.5 -15l151 -312h-81l-143 301q-22 1 -56.5 1.5t-70 1t-61.5 1.5v-305h-80zM157 366h198q34 0 62 11.5t45 44.5t17 97q0 62 -17.5 93t-45.5 41.5t-61 10.5h-198v-298z
M159 -188v47h265v-47h-265z" />
    <glyph glyph-name="S" unicode="S" horiz-adv-x="578" 
d="M286 -6q-30 0 -72.5 2.5t-83.5 6.5t-67 9v61q37 -3 98.5 -5.5t121.5 -2.5q45 0 81 9t57.5 33t21.5 69v50q0 50 -26.5 77t-83.5 27h-79q-91 0 -142.5 40t-51.5 138v42q0 104 56 148t158 44q31 0 71 -3.5t78 -8t63 -9.5v-60q-45 3 -100 6t-104 3q-68 0 -107 -25t-39 -98
v-34q0 -61 32 -84t89 -23h85q91 0 134 -48.5t43 -122.5v-57q0 -74 -31.5 -114t-84.5 -55t-117 -15z" />
    <glyph glyph-name="Sacute" unicode="&#x15a;" horiz-adv-x="578" 
d="M286 -6q-30 0 -72.5 2.5t-83.5 6.5t-67 9v61q37 -3 98.5 -5.5t121.5 -2.5q45 0 81 9t57.5 33t21.5 69v50q0 50 -26.5 77t-83.5 27h-79q-91 0 -142.5 40t-51.5 138v42q0 104 56 148t158 44q31 0 71 -3.5t78 -8t63 -9.5v-60q-45 3 -100 6t-104 3q-68 0 -107 -25t-39 -98
v-34q0 -61 32 -84t89 -23h85q91 0 134 -48.5t43 -122.5v-57q0 -74 -31.5 -114t-84.5 -55t-117 -15zM264 791l104 136h67l-125 -136h-46z" />
    <glyph glyph-name="uni1E64" unicode="&#x1e64;" horiz-adv-x="578" 
d="M286 -6q-30 0 -72.5 2.5t-83.5 6.5t-67 9v61q37 -3 98.5 -5.5t121.5 -2.5q45 0 81 9t57.5 33t21.5 69v50q0 50 -26.5 77t-83.5 27h-79q-91 0 -142.5 40t-51.5 138v42q0 104 56 148t158 44q31 0 71 -3.5t78 -8t63 -9.5v-60q-45 3 -100 6t-104 3q-68 0 -107 -25t-39 -98
v-34q0 -61 32 -84t89 -23h85q91 0 134 -48.5t43 -122.5v-57q0 -74 -31.5 -114t-84.5 -55t-117 -15zM231 791l104 136h67l-125 -136h-46zM301 956q-16 0 -16 16v78q0 16 16 16h37q15 0 15 -16v-78q0 -16 -15 -16h-37z" />
    <glyph glyph-name="Scaron" unicode="&#x160;" horiz-adv-x="578" 
d="M286 -6q-30 0 -72.5 2.5t-83.5 6.5t-67 9v61q37 -3 98.5 -5.5t121.5 -2.5q45 0 81 9t57.5 33t21.5 69v50q0 50 -26.5 77t-83.5 27h-79q-91 0 -142.5 40t-51.5 138v42q0 104 56 148t158 44q31 0 71 -3.5t78 -8t63 -9.5v-60q-45 3 -100 6t-104 3q-68 0 -107 -25t-39 -98
v-34q0 -61 32 -84t89 -23h85q91 0 134 -48.5t43 -122.5v-57q0 -74 -31.5 -114t-84.5 -55t-117 -15zM254 791l-111 135h48l92 -97l100 97h48l-121 -135h-56z" />
    <glyph glyph-name="uni1E66" unicode="&#x1e66;" horiz-adv-x="578" 
d="M286 -6q-30 0 -72.5 2.5t-83.5 6.5t-67 9v61q37 -3 98.5 -5.5t121.5 -2.5q45 0 81 9t57.5 33t21.5 69v50q0 50 -26.5 77t-83.5 27h-79q-91 0 -142.5 40t-51.5 138v42q0 104 56 148t158 44q31 0 71 -3.5t78 -8t63 -9.5v-60q-45 3 -100 6t-104 3q-68 0 -107 -25t-39 -98
v-34q0 -61 32 -84t89 -23h85q91 0 134 -48.5t43 -122.5v-57q0 -74 -31.5 -114t-84.5 -55t-117 -15zM254 791l-111 135h48l92 -97l100 97h48l-121 -135h-56zM264 960q-16 0 -16 16v78q0 16 16 16h37q15 0 15 -16v-78q0 -16 -15 -16h-37z" />
    <glyph glyph-name="Scedilla" unicode="&#x15e;" horiz-adv-x="578" 
d="M286 -6q-30 0 -72.5 2.5t-83.5 6.5t-67 9v61q37 -3 98.5 -5.5t121.5 -2.5q45 0 81 9t57.5 33t21.5 69v50q0 50 -26.5 77t-83.5 27h-79q-91 0 -142.5 40t-51.5 138v42q0 104 56 148t158 44q31 0 71 -3.5t78 -8t63 -9.5v-60q-45 3 -100 6t-104 3q-68 0 -107 -25t-39 -98
v-34q0 -61 32 -84t89 -23h85q91 0 134 -48.5t43 -122.5v-57q0 -74 -31.5 -114t-84.5 -55t-117 -15zM225 -66l52 79h37l-45 -68q73 -4 73 -63q0 -34 -25 -52.5t-71 -18.5h-33v32l22 2q56 5 56 45q0 17 -13 29.5t-53 14.5z" />
    <glyph glyph-name="Scircumflex" unicode="&#x15c;" horiz-adv-x="578" 
d="M286 -6q-30 0 -72.5 2.5t-83.5 6.5t-67 9v61q37 -3 98.5 -5.5t121.5 -2.5q45 0 81 9t57.5 33t21.5 69v50q0 50 -26.5 77t-83.5 27h-79q-91 0 -142.5 40t-51.5 138v42q0 104 56 148t158 44q31 0 71 -3.5t78 -8t63 -9.5v-60q-45 3 -100 6t-104 3q-68 0 -107 -25t-39 -98
v-34q0 -61 32 -84t89 -23h85q91 0 134 -48.5t43 -122.5v-57q0 -74 -31.5 -114t-84.5 -55t-117 -15zM136 791l122 135h56l110 -135h-48l-91 97l-100 -97h-49z" />
    <glyph glyph-name="uni0218" unicode="&#x218;" horiz-adv-x="578" 
d="M286 -6q-30 0 -72.5 2.5t-83.5 6.5t-67 9v61q37 -3 98.5 -5.5t121.5 -2.5q45 0 81 9t57.5 33t21.5 69v50q0 50 -26.5 77t-83.5 27h-79q-91 0 -142.5 40t-51.5 138v42q0 104 56 148t158 44q31 0 71 -3.5t78 -8t63 -9.5v-60q-45 3 -100 6t-104 3q-68 0 -107 -25t-39 -98
v-34q0 -61 32 -84t89 -23h85q91 0 134 -48.5t43 -122.5v-57q0 -74 -31.5 -114t-84.5 -55t-117 -15zM201 -202v32l30 5q23 4 38 11.5t22.5 28t7.5 62.5h49q0 -75 -21.5 -107t-87.5 -32h-38z" />
    <glyph glyph-name="uni1E60" unicode="&#x1e60;" horiz-adv-x="578" 
d="M286 -6q-30 0 -72.5 2.5t-83.5 6.5t-67 9v61q37 -3 98.5 -5.5t121.5 -2.5q45 0 81 9t57.5 33t21.5 69v50q0 50 -26.5 77t-83.5 27h-79q-91 0 -142.5 40t-51.5 138v42q0 104 56 148t158 44q31 0 71 -3.5t78 -8t63 -9.5v-60q-45 3 -100 6t-104 3q-68 0 -107 -25t-39 -98
v-34q0 -61 32 -84t89 -23h85q91 0 134 -48.5t43 -122.5v-57q0 -74 -31.5 -114t-84.5 -55t-117 -15zM264 820q-16 0 -16 16v78q0 16 16 16h37q15 0 15 -16v-78q0 -16 -15 -16h-37z" />
    <glyph glyph-name="uni1E62" unicode="&#x1e62;" horiz-adv-x="578" 
d="M286 -6q-30 0 -72.5 2.5t-83.5 6.5t-67 9v61q37 -3 98.5 -5.5t121.5 -2.5q45 0 81 9t57.5 33t21.5 69v50q0 50 -26.5 77t-83.5 27h-79q-91 0 -142.5 40t-51.5 138v42q0 104 56 148t158 44q31 0 71 -3.5t78 -8t63 -9.5v-60q-45 3 -100 6t-104 3q-68 0 -107 -25t-39 -98
v-34q0 -61 32 -84t89 -23h85q91 0 134 -48.5t43 -122.5v-57q0 -74 -31.5 -114t-84.5 -55t-117 -15zM264 -210q-16 0 -16 16v78q0 16 16 16h37q15 0 15 -16v-78q0 -16 -15 -16h-37z" />
    <glyph glyph-name="uni1E68" unicode="&#x1e68;" horiz-adv-x="578" 
d="M286 -6q-30 0 -72.5 2.5t-83.5 6.5t-67 9v61q37 -3 98.5 -5.5t121.5 -2.5q45 0 81 9t57.5 33t21.5 69v50q0 50 -26.5 77t-83.5 27h-79q-91 0 -142.5 40t-51.5 138v42q0 104 56 148t158 44q31 0 71 -3.5t78 -8t63 -9.5v-60q-45 3 -100 6t-104 3q-68 0 -107 -25t-39 -98
v-34q0 -61 32 -84t89 -23h85q91 0 134 -48.5t43 -122.5v-57q0 -74 -31.5 -114t-84.5 -55t-117 -15zM264 -210q-16 0 -16 16v78q0 16 16 16h37q15 0 15 -16v-78q0 -16 -15 -16h-37zM264 820q-16 0 -16 16v78q0 16 16 16h37q15 0 15 -16v-78q0 -16 -15 -16h-37z" />
    <glyph glyph-name="uni1E9E" unicode="&#x1e9e;" horiz-adv-x="671" 
d="M77 0v562q0 64 25 102.5t65.5 55t87.5 16.5q90 -1 166.5 -3t153.5 -4l-8 -17l8 5l-152 -272l-54 -50h65q88 0 133 -43.5t45 -122.5v-57q0 -72 -30.5 -110.5t-81.5 -53t-112 -14.5q-19 0 -47 2t-55 5.5t-44 6.5v61q24 -1 61 -2t75 -1q43 0 78 8.5t55.5 32.5t20.5 69v49
q0 51 -27 77.5t-89 26.5h-120v66h62l90 222l44 47h-235q-47 0 -73.5 -25t-26.5 -76v-563h-80z" />
    <glyph glyph-name="uni018F" unicode="&#x18f;" horiz-adv-x="611" 
d="M301 -6q-81 0 -134.5 33t-79.5 107.5t-26 198.5v57h411q-1 86 -12.5 141t-37 85.5t-68.5 42.5t-107 12q-60 0 -98 -5t-60 -8v60q32 9 77 16.5t105 7.5q71 0 123.5 -14.5t87.5 -53.5t52.5 -111t17.5 -188q0 -115 -18 -189.5t-51 -116.5t-79 -58.5t-103 -16.5zM300 65
q52 0 89.5 21.5t58 77.5t22.5 161h-330q1 -95 15.5 -152t49 -82.5t95.5 -25.5z" />
    <glyph glyph-name="T" unicode="T" horiz-adv-x="566" 
d="M244 0v664h-228v72h534v-72h-227v-664h-79z" />
    <glyph glyph-name="Tbar" unicode="&#x166;" horiz-adv-x="566" 
d="M244 0v365h-179v46h179v253h-228v72h534v-72h-227v-253h178v-46h-178v-365h-79z" />
    <glyph glyph-name="Tcaron" unicode="&#x164;" horiz-adv-x="566" 
d="M244 0v664h-228v72h534v-72h-227v-664h-79zM254 791l-111 135h48l92 -97l100 97h48l-121 -135h-56z" />
    <glyph glyph-name="uni0162" unicode="&#x162;" horiz-adv-x="566" 
d="M244 0v664h-228v72h534v-72h-227v-664h-79zM225 -66l52 79h37l-45 -68q73 -4 73 -63q0 -34 -25 -52.5t-71 -18.5h-33v32l22 2q56 5 56 45q0 17 -13 29.5t-53 14.5z" />
    <glyph glyph-name="uni021A" unicode="&#x21a;" horiz-adv-x="566" 
d="M244 0v664h-228v72h534v-72h-227v-664h-79zM166 -202v32l30 5q23 4 38 11.5t22.5 28t7.5 62.5h49q0 -75 -21.5 -107t-87.5 -32h-38z" />
    <glyph glyph-name="uni1E6A" unicode="&#x1e6a;" horiz-adv-x="566" 
d="M244 0v664h-228v72h534v-72h-227v-664h-79zM264 820q-16 0 -16 16v78q0 16 16 16h37q15 0 15 -16v-78q0 -16 -15 -16h-37z" />
    <glyph glyph-name="uni1E6C" unicode="&#x1e6c;" horiz-adv-x="566" 
d="M244 0v664h-228v72h534v-72h-227v-664h-79zM264 -210q-16 0 -16 16v78q0 16 16 16h37q15 0 15 -16v-78q0 -16 -15 -16h-37z" />
    <glyph glyph-name="uni1E6E" unicode="&#x1e6e;" horiz-adv-x="566" 
d="M244 0v664h-228v72h534v-72h-227v-664h-79zM147 -188v47h265v-47h-265z" />
    <glyph glyph-name="U" unicode="U" horiz-adv-x="676" 
d="M338 -6q-83 0 -143.5 20.5t-94 71.5t-33.5 142v508h80v-508q0 -63 22.5 -98.5t65.5 -49.5t103 -14t103 14t65.5 49.5t22.5 98.5v508h80v-508q0 -91 -33.5 -142t-94 -71.5t-143.5 -20.5z" />
    <glyph glyph-name="Uacute" unicode="&#xda;" horiz-adv-x="676" 
d="M338 -6q-83 0 -143.5 20.5t-94 71.5t-33.5 142v508h80v-508q0 -63 22.5 -98.5t65.5 -49.5t103 -14t103 14t65.5 49.5t22.5 98.5v508h80v-508q0 -91 -33.5 -142t-94 -71.5t-143.5 -20.5zM315 791l104 136h67l-125 -136h-46z" />
    <glyph glyph-name="Ubreve" unicode="&#x16c;" horiz-adv-x="676" 
d="M338 -6q-83 0 -143.5 20.5t-94 71.5t-33.5 142v508h80v-508q0 -63 22.5 -98.5t65.5 -49.5t103 -14t103 14t65.5 49.5t22.5 98.5v508h80v-508q0 -91 -33.5 -142t-94 -71.5t-143.5 -20.5zM327 789q-36 0 -65.5 13.5t-47.5 44.5t-18 83h39q0 -57 27.5 -80.5t64.5 -22.5
q41 0 67 22.5t26 80.5h39q0 -53 -18 -84t-48 -44t-66 -13z" />
    <glyph glyph-name="Ucircumflex" unicode="&#xdb;" horiz-adv-x="676" 
d="M338 -6q-83 0 -143.5 20.5t-94 71.5t-33.5 142v508h80v-508q0 -63 22.5 -98.5t65.5 -49.5t103 -14t103 14t65.5 49.5t22.5 98.5v508h80v-508q0 -91 -33.5 -142t-94 -71.5t-143.5 -20.5zM187 791l122 135h56l110 -135h-48l-91 97l-100 -97h-49z" />
    <glyph glyph-name="uni0214" unicode="&#x214;" horiz-adv-x="676" 
d="M338 -6q-83 0 -143.5 20.5t-94 71.5t-33.5 142v508h80v-508q0 -63 22.5 -98.5t65.5 -49.5t103 -14t103 14t65.5 49.5t22.5 98.5v508h80v-508q0 -91 -33.5 -142t-94 -71.5t-143.5 -20.5zM400 791l-125 136h68l104 -136h-47zM254 791l-125 136h68l104 -136h-47z" />
    <glyph glyph-name="Udieresis" unicode="&#xdc;" horiz-adv-x="676" 
d="M338 -6q-83 0 -143.5 20.5t-94 71.5t-33.5 142v508h80v-508q0 -63 22.5 -98.5t65.5 -49.5t103 -14t103 14t65.5 49.5t22.5 98.5v508h80v-508q0 -91 -33.5 -142t-94 -71.5t-143.5 -20.5zM426 813q-16 0 -16 16v78q0 16 16 16h37q15 0 15 -16v-78q0 -16 -15 -16h-37z
M190 813q-15 0 -15 16v78q0 16 15 16h37q16 0 16 -16v-78q0 -16 -16 -16h-37z" />
    <glyph glyph-name="uni1EE4" unicode="&#x1ee4;" horiz-adv-x="676" 
d="M338 -6q-83 0 -143.5 20.5t-94 71.5t-33.5 142v508h80v-508q0 -63 22.5 -98.5t65.5 -49.5t103 -14t103 14t65.5 49.5t22.5 98.5v508h80v-508q0 -91 -33.5 -142t-94 -71.5t-143.5 -20.5zM315 -210q-16 0 -16 16v78q0 16 16 16h37q15 0 15 -16v-78q0 -16 -15 -16h-37z" />
    <glyph glyph-name="Ugrave" unicode="&#xd9;" horiz-adv-x="676" 
d="M338 -6q-83 0 -143.5 20.5t-94 71.5t-33.5 142v508h80v-508q0 -63 22.5 -98.5t65.5 -49.5t103 -14t103 14t65.5 49.5t22.5 98.5v508h80v-508q0 -91 -33.5 -142t-94 -71.5t-143.5 -20.5zM317 791l-125 136h67l104 -136h-46z" />
    <glyph glyph-name="uni1EE6" unicode="&#x1ee6;" horiz-adv-x="676" 
d="M338 -6q-83 0 -143.5 20.5t-94 71.5t-33.5 142v508h80v-508q0 -63 22.5 -98.5t65.5 -49.5t103 -14t103 14t65.5 49.5t22.5 98.5v508h80v-508q0 -91 -33.5 -142t-94 -71.5t-143.5 -20.5zM312 770v37q32 9 44 25.5t12 33.5q0 20 -10.5 32t-37.5 12q-17 0 -35 -6v34
q19 6 45 6q42 0 62 -21t20 -56q0 -31 -24 -56.5t-76 -40.5z" />
    <glyph glyph-name="Uhorn" unicode="&#x1af;" horiz-adv-x="676" 
d="M338 -6q-83 0 -143.5 20.5t-94 71.5t-33.5 142v508h80v-508q0 -63 22.5 -98.5t65.5 -49.5t103 -14t103 14t65.5 49.5t22.5 98.5v508h40q35 0 57 24.5t22 88.5h57q0 -75 -28 -111.5t-68 -43.5v-466q0 -91 -33.5 -142t-94 -71.5t-143.5 -20.5z" />
    <glyph glyph-name="uni1EE8" unicode="&#x1ee8;" horiz-adv-x="676" 
d="M338 -6q-83 0 -143.5 20.5t-94 71.5t-33.5 142v508h80v-508q0 -63 22.5 -98.5t65.5 -49.5t103 -14t103 14t65.5 49.5t22.5 98.5v508h40q35 0 57 24.5t22 88.5h57q0 -75 -28 -111.5t-68 -43.5v-466q0 -91 -33.5 -142t-94 -71.5t-143.5 -20.5zM305 791l104 136h67
l-125 -136h-46z" />
    <glyph glyph-name="uni1EF0" unicode="&#x1ef0;" horiz-adv-x="676" 
d="M338 -6q-83 0 -143.5 20.5t-94 71.5t-33.5 142v508h80v-508q0 -63 22.5 -98.5t65.5 -49.5t103 -14t103 14t65.5 49.5t22.5 98.5v508h40q35 0 57 24.5t22 88.5h57q0 -75 -28 -111.5t-68 -43.5v-466q0 -91 -33.5 -142t-94 -71.5t-143.5 -20.5zM307 -210q-16 0 -16 16v78
q0 16 16 16h37q15 0 15 -16v-78q0 -16 -15 -16h-37z" />
    <glyph glyph-name="uni1EEA" unicode="&#x1eea;" horiz-adv-x="676" 
d="M338 -6q-83 0 -143.5 20.5t-94 71.5t-33.5 142v508h80v-508q0 -63 22.5 -98.5t65.5 -49.5t103 -14t103 14t65.5 49.5t22.5 98.5v508h40q35 0 57 24.5t22 88.5h57q0 -75 -28 -111.5t-68 -43.5v-466q0 -91 -33.5 -142t-94 -71.5t-143.5 -20.5zM321 791l-125 136h67
l104 -136h-46z" />
    <glyph glyph-name="uni1EEC" unicode="&#x1eec;" horiz-adv-x="676" 
d="M338 -6q-83 0 -143.5 20.5t-94 71.5t-33.5 142v508h80v-508q0 -63 22.5 -98.5t65.5 -49.5t103 -14t103 14t65.5 49.5t22.5 98.5v508h40q35 0 57 24.5t22 88.5h57q0 -75 -28 -111.5t-68 -43.5v-466q0 -91 -33.5 -142t-94 -71.5t-143.5 -20.5zM317 770v37q32 9 44 25.5
t12 33.5q0 20 -10.5 32t-37.5 12q-17 0 -35 -6v34q19 6 45 6q42 0 62 -21t20 -56q0 -31 -24 -56.5t-76 -40.5z" />
    <glyph glyph-name="uni1EEE" unicode="&#x1eee;" horiz-adv-x="676" 
d="M338 -6q-83 0 -143.5 20.5t-94 71.5t-33.5 142v508h80v-508q0 -63 22.5 -98.5t65.5 -49.5t103 -14t103 14t65.5 49.5t22.5 98.5v508h40q35 0 57 24.5t22 88.5h57q0 -75 -28 -111.5t-68 -43.5v-466q0 -91 -33.5 -142t-94 -71.5t-143.5 -20.5zM169 807q2 60 31.5 83.5
t64.5 23.5q32 0 57.5 -15.5t49 -30.5t48.5 -15q26 0 43 16t18 47h40q-1 -51 -26 -80t-70 -29q-31 0 -56.5 15.5t-50 31t-49.5 15.5q-24 0 -41.5 -15t-17.5 -47h-41z" />
    <glyph glyph-name="Uhungarumlaut" unicode="&#x170;" horiz-adv-x="676" 
d="M338 -6q-83 0 -143.5 20.5t-94 71.5t-33.5 142v508h80v-508q0 -63 22.5 -98.5t65.5 -49.5t103 -14t103 14t65.5 49.5t22.5 98.5v508h80v-508q0 -91 -33.5 -142t-94 -71.5t-143.5 -20.5zM365 791l100 136h65l-119 -136h-46zM215 791l100 136h65l-119 -136h-46z" />
    <glyph glyph-name="uni0216" unicode="&#x216;" horiz-adv-x="676" 
d="M338 -6q-83 0 -143.5 20.5t-94 71.5t-33.5 142v508h80v-508q0 -63 22.5 -98.5t65.5 -49.5t103 -14t103 14t65.5 49.5t22.5 98.5v508h80v-508q0 -91 -33.5 -142t-94 -71.5t-143.5 -20.5zM331 931q36 0 65.5 -13.5t47.5 -44.5t18 -83h-39q0 57 -27.5 80.5t-64.5 22.5
q-41 0 -67 -22.5t-26 -80.5h-39q0 53 18 84t48 44t66 13z" />
    <glyph glyph-name="Umacron" unicode="&#x16a;" horiz-adv-x="676" 
d="M338 -6q-83 0 -143.5 20.5t-94 71.5t-33.5 142v508h80v-508q0 -63 22.5 -98.5t65.5 -49.5t103 -14t103 14t65.5 49.5t22.5 98.5v508h80v-508q0 -91 -33.5 -142t-94 -71.5t-143.5 -20.5zM195 832v47h265v-47h-265z" />
    <glyph glyph-name="uni1E7A" unicode="&#x1e7a;" horiz-adv-x="676" 
d="M338 -6q-83 0 -143.5 20.5t-94 71.5t-33.5 142v508h80v-508q0 -63 22.5 -98.5t65.5 -49.5t103 -14t103 14t65.5 49.5t22.5 98.5v508h80v-508q0 -91 -33.5 -142t-94 -71.5t-143.5 -20.5zM195 832v47h265v-47h-265zM426 943q-16 0 -16 16v78q0 16 16 16h37q15 0 15 -16v-78
q0 -16 -15 -16h-37zM190 943q-15 0 -15 16v78q0 16 15 16h37q16 0 16 -16v-78q0 -16 -16 -16h-37z" />
    <glyph glyph-name="Uogonek" unicode="&#x172;" horiz-adv-x="676" 
d="M338 -6q-83 0 -143.5 20.5t-94 71.5t-33.5 142v508h80v-508q0 -63 22.5 -98.5t65.5 -49.5t103 -14t103 14t65.5 49.5t22.5 98.5v508h80v-508q0 -91 -33.5 -142t-94 -71.5t-143.5 -20.5zM422 -187q-51 0 -78 26t-27 63q0 29 18 54.5t57 43.5h30q-63 -34 -63 -81
q0 -30 21.5 -47.5t61.5 -17.5h6v-38q-10 -3 -26 -3z" />
    <glyph glyph-name="Uring" unicode="&#x16e;" horiz-adv-x="676" 
d="M338 -6q-83 0 -143.5 20.5t-94 71.5t-33.5 142v508h80v-508q0 -63 22.5 -98.5t65.5 -49.5t103 -14t103 14t65.5 49.5t22.5 98.5v508h80v-508q0 -91 -33.5 -142t-94 -71.5t-143.5 -20.5zM335 764q-54 0 -83 23t-29 83q0 61 29 84.5t83 23.5t82 -23.5t28 -84.5
q0 -60 -28 -83t-82 -23zM335 797q36 0 53 15t17 58t-17 59t-53 16q-37 0 -55 -16t-18 -59t18 -58t55 -15z" />
    <glyph glyph-name="Utilde" unicode="&#x168;" horiz-adv-x="676" 
d="M338 -6q-83 0 -143.5 20.5t-94 71.5t-33.5 142v508h80v-508q0 -63 22.5 -98.5t65.5 -49.5t103 -14t103 14t65.5 49.5t22.5 98.5v508h80v-508q0 -91 -33.5 -142t-94 -71.5t-143.5 -20.5zM162 807q2 60 31.5 83.5t64.5 23.5q32 0 57.5 -15.5t49 -30.5t48.5 -15q26 0 43 16
t18 47h40q-1 -51 -26 -80t-70 -29q-31 0 -56.5 15.5t-50 31t-49.5 15.5q-24 0 -41.5 -15t-17.5 -47h-41z" />
    <glyph glyph-name="uni1E78" unicode="&#x1e78;" horiz-adv-x="676" 
d="M338 -6q-83 0 -143.5 20.5t-94 71.5t-33.5 142v508h80v-508q0 -63 22.5 -98.5t65.5 -49.5t103 -14t103 14t65.5 49.5t22.5 98.5v508h80v-508q0 -91 -33.5 -142t-94 -71.5t-143.5 -20.5zM162 807q2 60 31.5 83.5t64.5 23.5q32 0 57.5 -15.5t49 -30.5t48.5 -15q26 0 43 16
t18 47h40q-1 -51 -26 -80t-70 -29q-31 0 -56.5 15.5t-50 31t-49.5 15.5q-24 0 -41.5 -15t-17.5 -47h-41zM315 941l104 136h67l-125 -136h-46z" />
    <glyph glyph-name="V" unicode="V" horiz-adv-x="674" 
d="M286 0l-252 736h82l222 -653l221 653h81l-252 -736h-102z" />
    <glyph glyph-name="W" unicode="W" horiz-adv-x="991" 
d="M223 0l-189 736h82l158 -627l182 627h80l181 -627l158 627h82l-189 -736h-86l-186 625l-187 -625h-86z" />
    <glyph glyph-name="Wacute" unicode="&#x1e82;" horiz-adv-x="991" 
d="M223 0l-189 736h82l158 -627l182 627h80l181 -627l158 627h82l-189 -736h-86l-186 625l-187 -625h-86zM487 791l104 136h67l-125 -136h-46z" />
    <glyph glyph-name="Wcircumflex" unicode="&#x174;" horiz-adv-x="991" 
d="M223 0l-189 736h82l158 -627l182 627h80l181 -627l158 627h82l-189 -736h-86l-186 625l-187 -625h-86zM359 791l122 135h56l110 -135h-48l-91 97l-100 -97h-49z" />
    <glyph glyph-name="Wdieresis" unicode="&#x1e84;" horiz-adv-x="991" 
d="M223 0l-189 736h82l158 -627l182 627h80l181 -627l158 627h82l-189 -736h-86l-186 625l-187 -625h-86zM598 813q-16 0 -16 16v78q0 16 16 16h37q15 0 15 -16v-78q0 -16 -15 -16h-37zM362 813q-15 0 -15 16v78q0 16 15 16h37q16 0 16 -16v-78q0 -16 -16 -16h-37z" />
    <glyph glyph-name="Wgrave" unicode="&#x1e80;" horiz-adv-x="991" 
d="M223 0l-189 736h82l158 -627l182 627h80l181 -627l158 627h82l-189 -736h-86l-186 625l-187 -625h-86zM489 791l-125 136h67l104 -136h-46z" />
    <glyph glyph-name="X" unicode="X" horiz-adv-x="623" 
d="M38 0l229 368l-232 368h87l195 -308l184 308h87l-230 -374l228 -362h-87l-190 302l-184 -302h-87z" />
    <glyph glyph-name="Y" unicode="Y" horiz-adv-x="618" 
d="M269 0v244l-234 492h83l192 -412l192 412h80l-233 -492v-244h-80z" />
    <glyph glyph-name="Yacute" unicode="&#xdd;" horiz-adv-x="618" 
d="M269 0v244l-234 492h83l192 -412l192 412h80l-233 -492v-244h-80zM291 791l104 136h67l-125 -136h-46z" />
    <glyph glyph-name="Ycircumflex" unicode="&#x176;" horiz-adv-x="618" 
d="M269 0v244l-234 492h83l192 -412l192 412h80l-233 -492v-244h-80zM163 791l122 135h56l110 -135h-48l-91 97l-100 -97h-49z" />
    <glyph glyph-name="Ydieresis" unicode="&#x178;" horiz-adv-x="618" 
d="M269 0v244l-234 492h83l192 -412l192 412h80l-233 -492v-244h-80zM402 813q-16 0 -16 16v78q0 16 16 16h37q15 0 15 -16v-78q0 -16 -15 -16h-37zM166 813q-15 0 -15 16v78q0 16 15 16h37q16 0 16 -16v-78q0 -16 -16 -16h-37z" />
    <glyph glyph-name="uni1E8E" unicode="&#x1e8e;" horiz-adv-x="618" 
d="M269 0v244l-234 492h83l192 -412l192 412h80l-233 -492v-244h-80zM291 -210q-16 0 -16 16v78q0 16 16 16h37q15 0 15 -16v-78q0 -16 -15 -16h-37z" />
    <glyph glyph-name="uni1EF4" unicode="&#x1ef4;" horiz-adv-x="618" 
d="M269 0v244l-234 492h83l192 -412l192 412h80l-233 -492v-244h-80zM291 -210q-16 0 -16 16v78q0 16 16 16h37q15 0 15 -16v-78q0 -16 -15 -16h-37z" />
    <glyph glyph-name="Ygrave" unicode="&#x1ef2;" horiz-adv-x="618" 
d="M269 0v244l-234 492h83l192 -412l192 412h80l-233 -492v-244h-80zM293 791l-125 136h67l104 -136h-46z" />
    <glyph glyph-name="uni1EF6" unicode="&#x1ef6;" horiz-adv-x="618" 
d="M269 0v244l-234 492h83l192 -412l192 412h80l-233 -492v-244h-80zM288 770v37q32 9 44 25.5t12 33.5q0 20 -10.5 32t-37.5 12q-17 0 -35 -6v34q19 6 45 6q42 0 62 -21t20 -56q0 -31 -24 -56.5t-76 -40.5z" />
    <glyph glyph-name="uni0232" unicode="&#x232;" horiz-adv-x="618" 
d="M269 0v244l-234 492h83l192 -412l192 412h80l-233 -492v-244h-80zM171 832v47h265v-47h-265z" />
    <glyph glyph-name="uni1EF8" unicode="&#x1ef8;" horiz-adv-x="618" 
d="M269 0v244l-234 492h83l192 -412l192 412h80l-233 -492v-244h-80zM138 807q2 60 31.5 83.5t64.5 23.5q32 0 57.5 -15.5t49 -30.5t48.5 -15q26 0 43 16t18 47h40q-1 -51 -26 -80t-70 -29q-31 0 -56.5 15.5t-50 31t-49.5 15.5q-24 0 -41.5 -15t-17.5 -47h-41z" />
    <glyph glyph-name="Z" unicode="Z" horiz-adv-x="560" 
d="M43 0v65l383 599h-383v72h479v-65l-383 -600h383v-71h-479z" />
    <glyph glyph-name="Zacute" unicode="&#x179;" horiz-adv-x="560" 
d="M43 0v65l383 599h-383v72h479v-65l-383 -600h383v-71h-479zM259 791l104 136h67l-125 -136h-46z" />
    <glyph glyph-name="Zcaron" unicode="&#x17d;" horiz-adv-x="560" 
d="M43 0v65l383 599h-383v72h479v-65l-383 -600h383v-71h-479zM249 791l-111 135h48l92 -97l100 97h48l-121 -135h-56z" />
    <glyph glyph-name="Zdotaccent" unicode="&#x17b;" horiz-adv-x="560" 
d="M43 0v65l383 599h-383v72h479v-65l-383 -600h383v-71h-479zM259 820q-16 0 -16 16v78q0 16 16 16h37q15 0 15 -16v-78q0 -16 -15 -16h-37z" />
    <glyph glyph-name="uni1E92" unicode="&#x1e92;" horiz-adv-x="560" 
d="M43 0v65l383 599h-383v72h479v-65l-383 -600h383v-71h-479zM259 -210q-16 0 -16 16v78q0 16 16 16h37q15 0 15 -16v-78q0 -16 -15 -16h-37z" />
    <glyph glyph-name="M.salt" horiz-adv-x="841" 
d="M102 632q4 61 35 87.5t70 26.5q38 0 63.5 -21t35.5 -73l93 -354q7 -28 28 -28q23 0 28 28l84 355q9 52 34.5 72.5t60.5 20.5q38 0 65 -26t32 -86l47 -634h-77l-46 624q-2 22 -10 33t-18 11q-19 0 -29 -36l-88 -372q-7 -39 -30.5 -56.5t-52.5 -17.5t-52 17t-32 57l-95 372
q-10 36 -35 36q-13 0 -23.5 -12t-12.5 -33l-43 -623h-77z" />
    <glyph glyph-name="uni1E40.salt" horiz-adv-x="841" 
d="M102 632q4 61 35 87.5t70 26.5q38 0 63.5 -21t35.5 -73l93 -354q7 -28 28 -28q23 0 28 28l84 355q9 52 34.5 72.5t60.5 20.5q38 0 65 -26t32 -86l47 -634h-77l-46 624q-2 22 -10 33t-18 11q-19 0 -29 -36l-88 -372q-7 -39 -30.5 -56.5t-52.5 -17.5t-52 17t-32 57l-95 372
q-10 36 -35 36q-13 0 -23.5 -12t-12.5 -33l-43 -623h-77zM395 820q-16 0 -16 16v78q0 16 16 16h37q15 0 15 -16v-78q0 -16 -15 -16h-37z" />
    <glyph glyph-name="uni1E42.salt" horiz-adv-x="841" 
d="M102 632q4 61 35 87.5t70 26.5q38 0 63.5 -21t35.5 -73l93 -354q7 -28 28 -28q23 0 28 28l84 355q9 52 34.5 72.5t60.5 20.5q38 0 65 -26t32 -86l47 -634h-77l-46 624q-2 22 -10 33t-18 11q-19 0 -29 -36l-88 -372q-7 -39 -30.5 -56.5t-52.5 -17.5t-52 17t-32 57l-95 372
q-10 36 -35 36q-13 0 -23.5 -12t-12.5 -33l-43 -623h-77zM395 -210q-16 0 -16 16v78q0 16 16 16h37q15 0 15 -16v-78q0 -16 -15 -16h-37z" />
    <glyph glyph-name="N.salt" horiz-adv-x="735" 
d="M91 622q0 69 33 94.5t82 25.5t74.5 -25t40.5 -69l188 -543q11 -33 43 -33q16 0 28 9t12 37v618h79v-626q0 -66 -33 -91t-82 -25q-47 0 -73.5 22.5t-41.5 67.5l-190 547q-11 33 -39 33q-18 0 -30 -10t-12 -40v-614h-79v622z" />
    <glyph glyph-name="Nacute.salt" horiz-adv-x="735" 
d="M91 622q0 69 33 94.5t82 25.5t74.5 -25t40.5 -69l188 -543q11 -33 43 -33q16 0 28 9t12 37v618h79v-626q0 -66 -33 -91t-82 -25q-47 0 -73.5 22.5t-41.5 67.5l-190 547q-11 33 -39 33q-18 0 -30 -10t-12 -40v-614h-79v622zM369 791l104 136h67l-125 -136h-46z" />
    <glyph glyph-name="Ncaron.salt" horiz-adv-x="735" 
d="M91 622q0 69 33 94.5t82 25.5t74.5 -25t40.5 -69l188 -543q11 -33 43 -33q16 0 28 9t12 37v618h79v-626q0 -66 -33 -91t-82 -25q-47 0 -73.5 22.5t-41.5 67.5l-190 547q-11 33 -39 33q-18 0 -30 -10t-12 -40v-614h-79v622zM359 791l-111 135h48l92 -97l100 97h48
l-121 -135h-56z" />
    <glyph glyph-name="uni0145.salt" horiz-adv-x="735" 
d="M91 622q0 69 33 94.5t82 25.5t74.5 -25t40.5 -69l188 -543q11 -33 43 -33q16 0 28 9t12 37v618h79v-626q0 -66 -33 -91t-82 -25q-47 0 -73.5 22.5t-41.5 67.5l-190 547q-11 33 -39 33q-18 0 -30 -10t-12 -40v-614h-79v622zM299 -202v32l30 5q23 4 38 11.5t22.5 28
t7.5 62.5h49q0 -75 -21.5 -107t-87.5 -32h-38z" />
    <glyph glyph-name="uni1E44.salt" horiz-adv-x="735" 
d="M91 622q0 69 33 94.5t82 25.5t74.5 -25t40.5 -69l188 -543q11 -33 43 -33q16 0 28 9t12 37v618h79v-626q0 -66 -33 -91t-82 -25q-47 0 -73.5 22.5t-41.5 67.5l-190 547q-11 33 -39 33q-18 0 -30 -10t-12 -40v-614h-79v622zM362 -210q-16 0 -16 16v78q0 16 16 16h37
q15 0 15 -16v-78q0 -16 -15 -16h-37z" />
    <glyph glyph-name="uni1E46.salt" horiz-adv-x="735" 
d="M91 622q0 69 33 94.5t82 25.5t74.5 -25t40.5 -69l188 -543q11 -33 43 -33q16 0 28 9t12 37v618h79v-626q0 -66 -33 -91t-82 -25q-47 0 -73.5 22.5t-41.5 67.5l-190 547q-11 33 -39 33q-18 0 -30 -10t-12 -40v-614h-79v622zM362 -210q-16 0 -16 16v78q0 16 16 16h37
q15 0 15 -16v-78q0 -16 -15 -16h-37z" />
    <glyph glyph-name="uni1E48.salt" horiz-adv-x="735" 
d="M91 622q0 69 33 94.5t82 25.5t74.5 -25t40.5 -69l188 -543q11 -33 43 -33q16 0 28 9t12 37v618h79v-626q0 -66 -33 -91t-82 -25q-47 0 -73.5 22.5t-41.5 67.5l-190 547q-11 33 -39 33q-18 0 -30 -10t-12 -40v-614h-79v622zM245 -188v47h265v-47h-265z" />
    <glyph glyph-name="Ntilde.salt" horiz-adv-x="735" 
d="M91 622q0 69 33 94.5t82 25.5t74.5 -25t40.5 -69l188 -543q11 -33 43 -33q16 0 28 9t12 37v618h79v-626q0 -66 -33 -91t-82 -25q-47 0 -73.5 22.5t-41.5 67.5l-190 547q-11 33 -39 33q-18 0 -30 -10t-12 -40v-614h-79v622zM216 807q2 60 31.5 83.5t64.5 23.5
q32 0 57.5 -15.5t49 -30.5t48.5 -15q26 0 43 16t18 47h40q-1 -51 -26 -80t-70 -29q-31 0 -56.5 15.5t-50 31t-49.5 15.5q-24 0 -41.5 -15t-17.5 -47h-41z" />
    <glyph glyph-name="W.salt" horiz-adv-x="1011" 
d="M117 736l211 -648l205 648h83l-74 -243l145 -405l209 648h80l-232 -736h-105l-135 375l-129 -375h-105l-236 736h83z" />
    <glyph glyph-name="Wacute.salt" horiz-adv-x="1011" 
d="M117 736l211 -648l205 648h83l-74 -243l145 -405l209 648h80l-232 -736h-105l-135 375l-129 -375h-105l-236 736h83zM507 791l104 136h67l-125 -136h-46z" />
    <glyph glyph-name="Wcircumflex.salt" horiz-adv-x="1011" 
d="M117 736l211 -648l205 648h83l-74 -243l145 -405l209 648h80l-232 -736h-105l-135 375l-129 -375h-105l-236 736h83zM379 791l122 135h56l110 -135h-48l-91 97l-100 -97h-49z" />
    <glyph glyph-name="Wdieresis.salt" horiz-adv-x="1011" 
d="M117 736l211 -648l205 648h83l-74 -243l145 -405l209 648h80l-232 -736h-105l-135 375l-129 -375h-105l-236 736h83zM618 813q-16 0 -16 16v78q0 16 16 16h37q15 0 15 -16v-78q0 -16 -15 -16h-37zM382 813q-15 0 -15 16v78q0 16 15 16h37q16 0 16 -16v-78q0 -16 -16 -16
h-37z" />
    <glyph glyph-name="Wgrave.salt" horiz-adv-x="1011" 
d="M117 736l211 -648l205 648h83l-74 -243l145 -405l209 648h80l-232 -736h-105l-135 375l-129 -375h-105l-236 736h83zM509 791l-125 136h67l104 -136h-46z" />
    <glyph glyph-name="X.salt" horiz-adv-x="635" 
d="M191 272q14 24 22 47.5t8 48.5q0 27 -10.5 53t-25.5 52l-150 263h83l141 -240q17 -28 29 -60.5t12 -66.5q0 -31 -8.5 -60.5t-24.5 -57.5l-144 -251h-86zM370 251q-17 28 -24.5 57.5t-7.5 60.5q0 34 12.5 66t28.5 61l138 240h82l-146 -263q-15 -26 -25.5 -52t-10.5 -53
q0 -49 27 -96l155 -272h-86z" />
    <glyph glyph-name="a" unicode="a" horiz-adv-x="545" 
d="M180 -6q-59 0 -97 35t-38 99v38q0 63 41.5 102t125.5 39h181v66q0 33 -11 56.5t-41 36.5t-86 13h-166v47q35 6 81.5 11t109.5 5q98 1 145 -38t47 -127v-377h-61l-15 61q-3 -3 -24 -13.5t-52.5 -23t-68 -21.5t-71.5 -9zM213 53q22 0 52.5 6.5t59 15.5t48 16.5t20.5 7.5
v168l-163 -7q-57 -2 -81.5 -28.5t-24.5 -66.5v-24q0 -33 13.5 -52t34 -27.5t41.5 -8.5z" />
    <glyph glyph-name="aacute" unicode="&#xe1;" horiz-adv-x="545" 
d="M180 -6q-59 0 -97 35t-38 99v38q0 63 41.5 102t125.5 39h181v66q0 33 -11 56.5t-41 36.5t-86 13h-166v47q35 6 81.5 11t109.5 5q98 1 145 -38t47 -127v-377h-61l-15 61q-3 -3 -24 -13.5t-52.5 -23t-68 -21.5t-71.5 -9zM213 53q22 0 52.5 6.5t59 15.5t48 16.5t20.5 7.5
v168l-163 -7q-57 -2 -81.5 -28.5t-24.5 -66.5v-24q0 -33 13.5 -52t34 -27.5t41.5 -8.5zM238 631l104 136h67l-125 -136h-46z" />
    <glyph glyph-name="abreve" unicode="&#x103;" horiz-adv-x="545" 
d="M180 -6q-59 0 -97 35t-38 99v38q0 63 41.5 102t125.5 39h181v66q0 33 -11 56.5t-41 36.5t-86 13h-166v47q35 6 81.5 11t109.5 5q98 1 145 -38t47 -127v-377h-61l-15 61q-3 -3 -24 -13.5t-52.5 -23t-68 -21.5t-71.5 -9zM213 53q22 0 52.5 6.5t59 15.5t48 16.5t20.5 7.5
v168l-163 -7q-57 -2 -81.5 -28.5t-24.5 -66.5v-24q0 -33 13.5 -52t34 -27.5t41.5 -8.5zM263 629q-36 0 -65.5 13.5t-47.5 44.5t-18 83h39q0 -57 27.5 -80.5t64.5 -22.5q41 0 67 22.5t26 80.5h39q0 -53 -18 -84t-48 -44t-66 -13z" />
    <glyph glyph-name="uni1EAF" unicode="&#x1eaf;" horiz-adv-x="545" 
d="M180 -6q-59 0 -97 35t-38 99v38q0 63 41.5 102t125.5 39h181v66q0 33 -11 56.5t-41 36.5t-86 13h-166v47q35 6 81.5 11t109.5 5q98 1 145 -38t47 -127v-377h-61l-15 61q-3 -3 -24 -13.5t-52.5 -23t-68 -21.5t-71.5 -9zM213 53q22 0 52.5 6.5t59 15.5t48 16.5t20.5 7.5
v168l-163 -7q-57 -2 -81.5 -28.5t-24.5 -66.5v-24q0 -33 13.5 -52t34 -27.5t41.5 -8.5zM234 741l104 136h68l-125 -136h-47zM171 734q0 -43 28 -60.5t64 -16.5q41 0 67 17t26 60h40q0 -43 -18.5 -67t-48.5 -34.5t-66 -10.5q-54 0 -92 25t-38 87h38z" />
    <glyph glyph-name="uni1EB7" unicode="&#x1eb7;" horiz-adv-x="545" 
d="M180 -6q-59 0 -97 35t-38 99v38q0 63 41.5 102t125.5 39h181v66q0 33 -11 56.5t-41 36.5t-86 13h-166v47q35 6 81.5 11t109.5 5q98 1 145 -38t47 -127v-377h-61l-15 61q-3 -3 -24 -13.5t-52.5 -23t-68 -21.5t-71.5 -9zM213 53q22 0 52.5 6.5t59 15.5t48 16.5t20.5 7.5
v168l-163 -7q-57 -2 -81.5 -28.5t-24.5 -66.5v-24q0 -33 13.5 -52t34 -27.5t41.5 -8.5zM263 629q-36 0 -65.5 13.5t-47.5 44.5t-18 83h39q0 -57 27.5 -80.5t64.5 -22.5q41 0 67 22.5t26 80.5h39q0 -53 -18 -84t-48 -44t-66 -13zM248 -210q-16 0 -16 16v78q0 16 16 16h37
q16 0 16 -16v-78q0 -16 -16 -16h-37z" />
    <glyph glyph-name="uni1EB1" unicode="&#x1eb1;" horiz-adv-x="545" 
d="M180 -6q-59 0 -97 35t-38 99v38q0 63 41.5 102t125.5 39h181v66q0 33 -11 56.5t-41 36.5t-86 13h-166v47q35 6 81.5 11t109.5 5q98 1 145 -38t47 -127v-377h-61l-15 61q-3 -3 -24 -13.5t-52.5 -23t-68 -21.5t-71.5 -9zM213 53q22 0 52.5 6.5t59 15.5t48 16.5t20.5 7.5
v168l-163 -7q-57 -2 -81.5 -28.5t-24.5 -66.5v-24q0 -33 13.5 -52t34 -27.5t41.5 -8.5zM256 741l-125 136h68l103 -136h-46zM171 734q0 -43 28 -60.5t64 -16.5q41 0 67 17t26 60h40q0 -43 -18.5 -67t-48.5 -34.5t-66 -10.5q-54 0 -92 25t-38 87h38z" />
    <glyph glyph-name="uni1EB3" unicode="&#x1eb3;" horiz-adv-x="545" 
d="M180 -6q-59 0 -97 35t-38 99v38q0 63 41.5 102t125.5 39h181v66q0 33 -11 56.5t-41 36.5t-86 13h-166v47q35 6 81.5 11t109.5 5q98 1 145 -38t47 -127v-377h-61l-15 61q-3 -3 -24 -13.5t-52.5 -23t-68 -21.5t-71.5 -9zM213 53q22 0 52.5 6.5t59 15.5t48 16.5t20.5 7.5
v168l-163 -7q-57 -2 -81.5 -28.5t-24.5 -66.5v-24q0 -33 13.5 -52t34 -27.5t41.5 -8.5zM246 699v37q33 10 45 26t12 33q0 21 -11 32.5t-37 11.5q-17 0 -36 -6v34q20 7 46 7q42 0 61.5 -21t19.5 -56q0 -32 -23.5 -57.5t-76.5 -40.5zM263 622q-54 0 -92 25t-38 87h38
q0 -43 28 -60.5t64 -16.5q41 0 67 17t26 60h40q0 -43 -18.5 -67t-48.5 -34.5t-66 -10.5z" />
    <glyph glyph-name="uni1EB5" unicode="&#x1eb5;" horiz-adv-x="545" 
d="M180 -6q-59 0 -97 35t-38 99v38q0 63 41.5 102t125.5 39h181v66q0 33 -11 56.5t-41 36.5t-86 13h-166v47q35 6 81.5 11t109.5 5q98 1 145 -38t47 -127v-377h-61l-15 61q-3 -3 -24 -13.5t-52.5 -23t-68 -21.5t-71.5 -9zM213 53q22 0 52.5 6.5t59 15.5t48 16.5t20.5 7.5
v168l-163 -7q-57 -2 -81.5 -28.5t-24.5 -66.5v-24q0 -33 13.5 -52t34 -27.5t41.5 -8.5zM108 769q2 50 27.5 66.5t54.5 16.5q28 0 52 -10.5t46 -21t45 -10.5q24 0 39 11.5t15 32.5h40q-4 -84 -83 -84q-26 0 -50 10.5t-47 21t-46 10.5q-22 0 -37 -11t-15 -32h-41zM171 734
q0 -43 28 -60.5t64 -16.5q41 0 67 17t26 60h40q0 -43 -18.5 -67t-48.5 -34.5t-66 -10.5q-54 0 -92 25t-38 87h38z" />
    <glyph glyph-name="acircumflex" unicode="&#xe2;" horiz-adv-x="545" 
d="M180 -6q-59 0 -97 35t-38 99v38q0 63 41.5 102t125.5 39h181v66q0 33 -11 56.5t-41 36.5t-86 13h-166v47q35 6 81.5 11t109.5 5q98 1 145 -38t47 -127v-377h-61l-15 61q-3 -3 -24 -13.5t-52.5 -23t-68 -21.5t-71.5 -9zM213 53q22 0 52.5 6.5t59 15.5t48 16.5t20.5 7.5
v168l-163 -7q-57 -2 -81.5 -28.5t-24.5 -66.5v-24q0 -33 13.5 -52t34 -27.5t41.5 -8.5zM123 631l122 135h56l110 -135h-48l-91 97l-100 -97h-49z" />
    <glyph glyph-name="uni1EA5" unicode="&#x1ea5;" horiz-adv-x="545" 
d="M180 -6q-59 0 -97 35t-38 99v38q0 63 41.5 102t125.5 39h181v66q0 33 -11 56.5t-41 36.5t-86 13h-166v47q35 6 81.5 11t109.5 5q98 1 145 -38t47 -127v-377h-61l-15 61q-3 -3 -24 -13.5t-52.5 -23t-68 -21.5t-71.5 -9zM213 53q22 0 52.5 6.5t59 15.5t48 16.5t20.5 7.5
v168l-163 -7q-57 -2 -81.5 -28.5t-24.5 -66.5v-24q0 -33 13.5 -52t34 -27.5t41.5 -8.5zM441 837h68l-109 -129h-46zM244 729h57l110 -98h-48l-92 61l-100 -61h-48z" />
    <glyph glyph-name="uni1EAD" unicode="&#x1ead;" horiz-adv-x="545" 
d="M180 -6q-59 0 -97 35t-38 99v38q0 63 41.5 102t125.5 39h181v66q0 33 -11 56.5t-41 36.5t-86 13h-166v47q35 6 81.5 11t109.5 5q98 1 145 -38t47 -127v-377h-61l-15 61q-3 -3 -24 -13.5t-52.5 -23t-68 -21.5t-71.5 -9zM213 53q22 0 52.5 6.5t59 15.5t48 16.5t20.5 7.5
v168l-163 -7q-57 -2 -81.5 -28.5t-24.5 -66.5v-24q0 -33 13.5 -52t34 -27.5t41.5 -8.5zM123 631l122 135h56l110 -135h-48l-91 97l-100 -97h-49zM248 -210q-16 0 -16 16v78q0 16 16 16h37q16 0 16 -16v-78q0 -16 -16 -16h-37z" />
    <glyph glyph-name="uni1EA7" unicode="&#x1ea7;" horiz-adv-x="545" 
d="M180 -6q-59 0 -97 35t-38 99v38q0 63 41.5 102t125.5 39h181v66q0 33 -11 56.5t-41 36.5t-86 13h-166v47q35 6 81.5 11t109.5 5q98 1 145 -38t47 -127v-377h-61l-15 61q-3 -3 -24 -13.5t-52.5 -23t-68 -21.5t-71.5 -9zM213 53q22 0 52.5 6.5t59 15.5t48 16.5t20.5 7.5
v168l-163 -7q-57 -2 -81.5 -28.5t-24.5 -66.5v-24q0 -33 13.5 -52t34 -27.5t41.5 -8.5zM31 837h68l87 -129h-46zM244 729h57l110 -98h-48l-92 61l-100 -61h-48z" />
    <glyph glyph-name="uni1EA9" unicode="&#x1ea9;" horiz-adv-x="545" 
d="M180 -6q-59 0 -97 35t-38 99v38q0 63 41.5 102t125.5 39h181v66q0 33 -11 56.5t-41 36.5t-86 13h-166v47q35 6 81.5 11t109.5 5q98 1 145 -38t47 -127v-377h-61l-15 61q-3 -3 -24 -13.5t-52.5 -23t-68 -21.5t-71.5 -9zM213 53q22 0 52.5 6.5t59 15.5t48 16.5t20.5 7.5
v168l-163 -7q-57 -2 -81.5 -28.5t-24.5 -66.5v-24q0 -33 13.5 -52t34 -27.5t41.5 -8.5zM377 683v36q28 9 39 23t11 28q0 17 -9.5 27t-32.5 10q-17 0 -35 -6v30q20 7 45 7q37 0 54.5 -17.5t17.5 -47.5q0 -29 -21.5 -53t-68.5 -37zM123 631l121 98h57l110 -98h-48l-92 61
l-100 -61h-48z" />
    <glyph glyph-name="uni1EAB" unicode="&#x1eab;" horiz-adv-x="545" 
d="M180 -6q-59 0 -97 35t-38 99v38q0 63 41.5 102t125.5 39h181v66q0 33 -11 56.5t-41 36.5t-86 13h-166v47q35 6 81.5 11t109.5 5q98 1 145 -38t47 -127v-377h-61l-15 61q-3 -3 -24 -13.5t-52.5 -23t-68 -21.5t-71.5 -9zM213 53q22 0 52.5 6.5t59 15.5t48 16.5t20.5 7.5
v168l-163 -7q-57 -2 -81.5 -28.5t-24.5 -66.5v-24q0 -33 13.5 -52t34 -27.5t41.5 -8.5zM108 776q2 49 27.5 66t54.5 17q28 0 52 -10.5t46 -21t45 -10.5q24 0 39 11t15 33h40q-4 -85 -83 -85q-27 0 -51.5 10.5t-48 21t-47.5 10.5q-19 0 -33.5 -10.5t-14.5 -31.5h-41zM301 729
l110 -98h-48l-92 61l-100 -61h-48l121 98h57z" />
    <glyph glyph-name="uni0201" unicode="&#x201;" horiz-adv-x="545" 
d="M180 -6q-59 0 -97 35t-38 99v38q0 63 41.5 102t125.5 39h181v66q0 33 -11 56.5t-41 36.5t-86 13h-166v47q35 6 81.5 11t109.5 5q98 1 145 -38t47 -127v-377h-61l-15 61q-3 -3 -24 -13.5t-52.5 -23t-68 -21.5t-71.5 -9zM213 53q22 0 52.5 6.5t59 15.5t48 16.5t20.5 7.5
v168l-163 -7q-57 -2 -81.5 -28.5t-24.5 -66.5v-24q0 -33 13.5 -52t34 -27.5t41.5 -8.5zM340 631l-125 136h68l104 -136h-47zM194 631l-125 136h68l104 -136h-47z" />
    <glyph glyph-name="adieresis" unicode="&#xe4;" horiz-adv-x="545" 
d="M180 -6q-59 0 -97 35t-38 99v38q0 63 41.5 102t125.5 39h181v66q0 33 -11 56.5t-41 36.5t-86 13h-166v47q35 6 81.5 11t109.5 5q98 1 145 -38t47 -127v-377h-61l-15 61q-3 -3 -24 -13.5t-52.5 -23t-68 -21.5t-71.5 -9zM213 53q22 0 52.5 6.5t59 15.5t48 16.5t20.5 7.5
v168l-163 -7q-57 -2 -81.5 -28.5t-24.5 -66.5v-24q0 -33 13.5 -52t34 -27.5t41.5 -8.5zM348 653q-16 0 -16 16v78q0 16 16 16h36q16 0 16 -16v-78q0 -16 -16 -16h-36zM153 653q-16 0 -16 16v78q0 16 16 16h36q16 0 16 -16v-78q0 -16 -16 -16h-36z" />
    <glyph glyph-name="uni1EA1" unicode="&#x1ea1;" horiz-adv-x="545" 
d="M180 -6q-59 0 -97 35t-38 99v38q0 63 41.5 102t125.5 39h181v66q0 33 -11 56.5t-41 36.5t-86 13h-166v47q35 6 81.5 11t109.5 5q98 1 145 -38t47 -127v-377h-61l-15 61q-3 -3 -24 -13.5t-52.5 -23t-68 -21.5t-71.5 -9zM213 53q22 0 52.5 6.5t59 15.5t48 16.5t20.5 7.5
v168l-163 -7q-57 -2 -81.5 -28.5t-24.5 -66.5v-24q0 -33 13.5 -52t34 -27.5t41.5 -8.5zM248 -210q-16 0 -16 16v78q0 16 16 16h37q16 0 16 -16v-78q0 -16 -16 -16h-37z" />
    <glyph glyph-name="agrave" unicode="&#xe0;" horiz-adv-x="545" 
d="M180 -6q-59 0 -97 35t-38 99v38q0 63 41.5 102t125.5 39h181v66q0 33 -11 56.5t-41 36.5t-86 13h-166v47q35 6 81.5 11t109.5 5q98 1 145 -38t47 -127v-377h-61l-15 61q-3 -3 -24 -13.5t-52.5 -23t-68 -21.5t-71.5 -9zM213 53q22 0 52.5 6.5t59 15.5t48 16.5t20.5 7.5
v168l-163 -7q-57 -2 -81.5 -28.5t-24.5 -66.5v-24q0 -33 13.5 -52t34 -27.5t41.5 -8.5zM266 631l-125 136h67l104 -136h-46z" />
    <glyph glyph-name="uni1EA3" unicode="&#x1ea3;" horiz-adv-x="545" 
d="M180 -6q-59 0 -97 35t-38 99v38q0 63 41.5 102t125.5 39h181v66q0 33 -11 56.5t-41 36.5t-86 13h-166v47q35 6 81.5 11t109.5 5q98 1 145 -38t47 -127v-377h-61l-15 61q-3 -3 -24 -13.5t-52.5 -23t-68 -21.5t-71.5 -9zM213 53q22 0 52.5 6.5t59 15.5t48 16.5t20.5 7.5
v168l-163 -7q-57 -2 -81.5 -28.5t-24.5 -66.5v-24q0 -33 13.5 -52t34 -27.5t41.5 -8.5zM252 603v37q32 9 44 25.5t12 33.5q0 20 -10.5 32t-37.5 12q-17 0 -35 -6v34q19 6 45 6q42 0 62 -21t20 -56q0 -31 -24 -56.5t-76 -40.5z" />
    <glyph glyph-name="uni0203" unicode="&#x203;" horiz-adv-x="545" 
d="M180 -6q-59 0 -97 35t-38 99v38q0 63 41.5 102t125.5 39h181v66q0 33 -11 56.5t-41 36.5t-86 13h-166v47q35 6 81.5 11t109.5 5q98 1 145 -38t47 -127v-377h-61l-15 61q-3 -3 -24 -13.5t-52.5 -23t-68 -21.5t-71.5 -9zM213 53q22 0 52.5 6.5t59 15.5t48 16.5t20.5 7.5
v168l-163 -7q-57 -2 -81.5 -28.5t-24.5 -66.5v-24q0 -33 13.5 -52t34 -27.5t41.5 -8.5zM268 771q36 0 65.5 -13.5t47.5 -44.5t18 -83h-39q0 57 -27.5 80.5t-64.5 22.5q-41 0 -67 -22.5t-26 -80.5h-39q0 53 18 84t48 44t66 13z" />
    <glyph glyph-name="amacron" unicode="&#x101;" horiz-adv-x="545" 
d="M180 -6q-59 0 -97 35t-38 99v38q0 63 41.5 102t125.5 39h181v66q0 33 -11 56.5t-41 36.5t-86 13h-166v47q35 6 81.5 11t109.5 5q98 1 145 -38t47 -127v-377h-61l-15 61q-3 -3 -24 -13.5t-52.5 -23t-68 -21.5t-71.5 -9zM213 53q22 0 52.5 6.5t59 15.5t48 16.5t20.5 7.5
v168l-163 -7q-57 -2 -81.5 -28.5t-24.5 -66.5v-24q0 -33 13.5 -52t34 -27.5t41.5 -8.5zM135 672v47h265v-47h-265z" />
    <glyph glyph-name="aogonek" unicode="&#x105;" horiz-adv-x="545" 
d="M180 -6q-59 0 -97 35t-38 99v38q0 63 41.5 102t125.5 39h181v66q0 33 -11 56.5t-41 36.5t-86 13h-166v47q35 6 81.5 11t109.5 5q98 1 145 -38t47 -127v-377h-61l-15 61q-3 -3 -24 -13.5t-52.5 -23t-68 -21.5t-71.5 -9zM213 53q22 0 52.5 6.5t59 15.5t48 16.5t20.5 7.5
v168l-163 -7q-57 -2 -81.5 -28.5t-24.5 -66.5v-24q0 -33 13.5 -52t34 -27.5t41.5 -8.5zM472 -187q-51 0 -78 26t-27 63q0 29 18 54.5t57 43.5h30q-63 -34 -63 -81q0 -30 21.5 -47.5t61.5 -17.5h6v-38q-10 -3 -26 -3z" />
    <glyph glyph-name="aring" unicode="&#xe5;" horiz-adv-x="545" 
d="M180 -6q-59 0 -97 35t-38 99v38q0 63 41.5 102t125.5 39h181v66q0 33 -11 56.5t-41 36.5t-86 13h-166v47q35 6 81.5 11t109.5 5q98 1 145 -38t47 -127v-377h-61l-15 61q-3 -3 -24 -13.5t-52.5 -23t-68 -21.5t-71.5 -9zM213 53q22 0 52.5 6.5t59 15.5t48 16.5t20.5 7.5
v168l-163 -7q-57 -2 -81.5 -28.5t-24.5 -66.5v-24q0 -33 13.5 -52t34 -27.5t41.5 -8.5zM271 594q-54 0 -83 23t-29 83q0 61 29 84.5t83 23.5t82 -23.5t28 -84.5q0 -60 -28 -83t-82 -23zM271 627q36 0 53 15t17 58t-17 59t-53 16q-37 0 -55 -16t-18 -59t18 -58t55 -15z" />
    <glyph glyph-name="aringacute" unicode="&#x1fb;" horiz-adv-x="545" 
d="M180 -6q-59 0 -97 35t-38 99v38q0 63 41.5 102t125.5 39h181v66q0 33 -11 56.5t-41 36.5t-86 13h-166v47q35 6 81.5 11t109.5 5q98 1 145 -38t47 -127v-377h-61l-15 61q-3 -3 -24 -13.5t-52.5 -23t-68 -21.5t-71.5 -9zM213 53q22 0 52.5 6.5t59 15.5t48 16.5t20.5 7.5
v168l-163 -7q-57 -2 -81.5 -28.5t-24.5 -66.5v-24q0 -33 13.5 -52t34 -27.5t41.5 -8.5zM271 594q-54 0 -83 23t-29 83q0 61 29 84.5t83 23.5t82 -23.5t28 -84.5q0 -60 -28 -83t-82 -23zM271 627q36 0 53 15t17 58t-17 59t-53 16q-37 0 -55 -16t-18 -59t18 -58t55 -15z
M245 791l104 136h67l-125 -136h-46z" />
    <glyph glyph-name="atilde" unicode="&#xe3;" horiz-adv-x="545" 
d="M180 -6q-59 0 -97 35t-38 99v38q0 63 41.5 102t125.5 39h181v66q0 33 -11 56.5t-41 36.5t-86 13h-166v47q35 6 81.5 11t109.5 5q98 1 145 -38t47 -127v-377h-61l-15 61q-3 -3 -24 -13.5t-52.5 -23t-68 -21.5t-71.5 -9zM213 53q22 0 52.5 6.5t59 15.5t48 16.5t20.5 7.5
v168l-163 -7q-57 -2 -81.5 -28.5t-24.5 -66.5v-24q0 -33 13.5 -52t34 -27.5t41.5 -8.5zM106 647q2 60 31.5 83.5t64.5 23.5q32 0 57.5 -15.5t49 -30.5t48.5 -15q26 0 43 16t18 47h40q-1 -51 -26 -80t-70 -29q-31 0 -56.5 15.5t-50 31t-49.5 15.5q-24 0 -41.5 -15t-17.5 -47
h-41z" />
    <glyph glyph-name="ae" unicode="&#xe6;" horiz-adv-x="881" 
d="M183 -6q-69 0 -103 38t-34 99v33q0 62 41 100t123 38h184v72q0 45 -27.5 75t-102.5 30h-174v47q38 7 78 11.5t103 4.5q59 1 104.5 -21.5t64.5 -69.5q20 50 65.5 70t109.5 20q70 0 115.5 -16t68 -55t22.5 -107q0 -69 -41 -92.5t-116 -23.5h-192q-1 -79 21.5 -120.5t62 -56
t89.5 -14.5h162v-48q-47 -8 -98.5 -11t-96.5 -3q-54 0 -91 16t-60.5 40.5t-37.5 51.5q-26 -28 -62.5 -52.5t-81.5 -40t-96 -15.5zM472 300h190q39 0 63 11.5t24 52.5q0 63 -30.5 89t-107.5 26q-54 0 -84 -14.5t-42 -53t-13 -111.5zM214 53q51 0 102 23.5t91 65.5
q-4 16 -8.5 45.5t-5.5 70.5l-170 -4q-54 -1 -76 -27t-22 -62v-23q0 -51 27 -70t62 -19z" />
    <glyph glyph-name="aeacute" unicode="&#x1fd;" horiz-adv-x="881" 
d="M183 -6q-69 0 -103 38t-34 99v33q0 62 41 100t123 38h184v72q0 45 -27.5 75t-102.5 30h-174v47q38 7 78 11.5t103 4.5q59 1 104.5 -21.5t64.5 -69.5q20 50 65.5 70t109.5 20q70 0 115.5 -16t68 -55t22.5 -107q0 -69 -41 -92.5t-116 -23.5h-192q-1 -79 21.5 -120.5t62 -56
t89.5 -14.5h162v-48q-47 -8 -98.5 -11t-96.5 -3q-54 0 -91 16t-60.5 40.5t-37.5 51.5q-26 -28 -62.5 -52.5t-81.5 -40t-96 -15.5zM472 300h190q39 0 63 11.5t24 52.5q0 63 -30.5 89t-107.5 26q-54 0 -84 -14.5t-42 -53t-13 -111.5zM214 53q51 0 102 23.5t91 65.5
q-4 16 -8.5 45.5t-5.5 70.5l-170 -4q-54 -1 -76 -27t-22 -62v-23q0 -51 27 -70t62 -19zM407 631l104 136h67l-125 -136h-46z" />
    <glyph glyph-name="b" unicode="b" horiz-adv-x="578" 
d="M333 -6q-57 0 -102.5 19.5t-75.5 40.5l-15 -54h-64v763h79v-278q39 23 87 39.5t88 16.5q64 0 106.5 -27t63.5 -88t21 -163q0 -125 -44 -197t-144 -72zM308 60q65 0 99.5 51t34.5 155q0 88 -17.5 133t-47.5 60.5t-69 15.5q-45 0 -80.5 -12.5t-72.5 -32.5v-327
q30 -15 68 -29t85 -14z" />
    <glyph glyph-name="uni1E03" unicode="&#x1e03;" horiz-adv-x="578" 
d="M333 -6q-57 0 -102.5 19.5t-75.5 40.5l-15 -54h-64v763h79v-278q39 23 87 39.5t88 16.5q64 0 106.5 -27t63.5 -88t21 -163q0 -125 -44 -197t-144 -72zM308 60q65 0 99.5 51t34.5 155q0 88 -17.5 133t-47.5 60.5t-69 15.5q-45 0 -80.5 -12.5t-72.5 -32.5v-327
q30 -15 68 -29t85 -14zM96 860q-16 0 -16 16v78q0 16 16 16h37q15 0 15 -16v-78q0 -16 -15 -16h-37z" />
    <glyph glyph-name="c" unicode="c" horiz-adv-x="490" 
d="M270 -6q-61 0 -109 22.5t-76 81.5t-28 168q0 110 26.5 169.5t75 82t113.5 22.5q40 0 87 -3.5t90 -10.5v-47h-156q-51 0 -86 -17t-53 -63.5t-18 -134.5q0 -85 19 -130t54 -61.5t85 -16.5h163v-46q-36 -6 -85 -11t-102 -5z" />
    <glyph glyph-name="cacute" unicode="&#x107;" horiz-adv-x="490" 
d="M270 -6q-61 0 -109 22.5t-76 81.5t-28 168q0 110 26.5 169.5t75 82t113.5 22.5q40 0 87 -3.5t90 -10.5v-47h-156q-51 0 -86 -17t-53 -63.5t-18 -134.5q0 -85 19 -130t54 -61.5t85 -16.5h163v-46q-36 -6 -85 -11t-102 -5zM238 631l104 136h67l-125 -136h-46z" />
    <glyph glyph-name="ccaron" unicode="&#x10d;" horiz-adv-x="490" 
d="M270 -6q-61 0 -109 22.5t-76 81.5t-28 168q0 110 26.5 169.5t75 82t113.5 22.5q40 0 87 -3.5t90 -10.5v-47h-156q-51 0 -86 -17t-53 -63.5t-18 -134.5q0 -85 19 -130t54 -61.5t85 -16.5h163v-46q-36 -6 -85 -11t-102 -5zM241 631l-111 135h48l92 -97l100 97h48l-121 -135
h-56z" />
    <glyph glyph-name="ccedilla" unicode="&#xe7;" horiz-adv-x="490" 
d="M270 -6q-61 0 -109 22.5t-76 81.5t-28 168q0 110 26.5 169.5t75 82t113.5 22.5q40 0 87 -3.5t90 -10.5v-47h-156q-51 0 -86 -17t-53 -63.5t-18 -134.5q0 -85 19 -130t54 -61.5t85 -16.5h163v-46q-36 -6 -85 -11t-102 -5zM212 -66l52 79h37l-45 -68q73 -4 73 -63
q0 -34 -25 -52.5t-71 -18.5h-33v32l22 2q56 5 56 45q0 17 -13 29.5t-53 14.5z" />
    <glyph glyph-name="uni1E09" unicode="&#x1e09;" horiz-adv-x="490" 
d="M270 -6q-61 0 -109 22.5t-76 81.5t-28 168q0 110 26.5 169.5t75 82t113.5 22.5q40 0 87 -3.5t90 -10.5v-47h-156q-51 0 -86 -17t-53 -63.5t-18 -134.5q0 -85 19 -130t54 -61.5t85 -16.5h163v-46q-36 -6 -85 -11t-102 -5zM212 -66l52 79h37l-45 -68q73 -4 73 -63
q0 -34 -25 -52.5t-71 -18.5h-33v32l22 2q56 5 56 45q0 17 -13 29.5t-53 14.5zM238 631l104 136h67l-125 -136h-46z" />
    <glyph glyph-name="ccircumflex" unicode="&#x109;" horiz-adv-x="490" 
d="M270 -6q-61 0 -109 22.5t-76 81.5t-28 168q0 110 26.5 169.5t75 82t113.5 22.5q40 0 87 -3.5t90 -10.5v-47h-156q-51 0 -86 -17t-53 -63.5t-18 -134.5q0 -85 19 -130t54 -61.5t85 -16.5h163v-46q-36 -6 -85 -11t-102 -5zM123 631l122 135h56l110 -135h-48l-91 97
l-100 -97h-49z" />
    <glyph glyph-name="cdotaccent" unicode="&#x10b;" horiz-adv-x="490" 
d="M270 -6q-61 0 -109 22.5t-76 81.5t-28 168q0 110 26.5 169.5t75 82t113.5 22.5q40 0 87 -3.5t90 -10.5v-47h-156q-51 0 -86 -17t-53 -63.5t-18 -134.5q0 -85 19 -130t54 -61.5t85 -16.5h163v-46q-36 -6 -85 -11t-102 -5zM251 660q-16 0 -16 16v78q0 16 16 16h37
q15 0 15 -16v-78q0 -16 -15 -16h-37z" />
    <glyph glyph-name="d" unicode="d" horiz-adv-x="575" 
d="M249 -6q-99 0 -145.5 65t-46.5 204q0 99 20 160t64 89.5t118 28.5q45 0 88 -10t76 -22v254h79v-763h-64l-15 54q-15 -13 -44.5 -27t-64 -23.5t-65.5 -9.5zM272 59q46 0 83.5 14.5t67.5 30.5v349q-36 10 -68.5 18t-74.5 8q-51 0 -83 -19t-46.5 -65.5t-14.5 -128.5
q0 -112 31.5 -159.5t104.5 -47.5z" />
    <glyph glyph-name="eth" unicode="&#xf0;" horiz-adv-x="577" 
d="M288 -6q-78 0 -129 22.5t-76.5 80.5t-25.5 167q0 84 15 137t43.5 81.5t69.5 39.5t94 11q50 0 88 -11t63 -39q-13 55 -35 95t-52 67l-160 -62l-11 29l142 55q-34 22 -75.5 33.5t-90.5 16.5v50q70 -5 128 -22t103 -52l128 50l12 -30l-113 -44q56 -56 85 -153.5t29 -247.5v0
v-1v0v0q0 -111 -25.5 -170t-77 -81t-129.5 -22zM288 59q37 0 65.5 7t48 27.5t29 61.5t9.5 110q0 68 -9.5 109t-29 61.5t-48 27t-65.5 6.5q-38 0 -66 -6.5t-47 -27t-29 -61.5t-10 -109q0 -69 10 -110t29 -61.5t47 -27.5t66 -7z" />
    <glyph glyph-name="dcaron" unicode="&#x10f;" horiz-adv-x="575" 
d="M249 -6q-99 0 -145.5 65t-46.5 204q0 99 20 160t64 89.5t118 28.5q45 0 88 -10t76 -22v254h79v-763h-64l-15 54q-15 -13 -44.5 -27t-64 -23.5t-65.5 -9.5zM272 59q46 0 83.5 14.5t67.5 30.5v349q-36 10 -68.5 18t-74.5 8q-51 0 -83 -19t-46.5 -65.5t-14.5 -128.5
q0 -112 31.5 -159.5t104.5 -47.5zM575 582l-6 141v60h73v-60l-6 -141h-61z" />
    <glyph glyph-name="dcroat" unicode="&#x111;" horiz-adv-x="575" 
d="M249 -6q-99 0 -145.5 65t-46.5 204q0 99 20 160t64 89.5t118 28.5q45 0 88 -10t76 -22v120h-139v35h139v99h79v-99h69v-35h-69v-629h-64l-15 54q-15 -13 -44.5 -27t-64 -23.5t-65.5 -9.5zM272 59q46 0 83.5 14.5t67.5 30.5v349q-36 10 -68.5 18t-74.5 8q-51 0 -83 -19
t-46.5 -65.5t-14.5 -128.5q0 -112 31.5 -159.5t104.5 -47.5z" />
    <glyph glyph-name="uni1E0B" unicode="&#x1e0b;" horiz-adv-x="575" 
d="M249 -6q-99 0 -145.5 65t-46.5 204q0 99 20 160t64 89.5t118 28.5q45 0 88 -10t76 -22v254h79v-763h-64l-15 54q-15 -13 -44.5 -27t-64 -23.5t-65.5 -9.5zM272 59q46 0 83.5 14.5t67.5 30.5v349q-36 10 -68.5 18t-74.5 8q-51 0 -83 -19t-46.5 -65.5t-14.5 -128.5
q0 -112 31.5 -159.5t104.5 -47.5zM444 860q-16 0 -16 16v78q0 16 16 16h37q15 0 15 -16v-78q0 -16 -15 -16h-37z" />
    <glyph glyph-name="uni1E0D" unicode="&#x1e0d;" horiz-adv-x="575" 
d="M249 -6q-99 0 -145.5 65t-46.5 204q0 99 20 160t64 89.5t118 28.5q45 0 88 -10t76 -22v254h79v-763h-64l-15 54q-15 -13 -44.5 -27t-64 -23.5t-65.5 -9.5zM272 59q46 0 83.5 14.5t67.5 30.5v349q-36 10 -68.5 18t-74.5 8q-51 0 -83 -19t-46.5 -65.5t-14.5 -128.5
q0 -112 31.5 -159.5t104.5 -47.5zM265 -210q-16 0 -16 16v78q0 16 16 16h37q16 0 16 -16v-78q0 -16 -16 -16h-37z" />
    <glyph glyph-name="uni1E0F" unicode="&#x1e0f;" horiz-adv-x="575" 
d="M249 -6q-99 0 -145.5 65t-46.5 204q0 99 20 160t64 89.5t118 28.5q45 0 88 -10t76 -22v254h79v-763h-64l-15 54q-15 -13 -44.5 -27t-64 -23.5t-65.5 -9.5zM272 59q46 0 83.5 14.5t67.5 30.5v349q-36 10 -68.5 18t-74.5 8q-51 0 -83 -19t-46.5 -65.5t-14.5 -128.5
q0 -112 31.5 -159.5t104.5 -47.5zM151 -188v47h265v-47h-265z" />
    <glyph glyph-name="e" unicode="e" horiz-adv-x="541" 
d="M280 -6q-84 0 -132.5 25t-69.5 85t-21 164q0 106 21.5 165.5t70.5 83.5t132 24q70 0 115 -16t66.5 -54.5t21.5 -106.5q0 -71 -41 -100t-111 -29h-196q0 -65 13.5 -104.5t48.5 -57t101 -17.5h172v-48q-46 -6 -89.5 -10t-101.5 -4zM135 287h190q45 0 66.5 16.5t21.5 59.5
q0 68 -30 93t-102 25q-57 0 -88.5 -16.5t-44.5 -59t-13 -118.5z" />
    <glyph glyph-name="eacute" unicode="&#xe9;" horiz-adv-x="541" 
d="M280 -6q-84 0 -132.5 25t-69.5 85t-21 164q0 106 21.5 165.5t70.5 83.5t132 24q70 0 115 -16t66.5 -54.5t21.5 -106.5q0 -71 -41 -100t-111 -29h-196q0 -65 13.5 -104.5t48.5 -57t101 -17.5h172v-48q-46 -6 -89.5 -10t-101.5 -4zM135 287h190q45 0 66.5 16.5t21.5 59.5
q0 68 -30 93t-102 25q-57 0 -88.5 -16.5t-44.5 -59t-13 -118.5zM238 631l104 136h67l-125 -136h-46z" />
    <glyph glyph-name="ebreve" unicode="&#x115;" horiz-adv-x="541" 
d="M280 -6q-84 0 -132.5 25t-69.5 85t-21 164q0 106 21.5 165.5t70.5 83.5t132 24q70 0 115 -16t66.5 -54.5t21.5 -106.5q0 -71 -41 -100t-111 -29h-196q0 -65 13.5 -104.5t48.5 -57t101 -17.5h172v-48q-46 -6 -89.5 -10t-101.5 -4zM135 287h190q45 0 66.5 16.5t21.5 59.5
q0 68 -30 93t-102 25q-57 0 -88.5 -16.5t-44.5 -59t-13 -118.5zM263 629q-36 0 -65.5 13.5t-47.5 44.5t-18 83h39q0 -57 27.5 -80.5t64.5 -22.5q41 0 67 22.5t26 80.5h39q0 -53 -18 -84t-48 -44t-66 -13z" />
    <glyph glyph-name="ecaron" unicode="&#x11b;" horiz-adv-x="541" 
d="M280 -6q-84 0 -132.5 25t-69.5 85t-21 164q0 106 21.5 165.5t70.5 83.5t132 24q70 0 115 -16t66.5 -54.5t21.5 -106.5q0 -71 -41 -100t-111 -29h-196q0 -65 13.5 -104.5t48.5 -57t101 -17.5h172v-48q-46 -6 -89.5 -10t-101.5 -4zM135 287h190q45 0 66.5 16.5t21.5 59.5
q0 68 -30 93t-102 25q-57 0 -88.5 -16.5t-44.5 -59t-13 -118.5zM241 631l-111 135h48l92 -97l100 97h48l-121 -135h-56z" />
    <glyph glyph-name="uni1E1D" unicode="&#x1e1d;" horiz-adv-x="541" 
d="M280 -6q-84 0 -132.5 25t-69.5 85t-21 164q0 106 21.5 165.5t70.5 83.5t132 24q70 0 115 -16t66.5 -54.5t21.5 -106.5q0 -71 -41 -100t-111 -29h-196q0 -65 13.5 -104.5t48.5 -57t101 -17.5h172v-48q-46 -6 -89.5 -10t-101.5 -4zM135 287h190q45 0 66.5 16.5t21.5 59.5
q0 68 -30 93t-102 25q-57 0 -88.5 -16.5t-44.5 -59t-13 -118.5zM212 -66l52 79h37l-45 -68q73 -4 73 -63q0 -34 -25 -52.5t-71 -18.5h-33v32l22 2q56 5 56 45q0 17 -13 29.5t-53 14.5zM263 629q-36 0 -65.5 13.5t-47.5 44.5t-18 83h39q0 -57 27.5 -80.5t64.5 -22.5
q41 0 67 22.5t26 80.5h39q0 -53 -18 -84t-48 -44t-66 -13z" />
    <glyph glyph-name="ecircumflex" unicode="&#xea;" horiz-adv-x="541" 
d="M280 -6q-84 0 -132.5 25t-69.5 85t-21 164q0 106 21.5 165.5t70.5 83.5t132 24q70 0 115 -16t66.5 -54.5t21.5 -106.5q0 -71 -41 -100t-111 -29h-196q0 -65 13.5 -104.5t48.5 -57t101 -17.5h172v-48q-46 -6 -89.5 -10t-101.5 -4zM135 287h190q45 0 66.5 16.5t21.5 59.5
q0 68 -30 93t-102 25q-57 0 -88.5 -16.5t-44.5 -59t-13 -118.5zM123 631l122 135h56l110 -135h-48l-91 97l-100 -97h-49z" />
    <glyph glyph-name="uni1EBF" unicode="&#x1ebf;" horiz-adv-x="541" 
d="M280 -6q-84 0 -132.5 25t-69.5 85t-21 164q0 106 21.5 165.5t70.5 83.5t132 24q70 0 115 -16t66.5 -54.5t21.5 -106.5q0 -71 -41 -100t-111 -29h-196q0 -65 13.5 -104.5t48.5 -57t101 -17.5h172v-48q-46 -6 -89.5 -10t-101.5 -4zM135 287h190q45 0 66.5 16.5t21.5 59.5
q0 68 -30 93t-102 25q-57 0 -88.5 -16.5t-44.5 -59t-13 -118.5zM441 837h68l-109 -129h-46zM244 729h57l110 -98h-48l-92 61l-100 -61h-48z" />
    <glyph glyph-name="uni1EC7" unicode="&#x1ec7;" horiz-adv-x="541" 
d="M280 -6q-84 0 -132.5 25t-69.5 85t-21 164q0 106 21.5 165.5t70.5 83.5t132 24q70 0 115 -16t66.5 -54.5t21.5 -106.5q0 -71 -41 -100t-111 -29h-196q0 -65 13.5 -104.5t48.5 -57t101 -17.5h172v-48q-46 -6 -89.5 -10t-101.5 -4zM135 287h190q45 0 66.5 16.5t21.5 59.5
q0 68 -30 93t-102 25q-57 0 -88.5 -16.5t-44.5 -59t-13 -118.5zM123 631l122 135h56l110 -135h-48l-91 97l-100 -97h-49zM248 -210q-16 0 -16 16v78q0 16 16 16h37q16 0 16 -16v-78q0 -16 -16 -16h-37z" />
    <glyph glyph-name="uni1EC1" unicode="&#x1ec1;" horiz-adv-x="541" 
d="M280 -6q-84 0 -132.5 25t-69.5 85t-21 164q0 106 21.5 165.5t70.5 83.5t132 24q70 0 115 -16t66.5 -54.5t21.5 -106.5q0 -71 -41 -100t-111 -29h-196q0 -65 13.5 -104.5t48.5 -57t101 -17.5h172v-48q-46 -6 -89.5 -10t-101.5 -4zM135 287h190q45 0 66.5 16.5t21.5 59.5
q0 68 -30 93t-102 25q-57 0 -88.5 -16.5t-44.5 -59t-13 -118.5zM31 837h68l87 -129h-46zM244 729h57l110 -98h-48l-92 61l-100 -61h-48z" />
    <glyph glyph-name="uni1EC3" unicode="&#x1ec3;" horiz-adv-x="541" 
d="M280 -6q-84 0 -132.5 25t-69.5 85t-21 164q0 106 21.5 165.5t70.5 83.5t132 24q70 0 115 -16t66.5 -54.5t21.5 -106.5q0 -71 -41 -100t-111 -29h-196q0 -65 13.5 -104.5t48.5 -57t101 -17.5h172v-48q-46 -6 -89.5 -10t-101.5 -4zM135 287h190q45 0 66.5 16.5t21.5 59.5
q0 68 -30 93t-102 25q-57 0 -88.5 -16.5t-44.5 -59t-13 -118.5zM377 683v36q28 9 39 23t11 28q0 17 -9.5 27t-32.5 10q-17 0 -35 -6v30q20 7 45 7q37 0 54.5 -17.5t17.5 -47.5q0 -29 -21.5 -53t-68.5 -37zM123 631l121 98h57l110 -98h-48l-92 61l-100 -61h-48z" />
    <glyph glyph-name="uni1EC5" unicode="&#x1ec5;" horiz-adv-x="541" 
d="M280 -6q-84 0 -132.5 25t-69.5 85t-21 164q0 106 21.5 165.5t70.5 83.5t132 24q70 0 115 -16t66.5 -54.5t21.5 -106.5q0 -71 -41 -100t-111 -29h-196q0 -65 13.5 -104.5t48.5 -57t101 -17.5h172v-48q-46 -6 -89.5 -10t-101.5 -4zM135 287h190q45 0 66.5 16.5t21.5 59.5
q0 68 -30 93t-102 25q-57 0 -88.5 -16.5t-44.5 -59t-13 -118.5zM108 776q2 49 27.5 66t54.5 17q28 0 52 -10.5t46 -21t45 -10.5q24 0 39 11t15 33h40q-4 -85 -83 -85q-27 0 -51.5 10.5t-48 21t-47.5 10.5q-19 0 -33.5 -10.5t-14.5 -31.5h-41zM301 729l110 -98h-48l-92 61
l-100 -61h-48l121 98h57z" />
    <glyph glyph-name="uni0205" unicode="&#x205;" horiz-adv-x="541" 
d="M280 -6q-84 0 -132.5 25t-69.5 85t-21 164q0 106 21.5 165.5t70.5 83.5t132 24q70 0 115 -16t66.5 -54.5t21.5 -106.5q0 -71 -41 -100t-111 -29h-196q0 -65 13.5 -104.5t48.5 -57t101 -17.5h172v-48q-46 -6 -89.5 -10t-101.5 -4zM135 287h190q45 0 66.5 16.5t21.5 59.5
q0 68 -30 93t-102 25q-57 0 -88.5 -16.5t-44.5 -59t-13 -118.5zM340 631l-125 136h68l104 -136h-47zM194 631l-125 136h68l104 -136h-47z" />
    <glyph glyph-name="edieresis" unicode="&#xeb;" horiz-adv-x="541" 
d="M280 -6q-84 0 -132.5 25t-69.5 85t-21 164q0 106 21.5 165.5t70.5 83.5t132 24q70 0 115 -16t66.5 -54.5t21.5 -106.5q0 -71 -41 -100t-111 -29h-196q0 -65 13.5 -104.5t48.5 -57t101 -17.5h172v-48q-46 -6 -89.5 -10t-101.5 -4zM135 287h190q45 0 66.5 16.5t21.5 59.5
q0 68 -30 93t-102 25q-57 0 -88.5 -16.5t-44.5 -59t-13 -118.5zM348 653q-16 0 -16 16v78q0 16 16 16h36q16 0 16 -16v-78q0 -16 -16 -16h-36zM153 653q-16 0 -16 16v78q0 16 16 16h36q16 0 16 -16v-78q0 -16 -16 -16h-36z" />
    <glyph glyph-name="edotaccent" unicode="&#x117;" horiz-adv-x="541" 
d="M280 -6q-84 0 -132.5 25t-69.5 85t-21 164q0 106 21.5 165.5t70.5 83.5t132 24q70 0 115 -16t66.5 -54.5t21.5 -106.5q0 -71 -41 -100t-111 -29h-196q0 -65 13.5 -104.5t48.5 -57t101 -17.5h172v-48q-46 -6 -89.5 -10t-101.5 -4zM135 287h190q45 0 66.5 16.5t21.5 59.5
q0 68 -30 93t-102 25q-57 0 -88.5 -16.5t-44.5 -59t-13 -118.5zM251 660q-16 0 -16 16v78q0 16 16 16h37q15 0 15 -16v-78q0 -16 -15 -16h-37z" />
    <glyph glyph-name="uni1EB9" unicode="&#x1eb9;" horiz-adv-x="541" 
d="M280 -6q-84 0 -132.5 25t-69.5 85t-21 164q0 106 21.5 165.5t70.5 83.5t132 24q70 0 115 -16t66.5 -54.5t21.5 -106.5q0 -71 -41 -100t-111 -29h-196q0 -65 13.5 -104.5t48.5 -57t101 -17.5h172v-48q-46 -6 -89.5 -10t-101.5 -4zM135 287h190q45 0 66.5 16.5t21.5 59.5
q0 68 -30 93t-102 25q-57 0 -88.5 -16.5t-44.5 -59t-13 -118.5zM248 -210q-16 0 -16 16v78q0 16 16 16h37q16 0 16 -16v-78q0 -16 -16 -16h-37z" />
    <glyph glyph-name="egrave" unicode="&#xe8;" horiz-adv-x="541" 
d="M280 -6q-84 0 -132.5 25t-69.5 85t-21 164q0 106 21.5 165.5t70.5 83.5t132 24q70 0 115 -16t66.5 -54.5t21.5 -106.5q0 -71 -41 -100t-111 -29h-196q0 -65 13.5 -104.5t48.5 -57t101 -17.5h172v-48q-46 -6 -89.5 -10t-101.5 -4zM135 287h190q45 0 66.5 16.5t21.5 59.5
q0 68 -30 93t-102 25q-57 0 -88.5 -16.5t-44.5 -59t-13 -118.5zM266 631l-125 136h67l104 -136h-46z" />
    <glyph glyph-name="uni1EBB" unicode="&#x1ebb;" horiz-adv-x="541" 
d="M280 -6q-84 0 -132.5 25t-69.5 85t-21 164q0 106 21.5 165.5t70.5 83.5t132 24q70 0 115 -16t66.5 -54.5t21.5 -106.5q0 -71 -41 -100t-111 -29h-196q0 -65 13.5 -104.5t48.5 -57t101 -17.5h172v-48q-46 -6 -89.5 -10t-101.5 -4zM135 287h190q45 0 66.5 16.5t21.5 59.5
q0 68 -30 93t-102 25q-57 0 -88.5 -16.5t-44.5 -59t-13 -118.5zM252 603v37q32 9 44 25.5t12 33.5q0 20 -10.5 32t-37.5 12q-17 0 -35 -6v34q19 6 45 6q42 0 62 -21t20 -56q0 -31 -24 -56.5t-76 -40.5z" />
    <glyph glyph-name="uni0207" unicode="&#x207;" horiz-adv-x="541" 
d="M280 -6q-84 0 -132.5 25t-69.5 85t-21 164q0 106 21.5 165.5t70.5 83.5t132 24q70 0 115 -16t66.5 -54.5t21.5 -106.5q0 -71 -41 -100t-111 -29h-196q0 -65 13.5 -104.5t48.5 -57t101 -17.5h172v-48q-46 -6 -89.5 -10t-101.5 -4zM135 287h190q45 0 66.5 16.5t21.5 59.5
q0 68 -30 93t-102 25q-57 0 -88.5 -16.5t-44.5 -59t-13 -118.5zM268 771q36 0 65.5 -13.5t47.5 -44.5t18 -83h-39q0 57 -27.5 80.5t-64.5 22.5q-41 0 -67 -22.5t-26 -80.5h-39q0 53 18 84t48 44t66 13z" />
    <glyph glyph-name="emacron" unicode="&#x113;" horiz-adv-x="541" 
d="M280 -6q-84 0 -132.5 25t-69.5 85t-21 164q0 106 21.5 165.5t70.5 83.5t132 24q70 0 115 -16t66.5 -54.5t21.5 -106.5q0 -71 -41 -100t-111 -29h-196q0 -65 13.5 -104.5t48.5 -57t101 -17.5h172v-48q-46 -6 -89.5 -10t-101.5 -4zM135 287h190q45 0 66.5 16.5t21.5 59.5
q0 68 -30 93t-102 25q-57 0 -88.5 -16.5t-44.5 -59t-13 -118.5zM135 672v47h265v-47h-265z" />
    <glyph glyph-name="uni1E17" unicode="&#x1e17;" horiz-adv-x="541" 
d="M280 -6q-84 0 -132.5 25t-69.5 85t-21 164q0 106 21.5 165.5t70.5 83.5t132 24q70 0 115 -16t66.5 -54.5t21.5 -106.5q0 -71 -41 -100t-111 -29h-196q0 -65 13.5 -104.5t48.5 -57t101 -17.5h172v-48q-46 -6 -89.5 -10t-101.5 -4zM135 287h190q45 0 66.5 16.5t21.5 59.5
q0 68 -30 93t-102 25q-57 0 -88.5 -16.5t-44.5 -59t-13 -118.5zM135 672v47h265v-47h-265zM235 758l104 136h67l-125 -136h-46z" />
    <glyph glyph-name="uni1E15" unicode="&#x1e15;" horiz-adv-x="541" 
d="M280 -6q-84 0 -132.5 25t-69.5 85t-21 164q0 106 21.5 165.5t70.5 83.5t132 24q70 0 115 -16t66.5 -54.5t21.5 -106.5q0 -71 -41 -100t-111 -29h-196q0 -65 13.5 -104.5t48.5 -57t101 -17.5h172v-48q-46 -6 -89.5 -10t-101.5 -4zM135 287h190q45 0 66.5 16.5t21.5 59.5
q0 68 -30 93t-102 25q-57 0 -88.5 -16.5t-44.5 -59t-13 -118.5zM135 672v47h265v-47h-265zM256 758l-125 136h67l104 -136h-46z" />
    <glyph glyph-name="eogonek" unicode="&#x119;" horiz-adv-x="541" 
d="M280 -6q-84 0 -132.5 25t-69.5 85t-21 164q0 106 21.5 165.5t70.5 83.5t132 24q70 0 115 -16t66.5 -54.5t21.5 -106.5q0 -71 -41 -100t-111 -29h-196q0 -65 13.5 -104.5t48.5 -57t101 -17.5h172v-48q-46 -6 -89.5 -10t-101.5 -4zM135 287h190q45 0 66.5 16.5t21.5 59.5
q0 68 -30 93t-102 25q-57 0 -88.5 -16.5t-44.5 -59t-13 -118.5zM470 -163q-51 0 -78 26t-27 63q0 29 18 54.5t57 43.5h30q-63 -34 -63 -81q0 -30 21.5 -47.5t61.5 -17.5h6v-38q-10 -3 -26 -3z" />
    <glyph glyph-name="uni1EBD" unicode="&#x1ebd;" horiz-adv-x="541" 
d="M280 -6q-84 0 -132.5 25t-69.5 85t-21 164q0 106 21.5 165.5t70.5 83.5t132 24q70 0 115 -16t66.5 -54.5t21.5 -106.5q0 -71 -41 -100t-111 -29h-196q0 -65 13.5 -104.5t48.5 -57t101 -17.5h172v-48q-46 -6 -89.5 -10t-101.5 -4zM135 287h190q45 0 66.5 16.5t21.5 59.5
q0 68 -30 93t-102 25q-57 0 -88.5 -16.5t-44.5 -59t-13 -118.5zM106 647q2 60 31.5 83.5t64.5 23.5q32 0 57.5 -15.5t49 -30.5t48.5 -15q26 0 43 16t18 47h40q-1 -51 -26 -80t-70 -29q-31 0 -56.5 15.5t-50 31t-49.5 15.5q-24 0 -41.5 -15t-17.5 -47h-41z" />
    <glyph glyph-name="uni0259" unicode="&#x259;" horiz-adv-x="541" 
d="M261 541q84 0 132.5 -25t69.5 -85t21 -164q0 -106 -21.5 -165.5t-70.5 -83.5t-132 -24q-70 0 -115 16t-66.5 54.5t-21.5 106.5q0 71 41 100t111 29h196q0 65 -13.5 104.5t-48.5 57t-101 17.5h-172v48q46 6 89.5 10t101.5 4zM406 248h-190q-45 0 -66.5 -16.5t-21.5 -59.5
q0 -68 30 -93t102 -25q57 0 88.5 16.5t44.5 59t13 118.5z" />
    <glyph glyph-name="f" unicode="f" horiz-adv-x="368" 
d="M105 0v469h-82v51l82 14v61q0 85 32.5 129.5t120.5 44.5q35 0 59.5 -3t43.5 -7v-56h-89q-54 0 -71 -26.5t-17 -77.5v-65h166v-65h-166v-469h-79z" />
    <glyph glyph-name="uni1E1F" unicode="&#x1e1f;" horiz-adv-x="368" 
d="M105 0v469h-82v51l82 14v61q0 85 32.5 129.5t120.5 44.5q35 0 59.5 -3t43.5 -7v-56h-89q-54 0 -71 -26.5t-17 -77.5v-65h166v-65h-166v-469h-79zM241 870q-16 0 -16 16v78q0 16 16 16h37q15 0 15 -16v-78q0 -16 -15 -16h-37z" />
    <glyph glyph-name="g" unicode="g" horiz-adv-x="576" 
d="M207 -245q-78 0 -127 33t-49 99v24q0 46 25.5 76.5t62.5 46.5q-52 25 -52 79q0 40 24 63t66 32q-56 23 -75.5 66.5t-19.5 88.5q0 93 55.5 132.5t150.5 39.5h285v-45l-120 -10q13 -9 29 -23.5t27.5 -41t11.5 -72.5q0 -41 -17.5 -78.5t-58.5 -60.5t-113 -23h-85
q-42 0 -66.5 -12.5t-24.5 -44.5q0 -24 18 -34t38 -10h177q184 0 184 -147v-22q0 -73 -50 -114.5t-147 -41.5h-149zM244 242h60q50 0 77 15.5t37.5 40.5t10.5 54q0 67 -32.5 94t-83.5 27h-57q-57 0 -89.5 -25.5t-32.5 -88.5q0 -62 29.5 -89.5t80.5 -27.5zM225 -187h124
q60 0 94.5 23t34.5 72v20q0 41 -25.5 65.5t-93.5 24.5h-138q-30 0 -56 -9.5t-42.5 -30.5t-16.5 -54v-22q0 -48 32 -68.5t87 -20.5z" />
    <glyph glyph-name="gbreve" unicode="&#x11f;" horiz-adv-x="576" 
d="M207 -245q-78 0 -127 33t-49 99v24q0 46 25.5 76.5t62.5 46.5q-52 25 -52 79q0 40 24 63t66 32q-56 23 -75.5 66.5t-19.5 88.5q0 93 55.5 132.5t150.5 39.5h285v-45l-120 -10q13 -9 29 -23.5t27.5 -41t11.5 -72.5q0 -41 -17.5 -78.5t-58.5 -60.5t-113 -23h-85
q-42 0 -66.5 -12.5t-24.5 -44.5q0 -24 18 -34t38 -10h177q184 0 184 -147v-22q0 -73 -50 -114.5t-147 -41.5h-149zM244 242h60q50 0 77 15.5t37.5 40.5t10.5 54q0 67 -32.5 94t-83.5 27h-57q-57 0 -89.5 -25.5t-32.5 -88.5q0 -62 29.5 -89.5t80.5 -27.5zM225 -187h124
q60 0 94.5 23t34.5 72v20q0 41 -25.5 65.5t-93.5 24.5h-138q-30 0 -56 -9.5t-42.5 -30.5t-16.5 -54v-22q0 -48 32 -68.5t87 -20.5zM282 629q-36 0 -65.5 13.5t-47.5 44.5t-18 83h39q0 -57 27.5 -80.5t64.5 -22.5q41 0 67 22.5t26 80.5h39q0 -53 -18 -84t-48 -44t-66 -13z
" />
    <glyph glyph-name="gcaron" unicode="&#x1e7;" horiz-adv-x="576" 
d="M207 -245q-78 0 -127 33t-49 99v24q0 46 25.5 76.5t62.5 46.5q-52 25 -52 79q0 40 24 63t66 32q-56 23 -75.5 66.5t-19.5 88.5q0 93 55.5 132.5t150.5 39.5h285v-45l-120 -10q13 -9 29 -23.5t27.5 -41t11.5 -72.5q0 -41 -17.5 -78.5t-58.5 -60.5t-113 -23h-85
q-42 0 -66.5 -12.5t-24.5 -44.5q0 -24 18 -34t38 -10h177q184 0 184 -147v-22q0 -73 -50 -114.5t-147 -41.5h-149zM244 242h60q50 0 77 15.5t37.5 40.5t10.5 54q0 67 -32.5 94t-83.5 27h-57q-57 0 -89.5 -25.5t-32.5 -88.5q0 -62 29.5 -89.5t80.5 -27.5zM225 -187h124
q60 0 94.5 23t34.5 72v20q0 41 -25.5 65.5t-93.5 24.5h-138q-30 0 -56 -9.5t-42.5 -30.5t-16.5 -54v-22q0 -48 32 -68.5t87 -20.5zM260 631l-111 135h48l92 -97l100 97h48l-121 -135h-56z" />
    <glyph glyph-name="gcircumflex" unicode="&#x11d;" horiz-adv-x="576" 
d="M207 -245q-78 0 -127 33t-49 99v24q0 46 25.5 76.5t62.5 46.5q-52 25 -52 79q0 40 24 63t66 32q-56 23 -75.5 66.5t-19.5 88.5q0 93 55.5 132.5t150.5 39.5h285v-45l-120 -10q13 -9 29 -23.5t27.5 -41t11.5 -72.5q0 -41 -17.5 -78.5t-58.5 -60.5t-113 -23h-85
q-42 0 -66.5 -12.5t-24.5 -44.5q0 -24 18 -34t38 -10h177q184 0 184 -147v-22q0 -73 -50 -114.5t-147 -41.5h-149zM244 242h60q50 0 77 15.5t37.5 40.5t10.5 54q0 67 -32.5 94t-83.5 27h-57q-57 0 -89.5 -25.5t-32.5 -88.5q0 -62 29.5 -89.5t80.5 -27.5zM225 -187h124
q60 0 94.5 23t34.5 72v20q0 41 -25.5 65.5t-93.5 24.5h-138q-30 0 -56 -9.5t-42.5 -30.5t-16.5 -54v-22q0 -48 32 -68.5t87 -20.5zM142 631l122 135h56l110 -135h-48l-91 97l-100 -97h-49z" />
    <glyph glyph-name="uni0123" unicode="&#x123;" horiz-adv-x="576" 
d="M207 -245q-78 0 -127 33t-49 99v24q0 46 25.5 76.5t62.5 46.5q-52 25 -52 79q0 40 24 63t66 32q-56 23 -75.5 66.5t-19.5 88.5q0 93 55.5 132.5t150.5 39.5h285v-45l-120 -10q13 -9 29 -23.5t27.5 -41t11.5 -72.5q0 -41 -17.5 -78.5t-58.5 -60.5t-113 -23h-85
q-42 0 -66.5 -12.5t-24.5 -44.5q0 -24 18 -34t38 -10h177q184 0 184 -147v-22q0 -73 -50 -114.5t-147 -41.5h-149zM244 242h60q50 0 77 15.5t37.5 40.5t10.5 54q0 67 -32.5 94t-83.5 27h-57q-57 0 -89.5 -25.5t-32.5 -88.5q0 -62 29.5 -89.5t80.5 -27.5zM225 -187h124
q60 0 94.5 23t34.5 72v20q0 41 -25.5 65.5t-93.5 24.5h-138q-30 0 -56 -9.5t-42.5 -30.5t-16.5 -54v-22q0 -48 32 -68.5t87 -20.5zM236 614q0 76 21.5 107.5t87.5 31.5h38v-32l-30 -5q-23 -3 -38 -10.5t-22.5 -28t-7.5 -63.5h-49z" />
    <glyph glyph-name="gdotaccent" unicode="&#x121;" horiz-adv-x="576" 
d="M207 -245q-78 0 -127 33t-49 99v24q0 46 25.5 76.5t62.5 46.5q-52 25 -52 79q0 40 24 63t66 32q-56 23 -75.5 66.5t-19.5 88.5q0 93 55.5 132.5t150.5 39.5h285v-45l-120 -10q13 -9 29 -23.5t27.5 -41t11.5 -72.5q0 -41 -17.5 -78.5t-58.5 -60.5t-113 -23h-85
q-42 0 -66.5 -12.5t-24.5 -44.5q0 -24 18 -34t38 -10h177q184 0 184 -147v-22q0 -73 -50 -114.5t-147 -41.5h-149zM244 242h60q50 0 77 15.5t37.5 40.5t10.5 54q0 67 -32.5 94t-83.5 27h-57q-57 0 -89.5 -25.5t-32.5 -88.5q0 -62 29.5 -89.5t80.5 -27.5zM225 -187h124
q60 0 94.5 23t34.5 72v20q0 41 -25.5 65.5t-93.5 24.5h-138q-30 0 -56 -9.5t-42.5 -30.5t-16.5 -54v-22q0 -48 32 -68.5t87 -20.5zM270 660q-16 0 -16 16v78q0 16 16 16h37q15 0 15 -16v-78q0 -16 -15 -16h-37z" />
    <glyph glyph-name="uni1E21" unicode="&#x1e21;" horiz-adv-x="576" 
d="M207 -245q-78 0 -127 33t-49 99v24q0 46 25.5 76.5t62.5 46.5q-52 25 -52 79q0 40 24 63t66 32q-56 23 -75.5 66.5t-19.5 88.5q0 93 55.5 132.5t150.5 39.5h285v-45l-120 -10q13 -9 29 -23.5t27.5 -41t11.5 -72.5q0 -41 -17.5 -78.5t-58.5 -60.5t-113 -23h-85
q-42 0 -66.5 -12.5t-24.5 -44.5q0 -24 18 -34t38 -10h177q184 0 184 -147v-22q0 -73 -50 -114.5t-147 -41.5h-149zM244 242h60q50 0 77 15.5t37.5 40.5t10.5 54q0 67 -32.5 94t-83.5 27h-57q-57 0 -89.5 -25.5t-32.5 -88.5q0 -62 29.5 -89.5t80.5 -27.5zM225 -187h124
q60 0 94.5 23t34.5 72v20q0 41 -25.5 65.5t-93.5 24.5h-138q-30 0 -56 -9.5t-42.5 -30.5t-16.5 -54v-22q0 -48 32 -68.5t87 -20.5zM154 672v47h265v-47h-265z" />
    <glyph glyph-name="h" unicode="h" horiz-adv-x="588" 
d="M76 0v763h79v-288q37 26 88.5 47t107.5 21t92.5 -24.5t54 -65t17.5 -89.5v-364h-79v355q0 50 -30 83t-81 33q-52 0 -90 -14t-80 -38v-419h-79z" />
    <glyph glyph-name="hbar" unicode="&#x127;" horiz-adv-x="588" 
d="M76 0v629h-72v35h72v99h79v-99h136v-35h-136v-154q37 26 88.5 47t107.5 21t92.5 -24.5t54 -65t17.5 -89.5v-364h-79v355q0 50 -30 83t-81 33q-52 0 -90 -14t-80 -38v-419h-79z" />
    <glyph glyph-name="uni1E2B" unicode="&#x1e2b;" horiz-adv-x="588" 
d="M76 0v763h79v-288q37 26 88.5 47t107.5 21t92.5 -24.5t54 -65t17.5 -89.5v-364h-79v355q0 50 -30 83t-81 33q-52 0 -90 -14t-80 -38v-419h-79zM292 -221q-36 0 -65.5 13.5t-47.5 44.5t-18 83h39q0 -57 27.5 -80.5t64.5 -22.5q41 0 67 22.5t26 80.5h39q0 -53 -18 -84
t-48 -44t-66 -13z" />
    <glyph glyph-name="hcircumflex" unicode="&#x125;" horiz-adv-x="588" 
d="M76 0v763h79v-288q37 26 88.5 47t107.5 21t92.5 -24.5t54 -65t17.5 -89.5v-364h-79v355q0 50 -30 83t-81 33q-52 0 -90 -14t-80 -38v-419h-79zM16 811l122 135h56l110 -135h-48l-91 97l-100 -97h-49z" />
    <glyph glyph-name="uni1E25" unicode="&#x1e25;" horiz-adv-x="588" 
d="M76 0v763h79v-288q37 26 88.5 47t107.5 21t92.5 -24.5t54 -65t17.5 -89.5v-364h-79v355q0 50 -30 83t-81 33q-52 0 -90 -14t-80 -38v-419h-79zM273 -210q-16 0 -16 16v78q0 16 16 16h37q16 0 16 -16v-78q0 -16 -16 -16h-37z" />
    <glyph glyph-name="i" unicode="i" horiz-adv-x="231" 
d="M88 629q-16 0 -16 16v78q0 16 16 16h56q15 0 15 -16v-78q0 -16 -15 -16h-56zM76 0v534h79v-534h-79z" />
    <glyph glyph-name="dotlessi" unicode="&#x131;" horiz-adv-x="228" 
d="M76 0v534h79v-534h-79z" />
    <glyph glyph-name="iacute" unicode="&#xed;" horiz-adv-x="228" 
d="M76 0v534h79v-534h-79zM83 631l104 136h67l-125 -136h-46z" />
    <glyph glyph-name="ibreve" unicode="&#x12d;" horiz-adv-x="228" 
d="M76 0v534h79v-534h-79zM108 629q-36 0 -65.5 13.5t-47.5 44.5t-18 83h39q0 -57 27.5 -80.5t64.5 -22.5q41 0 67 22.5t26 80.5h39q0 -53 -18 -84t-48 -44t-66 -13z" />
    <glyph glyph-name="icircumflex" unicode="&#xee;" horiz-adv-x="228" 
d="M76 0v534h79v-534h-79zM-32 631l122 135h56l110 -135h-48l-91 97l-100 -97h-49z" />
    <glyph glyph-name="uni0209" unicode="&#x209;" horiz-adv-x="228" 
d="M76 0v534h79v-534h-79zM185 631l-125 136h68l104 -136h-47zM39 631l-125 136h68l104 -136h-47z" />
    <glyph glyph-name="idieresis" unicode="&#xef;" horiz-adv-x="228" 
d="M76 0v534h79v-534h-79zM193 653q-16 0 -16 16v78q0 16 16 16h36q16 0 16 -16v-78q0 -16 -16 -16h-36zM-2 653q-16 0 -16 16v78q0 16 16 16h36q16 0 16 -16v-78q0 -16 -16 -16h-36z" />
    <glyph glyph-name="uni1E2F" unicode="&#x1e2f;" horiz-adv-x="228" 
d="M76 0v534h79v-534h-79zM193 653q-16 0 -16 16v78q0 16 16 16h36q16 0 16 -16v-78q0 -16 -16 -16h-36zM-2 653q-16 0 -16 16v78q0 16 16 16h36q16 0 16 -16v-78q0 -16 -16 -16h-36zM80 797l104 136h67l-125 -136h-46z" />
    <glyph glyph-name="i.loclTRK" horiz-adv-x="228" 
d="M76 0v534h79v-534h-79zM96 660q-16 0 -16 16v78q0 16 16 16h37q15 0 15 -16v-78q0 -16 -15 -16h-37z" />
    <glyph glyph-name="uni1ECB" unicode="&#x1ecb;" horiz-adv-x="231" 
d="M88 629q-16 0 -16 16v78q0 16 16 16h56q15 0 15 -16v-78q0 -16 -15 -16h-56zM76 0v534h79v-534h-79zM93 -210q-16 0 -16 16v78q0 16 16 16h37q16 0 16 -16v-78q0 -16 -16 -16h-37z" />
    <glyph glyph-name="igrave" unicode="&#xec;" horiz-adv-x="228" 
d="M76 0v534h79v-534h-79zM111 631l-125 136h67l104 -136h-46z" />
    <glyph glyph-name="uni1EC9" unicode="&#x1ec9;" horiz-adv-x="228" 
d="M76 0v534h79v-534h-79zM97 603v37q32 9 44 25.5t12 33.5q0 20 -10.5 32t-37.5 12q-17 0 -35 -6v34q19 6 45 6q42 0 62 -21t20 -56q0 -31 -24 -56.5t-76 -40.5z" />
    <glyph glyph-name="uni020B" unicode="&#x20b;" horiz-adv-x="228" 
d="M76 0v534h79v-534h-79zM113 771q36 0 65.5 -13.5t47.5 -44.5t18 -83h-39q0 57 -27.5 80.5t-64.5 22.5q-41 0 -67 -22.5t-26 -80.5h-39q0 53 18 84t48 44t66 13z" />
    <glyph glyph-name="imacron" unicode="&#x12b;" horiz-adv-x="228" 
d="M76 0v534h79v-534h-79zM-20 672v47h265v-47h-265z" />
    <glyph glyph-name="iogonek" unicode="&#x12f;" horiz-adv-x="231" 
d="M88 629q-16 0 -16 16v78q0 16 16 16h56q15 0 15 -16v-78q0 -16 -15 -16h-56zM76 0v534h79v-534h-79zM155 -187q-51 0 -78 26t-27 63q0 29 18 54.5t57 43.5h30q-63 -34 -63 -81q0 -30 21.5 -47.5t61.5 -17.5h6v-38q-10 -3 -26 -3z" />
    <glyph glyph-name="itilde" unicode="&#x129;" horiz-adv-x="228" 
d="M76 0v534h79v-534h-79zM-49 647q2 60 31.5 83.5t64.5 23.5q32 0 57.5 -15.5t49 -30.5t48.5 -15q26 0 43 16t18 47h40q-1 -51 -26 -80t-70 -29q-31 0 -56.5 15.5t-50 31t-49.5 15.5q-24 0 -41.5 -15t-17.5 -47h-41z" />
    <glyph glyph-name="j" unicode="j" horiz-adv-x="231" 
d="M87 629q-16 0 -16 16v78q0 16 16 16h57q15 0 15 -16v-78q0 -16 -15 -16h-57zM76 -237v771h79v-517q0 -72 -6 -140t-14 -114h-59z" />
    <glyph glyph-name="uni0237" unicode="&#x237;" horiz-adv-x="231" 
d="M76 -237v771h79v-517q0 -72 -6 -140t-14 -114h-59z" />
    <glyph glyph-name="jcircumflex" unicode="&#x135;" horiz-adv-x="231" 
d="M76 -237v771h79v-517q0 -72 -6 -140t-14 -114h-59zM-32 631l122 135h56l110 -135h-48l-91 97l-100 -97h-49z" />
    <glyph glyph-name="k" unicode="k" horiz-adv-x="506" 
d="M76 0v763h79v-442h76l163 213h84l-188 -249l200 -285h-84l-178 250h-73v-250h-79z" />
    <glyph glyph-name="uni0137" unicode="&#x137;" horiz-adv-x="506" 
d="M76 0v763h79v-442h76l163 213h84l-188 -249l200 -285h-84l-178 250h-73v-250h-79zM174 -202v32l30 5q23 4 38 11.5t22.5 28t7.5 62.5h49q0 -75 -21.5 -107t-87.5 -32h-38z" />
    <glyph glyph-name="kgreenlandic" unicode="&#x138;" horiz-adv-x="506" 
d="M76 0v540h79v-223h74l163 217h86l-188 -254l200 -280h-85l-176 245h-74v-245h-79z" />
    <glyph glyph-name="l" unicode="l" horiz-adv-x="294" 
d="M216 -1q-68 0 -104 38t-36 134v592h79v-582q0 -47 9 -71.5t25.5 -34.5t40.5 -13l54 -6v-57h-68z" />
    <glyph glyph-name="lacute" unicode="&#x13a;" horiz-adv-x="294" 
d="M216 -1q-68 0 -104 38t-36 134v592h79v-582q0 -47 9 -71.5t25.5 -34.5t40.5 -13l54 -6v-57h-68zM83 865l104 136h67l-125 -136h-46z" />
    <glyph glyph-name="lcaron" unicode="&#x13e;" horiz-adv-x="294" 
d="M216 -1q-68 0 -104 38t-36 134v592h79v-582q0 -47 9 -71.5t25.5 -34.5t40.5 -13l54 -6v-57h-68zM228 582l-6 141v60h73v-60l-6 -141h-61z" />
    <glyph glyph-name="uni013C" unicode="&#x13c;" horiz-adv-x="294" 
d="M216 -1q-68 0 -104 38t-36 134v592h79v-582q0 -47 9 -71.5t25.5 -34.5t40.5 -13l54 -6v-57h-68zM83 -202v32l30 5q23 4 38 11.5t22.5 28t7.5 62.5h49q0 -75 -21.5 -107t-87.5 -32h-38z" />
    <glyph glyph-name="ldot" unicode="&#x140;" horiz-adv-x="322" 
d="M216 -1q-68 0 -104 38t-36 134v592h79v-582q0 -47 9 -71.5t25.5 -34.5t40.5 -13l54 -6v-57h-68zM255 339q-16 0 -16 15v47q0 16 16 16h44q17 0 17 -16v-47q0 -15 -17 -15h-44z" />
    <glyph glyph-name="uni1E37" unicode="&#x1e37;" horiz-adv-x="294" 
d="M216 -1q-68 0 -104 38t-36 134v592h79v-582q0 -47 9 -71.5t25.5 -34.5t40.5 -13l54 -6v-57h-68zM144 -210q-16 0 -16 16v78q0 16 16 16h37q16 0 16 -16v-78q0 -16 -16 -16h-37z" />
    <glyph glyph-name="uni1E3B" unicode="&#x1e3b;" horiz-adv-x="294" 
d="M216 -1q-68 0 -104 38t-36 134v592h79v-582q0 -47 9 -71.5t25.5 -34.5t40.5 -13l54 -6v-57h-68zM30 -188v47h265v-47h-265z" />
    <glyph glyph-name="lslash" unicode="&#x142;" horiz-adv-x="294" 
d="M216 -1q-68 0 -104 38t-36 134v212l-73 -27v47l73 27v333h79v-307l102 36v-47l-102 -36v-228q0 -47 9 -71.5t25.5 -34.5t40.5 -13l54 -6v-57h-68z" />
    <glyph glyph-name="m" unicode="m" horiz-adv-x="948" 
d="M76 0v534h62l17 -59q40 27 89.5 47.5t110.5 20.5q50 0 85 -22.5t54 -56.5q25 18 60.5 36t76 30.5t78.5 12.5q58 0 95 -24.5t54.5 -66t17.5 -92.5v-360h-79v354q0 51 -30 84t-83 33q-45 0 -92 -17t-87 -41q10 -31 10 -60v-353h-79v354q0 51 -29.5 84t-81.5 33t-90 -14
t-80 -38v-419h-79z" />
    <glyph glyph-name="uni1E41" unicode="&#x1e41;" horiz-adv-x="948" 
d="M76 0v534h62l17 -59q40 27 89.5 47.5t110.5 20.5q50 0 85 -22.5t54 -56.5q25 18 60.5 36t76 30.5t78.5 12.5q58 0 95 -24.5t54.5 -66t17.5 -92.5v-360h-79v354q0 51 -30 84t-83 33q-45 0 -92 -17t-87 -41q10 -31 10 -60v-353h-79v354q0 51 -29.5 84t-81.5 33t-90 -14
t-80 -38v-419h-79zM461 660q-16 0 -16 16v78q0 16 16 16h37q15 0 15 -16v-78q0 -16 -15 -16h-37z" />
    <glyph glyph-name="uni1E43" unicode="&#x1e43;" horiz-adv-x="948" 
d="M76 0v534h62l17 -59q40 27 89.5 47.5t110.5 20.5q50 0 85 -22.5t54 -56.5q25 18 60.5 36t76 30.5t78.5 12.5q58 0 95 -24.5t54.5 -66t17.5 -92.5v-360h-79v354q0 51 -30 84t-83 33q-45 0 -92 -17t-87 -41q10 -31 10 -60v-353h-79v354q0 51 -29.5 84t-81.5 33t-90 -14
t-80 -38v-419h-79zM452 -210q-16 0 -16 16v78q0 16 16 16h37q16 0 16 -16v-78q0 -16 -16 -16h-37z" />
    <glyph glyph-name="n" unicode="n" horiz-adv-x="588" 
d="M76 0v534h62l17 -59q37 26 88.5 47t106.5 21q59 0 95.5 -25t53 -66t16.5 -89v-363h-79v354q0 51 -29.5 84t-81.5 33t-90 -14t-80 -38v-419h-79z" />
    <glyph glyph-name="nacute" unicode="&#x144;" horiz-adv-x="588" 
d="M76 0v534h62l17 -59q37 26 88.5 47t106.5 21q59 0 95.5 -25t53 -66t16.5 -89v-363h-79v354q0 51 -29.5 84t-81.5 33t-90 -14t-80 -38v-419h-79zM261 631l104 136h67l-125 -136h-46z" />
    <glyph glyph-name="ncaron" unicode="&#x148;" horiz-adv-x="588" 
d="M76 0v534h62l17 -59q37 26 88.5 47t106.5 21q59 0 95.5 -25t53 -66t16.5 -89v-363h-79v354q0 51 -29.5 84t-81.5 33t-90 -14t-80 -38v-419h-79zM264 631l-111 135h48l92 -97l100 97h48l-121 -135h-56z" />
    <glyph glyph-name="uni0146" unicode="&#x146;" horiz-adv-x="588" 
d="M76 0v534h62l17 -59q37 26 88.5 47t106.5 21q59 0 95.5 -25t53 -66t16.5 -89v-363h-79v354q0 51 -29.5 84t-81.5 33t-90 -14t-80 -38v-419h-79zM211 -202v32l30 5q23 4 38 11.5t22.5 28t7.5 62.5h49q0 -75 -21.5 -107t-87.5 -32h-38z" />
    <glyph glyph-name="uni1E45" unicode="&#x1e45;" horiz-adv-x="588" 
d="M76 0v534h62l17 -59q37 26 88.5 47t106.5 21q59 0 95.5 -25t53 -66t16.5 -89v-363h-79v354q0 51 -29.5 84t-81.5 33t-90 -14t-80 -38v-419h-79zM271 -210q-16 0 -16 16v78q0 16 16 16h37q16 0 16 -16v-78q0 -16 -16 -16h-37z" />
    <glyph glyph-name="uni1E47" unicode="&#x1e47;" horiz-adv-x="588" 
d="M76 0v534h62l17 -59q37 26 88.5 47t106.5 21q59 0 95.5 -25t53 -66t16.5 -89v-363h-79v354q0 51 -29.5 84t-81.5 33t-90 -14t-80 -38v-419h-79zM271 -210q-16 0 -16 16v78q0 16 16 16h37q16 0 16 -16v-78q0 -16 -16 -16h-37z" />
    <glyph glyph-name="eng" unicode="&#x14b;" horiz-adv-x="588" 
d="M76 0v534h62l17 -59q37 26 88.5 47t106.5 21q59 0 95.5 -25t53 -66t16.5 -89v-364q0 -96 -37.5 -151.5t-91.5 -84.5h-64q49 37 81.5 91t32.5 143v357q0 51 -29.5 84t-81.5 33t-90 -14t-80 -38v-419h-79z" />
    <glyph glyph-name="uni1E49" unicode="&#x1e49;" horiz-adv-x="588" 
d="M76 0v534h62l17 -59q37 26 88.5 47t106.5 21q59 0 95.5 -25t53 -66t16.5 -89v-363h-79v354q0 51 -29.5 84t-81.5 33t-90 -14t-80 -38v-419h-79zM157 -188v47h265v-47h-265z" />
    <glyph glyph-name="ntilde" unicode="&#xf1;" horiz-adv-x="588" 
d="M76 0v534h62l17 -59q37 26 88.5 47t106.5 21q59 0 95.5 -25t53 -66t16.5 -89v-363h-79v354q0 51 -29.5 84t-81.5 33t-90 -14t-80 -38v-419h-79zM129 647q2 60 31.5 83.5t64.5 23.5q32 0 57.5 -15.5t49 -30.5t48.5 -15q26 0 43 16t18 47h40q-1 -51 -26 -80t-70 -29
q-31 0 -56.5 15.5t-50 31t-49.5 15.5q-24 0 -41.5 -15t-17.5 -47h-41z" />
    <glyph glyph-name="o" unicode="o" horiz-adv-x="577" 
d="M288 -6q-78 0 -129 22.5t-76.5 82t-25.5 169.5q0 84 14.5 137.5t43 83t72 41t101.5 11.5q77 0 128.5 -22t77.5 -81t26 -170q0 -112 -25.5 -171t-77 -81t-129.5 -22zM288 59q37 0 65.5 7t48 28t29 63t9.5 111t-9.5 110.5t-29 62.5t-48 28t-65.5 7q-38 0 -66 -7t-47 -28
t-29 -62.5t-10 -110.5t10 -111t29 -63t47 -28t66 -7z" />
    <glyph glyph-name="oacute" unicode="&#xf3;" horiz-adv-x="577" 
d="M288 -6q-78 0 -129 22.5t-76.5 82t-25.5 169.5q0 84 14.5 137.5t43 83t72 41t101.5 11.5q77 0 128.5 -22t77.5 -81t26 -170q0 -112 -25.5 -171t-77 -81t-129.5 -22zM288 59q37 0 65.5 7t48 28t29 63t9.5 111t-9.5 110.5t-29 62.5t-48 28t-65.5 7q-38 0 -66 -7t-47 -28
t-29 -62.5t-10 -110.5t10 -111t29 -63t47 -28t66 -7zM256 631l104 136h67l-125 -136h-46z" />
    <glyph glyph-name="obreve" unicode="&#x14f;" horiz-adv-x="577" 
d="M288 -6q-78 0 -129 22.5t-76.5 82t-25.5 169.5q0 84 14.5 137.5t43 83t72 41t101.5 11.5q77 0 128.5 -22t77.5 -81t26 -170q0 -112 -25.5 -171t-77 -81t-129.5 -22zM288 59q37 0 65.5 7t48 28t29 63t9.5 111t-9.5 110.5t-29 62.5t-48 28t-65.5 7q-38 0 -66 -7t-47 -28
t-29 -62.5t-10 -110.5t10 -111t29 -63t47 -28t66 -7zM281 629q-36 0 -65.5 13.5t-47.5 44.5t-18 83h39q0 -57 27.5 -80.5t64.5 -22.5q41 0 67 22.5t26 80.5h39q0 -53 -18 -84t-48 -44t-66 -13z" />
    <glyph glyph-name="ocircumflex" unicode="&#xf4;" horiz-adv-x="577" 
d="M288 -6q-78 0 -129 22.5t-76.5 82t-25.5 169.5q0 84 14.5 137.5t43 83t72 41t101.5 11.5q77 0 128.5 -22t77.5 -81t26 -170q0 -112 -25.5 -171t-77 -81t-129.5 -22zM288 59q37 0 65.5 7t48 28t29 63t9.5 111t-9.5 110.5t-29 62.5t-48 28t-65.5 7q-38 0 -66 -7t-47 -28
t-29 -62.5t-10 -110.5t10 -111t29 -63t47 -28t66 -7zM141 631l122 135h56l110 -135h-48l-91 97l-100 -97h-49z" />
    <glyph glyph-name="uni1ED1" unicode="&#x1ed1;" horiz-adv-x="577" 
d="M288 -6q-78 0 -129 22.5t-76.5 82t-25.5 169.5q0 84 14.5 137.5t43 83t72 41t101.5 11.5q77 0 128.5 -22t77.5 -81t26 -170q0 -112 -25.5 -171t-77 -81t-129.5 -22zM288 59q37 0 65.5 7t48 28t29 63t9.5 111t-9.5 110.5t-29 62.5t-48 28t-65.5 7q-38 0 -66 -7t-47 -28
t-29 -62.5t-10 -110.5t10 -111t29 -63t47 -28t66 -7zM459 837h68l-109 -129h-46zM262 729h57l110 -98h-48l-92 61l-100 -61h-48z" />
    <glyph glyph-name="uni1ED9" unicode="&#x1ed9;" horiz-adv-x="577" 
d="M288 -6q-78 0 -129 22.5t-76.5 82t-25.5 169.5q0 84 14.5 137.5t43 83t72 41t101.5 11.5q77 0 128.5 -22t77.5 -81t26 -170q0 -112 -25.5 -171t-77 -81t-129.5 -22zM288 59q37 0 65.5 7t48 28t29 63t9.5 111t-9.5 110.5t-29 62.5t-48 28t-65.5 7q-38 0 -66 -7t-47 -28
t-29 -62.5t-10 -110.5t10 -111t29 -63t47 -28t66 -7zM141 631l122 135h56l110 -135h-48l-91 97l-100 -97h-49zM266 -210q-16 0 -16 16v78q0 16 16 16h37q16 0 16 -16v-78q0 -16 -16 -16h-37z" />
    <glyph glyph-name="uni1ED3" unicode="&#x1ed3;" horiz-adv-x="577" 
d="M288 -6q-78 0 -129 22.5t-76.5 82t-25.5 169.5q0 84 14.5 137.5t43 83t72 41t101.5 11.5q77 0 128.5 -22t77.5 -81t26 -170q0 -112 -25.5 -171t-77 -81t-129.5 -22zM288 59q37 0 65.5 7t48 28t29 63t9.5 111t-9.5 110.5t-29 62.5t-48 28t-65.5 7q-38 0 -66 -7t-47 -28
t-29 -62.5t-10 -110.5t10 -111t29 -63t47 -28t66 -7zM49 837h68l87 -129h-46zM262 729h57l110 -98h-48l-92 61l-100 -61h-48z" />
    <glyph glyph-name="uni1ED5" unicode="&#x1ed5;" horiz-adv-x="577" 
d="M288 -6q-78 0 -129 22.5t-76.5 82t-25.5 169.5q0 84 14.5 137.5t43 83t72 41t101.5 11.5q77 0 128.5 -22t77.5 -81t26 -170q0 -112 -25.5 -171t-77 -81t-129.5 -22zM288 59q37 0 65.5 7t48 28t29 63t9.5 111t-9.5 110.5t-29 62.5t-48 28t-65.5 7q-38 0 -66 -7t-47 -28
t-29 -62.5t-10 -110.5t10 -111t29 -63t47 -28t66 -7zM395 683v36q28 9 39 23t11 28q0 17 -9.5 27t-32.5 10q-17 0 -35 -6v30q20 7 45 7q37 0 54.5 -17.5t17.5 -47.5q0 -29 -21.5 -53t-68.5 -37zM141 631l121 98h57l110 -98h-48l-92 61l-100 -61h-48z" />
    <glyph glyph-name="uni1ED7" unicode="&#x1ed7;" horiz-adv-x="577" 
d="M288 -6q-78 0 -129 22.5t-76.5 82t-25.5 169.5q0 84 14.5 137.5t43 83t72 41t101.5 11.5q77 0 128.5 -22t77.5 -81t26 -170q0 -112 -25.5 -171t-77 -81t-129.5 -22zM288 59q37 0 65.5 7t48 28t29 63t9.5 111t-9.5 110.5t-29 62.5t-48 28t-65.5 7q-38 0 -66 -7t-47 -28
t-29 -62.5t-10 -110.5t10 -111t29 -63t47 -28t66 -7zM126 776q2 49 27.5 66t54.5 17q28 0 52 -10.5t46 -21t45 -10.5q24 0 39 11t15 33h40q-4 -85 -83 -85q-27 0 -51.5 10.5t-48 21t-47.5 10.5q-19 0 -33.5 -10.5t-14.5 -31.5h-41zM319 729l110 -98h-48l-92 61l-100 -61h-48
l121 98h57z" />
    <glyph glyph-name="uni020D" unicode="&#x20d;" horiz-adv-x="577" 
d="M288 -6q-78 0 -129 22.5t-76.5 82t-25.5 169.5q0 84 14.5 137.5t43 83t72 41t101.5 11.5q77 0 128.5 -22t77.5 -81t26 -170q0 -112 -25.5 -171t-77 -81t-129.5 -22zM288 59q37 0 65.5 7t48 28t29 63t9.5 111t-9.5 110.5t-29 62.5t-48 28t-65.5 7q-38 0 -66 -7t-47 -28
t-29 -62.5t-10 -110.5t10 -111t29 -63t47 -28t66 -7zM357 631l-125 136h68l104 -136h-47zM211 631l-125 136h68l104 -136h-47z" />
    <glyph glyph-name="odieresis" unicode="&#xf6;" horiz-adv-x="577" 
d="M288 -6q-78 0 -129 22.5t-76.5 82t-25.5 169.5q0 84 14.5 137.5t43 83t72 41t101.5 11.5q77 0 128.5 -22t77.5 -81t26 -170q0 -112 -25.5 -171t-77 -81t-129.5 -22zM288 59q37 0 65.5 7t48 28t29 63t9.5 111t-9.5 110.5t-29 62.5t-48 28t-65.5 7q-38 0 -66 -7t-47 -28
t-29 -62.5t-10 -110.5t10 -111t29 -63t47 -28t66 -7zM366 653q-16 0 -16 16v78q0 16 16 16h36q16 0 16 -16v-78q0 -16 -16 -16h-36zM171 653q-16 0 -16 16v78q0 16 16 16h36q16 0 16 -16v-78q0 -16 -16 -16h-36z" />
    <glyph glyph-name="uni022B" unicode="&#x22b;" horiz-adv-x="577" 
d="M288 -6q-78 0 -129 22.5t-76.5 82t-25.5 169.5q0 84 14.5 137.5t43 83t72 41t101.5 11.5q77 0 128.5 -22t77.5 -81t26 -170q0 -112 -25.5 -171t-77 -81t-129.5 -22zM288 59q37 0 65.5 7t48 28t29 63t9.5 111t-9.5 110.5t-29 62.5t-48 28t-65.5 7q-38 0 -66 -7t-47 -28
t-29 -62.5t-10 -110.5t10 -111t29 -63t47 -28t66 -7zM366 653q-16 0 -16 16v78q0 16 16 16h36q16 0 16 -16v-78q0 -16 -16 -16h-36zM171 653q-16 0 -16 16v78q0 16 16 16h36q16 0 16 -16v-78q0 -16 -16 -16h-36zM153 838v47h265v-47h-265z" />
    <glyph glyph-name="uni0231" unicode="&#x231;" horiz-adv-x="577" 
d="M288 -6q-78 0 -129 22.5t-76.5 82t-25.5 169.5q0 84 14.5 137.5t43 83t72 41t101.5 11.5q77 0 128.5 -22t77.5 -81t26 -170q0 -112 -25.5 -171t-77 -81t-129.5 -22zM288 59q37 0 65.5 7t48 28t29 63t9.5 111t-9.5 110.5t-29 62.5t-48 28t-65.5 7q-38 0 -66 -7t-47 -28
t-29 -62.5t-10 -110.5t10 -111t29 -63t47 -28t66 -7zM269 660q-16 0 -16 16v78q0 16 16 16h37q15 0 15 -16v-78q0 -16 -15 -16h-37zM153 832v47h265v-47h-265z" />
    <glyph glyph-name="uni1ECD" unicode="&#x1ecd;" horiz-adv-x="577" 
d="M288 -6q-78 0 -129 22.5t-76.5 82t-25.5 169.5q0 84 14.5 137.5t43 83t72 41t101.5 11.5q77 0 128.5 -22t77.5 -81t26 -170q0 -112 -25.5 -171t-77 -81t-129.5 -22zM288 59q37 0 65.5 7t48 28t29 63t9.5 111t-9.5 110.5t-29 62.5t-48 28t-65.5 7q-38 0 -66 -7t-47 -28
t-29 -62.5t-10 -110.5t10 -111t29 -63t47 -28t66 -7zM266 -210q-16 0 -16 16v78q0 16 16 16h37q16 0 16 -16v-78q0 -16 -16 -16h-37z" />
    <glyph glyph-name="ograve" unicode="&#xf2;" horiz-adv-x="577" 
d="M288 -6q-78 0 -129 22.5t-76.5 82t-25.5 169.5q0 84 14.5 137.5t43 83t72 41t101.5 11.5q77 0 128.5 -22t77.5 -81t26 -170q0 -112 -25.5 -171t-77 -81t-129.5 -22zM288 59q37 0 65.5 7t48 28t29 63t9.5 111t-9.5 110.5t-29 62.5t-48 28t-65.5 7q-38 0 -66 -7t-47 -28
t-29 -62.5t-10 -110.5t10 -111t29 -63t47 -28t66 -7zM284 631l-125 136h67l104 -136h-46z" />
    <glyph glyph-name="uni1ECF" unicode="&#x1ecf;" horiz-adv-x="577" 
d="M288 -6q-78 0 -129 22.5t-76.5 82t-25.5 169.5q0 84 14.5 137.5t43 83t72 41t101.5 11.5q77 0 128.5 -22t77.5 -81t26 -170q0 -112 -25.5 -171t-77 -81t-129.5 -22zM288 59q37 0 65.5 7t48 28t29 63t9.5 111t-9.5 110.5t-29 62.5t-48 28t-65.5 7q-38 0 -66 -7t-47 -28
t-29 -62.5t-10 -110.5t10 -111t29 -63t47 -28t66 -7zM270 603v37q32 9 44 25.5t12 33.5q0 20 -10.5 32t-37.5 12q-17 0 -35 -6v34q19 6 45 6q42 0 62 -21t20 -56q0 -31 -24 -56.5t-76 -40.5z" />
    <glyph glyph-name="ohorn" unicode="&#x1a1;" horiz-adv-x="577" 
d="M288 -6q-78 0 -129 22.5t-76.5 82t-25.5 169.5q0 84 14.5 137.5t43 83t72 41t101.5 11.5q77 0 128.5 -22t77.5 -81t26 -170q0 -112 -25.5 -171t-77 -81t-129.5 -22zM288 59q37 0 65.5 7t48 28t29 63t9.5 111t-9.5 110.5t-29 62.5t-48 28t-65.5 7q-38 0 -66 -7t-47 -28
t-29 -62.5t-10 -110.5t10 -111t29 -63t47 -28t66 -7zM322 489v45h93q35 0 57 24.5t22 88.5h58q0 -58 -17.5 -93t-45.5 -50t-62 -15h-105z" />
    <glyph glyph-name="uni1EDB" unicode="&#x1edb;" horiz-adv-x="577" 
d="M288 -6q-78 0 -129 22.5t-76.5 82t-25.5 169.5q0 84 14.5 137.5t43 83t72 41t101.5 11.5q77 0 128.5 -22t77.5 -81t26 -170q0 -112 -25.5 -171t-77 -81t-129.5 -22zM288 59q37 0 65.5 7t48 28t29 63t9.5 111t-9.5 110.5t-29 62.5t-48 28t-65.5 7q-38 0 -66 -7t-47 -28
t-29 -62.5t-10 -110.5t10 -111t29 -63t47 -28t66 -7zM322 489v45h93q35 0 57 24.5t22 88.5h58q0 -58 -17.5 -93t-45.5 -50t-62 -15h-105zM263 631l104 136h67l-125 -136h-46z" />
    <glyph glyph-name="uni1EE3" unicode="&#x1ee3;" horiz-adv-x="577" 
d="M288 -6q-78 0 -129 22.5t-76.5 82t-25.5 169.5q0 84 14.5 137.5t43 83t72 41t101.5 11.5q77 0 128.5 -22t77.5 -81t26 -170q0 -112 -25.5 -171t-77 -81t-129.5 -22zM288 59q37 0 65.5 7t48 28t29 63t9.5 111t-9.5 110.5t-29 62.5t-48 28t-65.5 7q-38 0 -66 -7t-47 -28
t-29 -62.5t-10 -110.5t10 -111t29 -63t47 -28t66 -7zM322 489v45h93q35 0 57 24.5t22 88.5h58q0 -58 -17.5 -93t-45.5 -50t-62 -15h-105zM276 -210q-16 0 -16 16v78q0 16 16 16h37q16 0 16 -16v-78q0 -16 -16 -16h-37z" />
    <glyph glyph-name="uni1EDD" unicode="&#x1edd;" horiz-adv-x="577" 
d="M288 -6q-78 0 -129 22.5t-76.5 82t-25.5 169.5q0 84 14.5 137.5t43 83t72 41t101.5 11.5q77 0 128.5 -22t77.5 -81t26 -170q0 -112 -25.5 -171t-77 -81t-129.5 -22zM288 59q37 0 65.5 7t48 28t29 63t9.5 111t-9.5 110.5t-29 62.5t-48 28t-65.5 7q-38 0 -66 -7t-47 -28
t-29 -62.5t-10 -110.5t10 -111t29 -63t47 -28t66 -7zM322 489v45h93q35 0 57 24.5t22 88.5h58q0 -58 -17.5 -93t-45.5 -50t-62 -15h-105zM277 631l-125 136h67l104 -136h-46z" />
    <glyph glyph-name="uni1EDF" unicode="&#x1edf;" horiz-adv-x="577" 
d="M288 -6q-78 0 -129 22.5t-76.5 82t-25.5 169.5q0 84 14.5 137.5t43 83t72 41t101.5 11.5q77 0 128.5 -22t77.5 -81t26 -170q0 -112 -25.5 -171t-77 -81t-129.5 -22zM288 59q37 0 65.5 7t48 28t29 63t9.5 111t-9.5 110.5t-29 62.5t-48 28t-65.5 7q-38 0 -66 -7t-47 -28
t-29 -62.5t-10 -110.5t10 -111t29 -63t47 -28t66 -7zM322 489v45h93q35 0 57 24.5t22 88.5h58q0 -58 -17.5 -93t-45.5 -50t-62 -15h-105zM272 603v37q32 9 44 25.5t12 33.5q0 20 -10.5 32t-37.5 12q-17 0 -35 -6v34q19 6 45 6q42 0 62 -21t20 -56q0 -31 -24 -56.5t-76 -40.5
z" />
    <glyph glyph-name="uni1EE1" unicode="&#x1ee1;" horiz-adv-x="577" 
d="M288 -6q-78 0 -129 22.5t-76.5 82t-25.5 169.5q0 84 14.5 137.5t43 83t72 41t101.5 11.5q77 0 128.5 -22t77.5 -81t26 -170q0 -112 -25.5 -171t-77 -81t-129.5 -22zM288 59q37 0 65.5 7t48 28t29 63t9.5 111t-9.5 110.5t-29 62.5t-48 28t-65.5 7q-38 0 -66 -7t-47 -28
t-29 -62.5t-10 -110.5t10 -111t29 -63t47 -28t66 -7zM322 489v45h93q35 0 57 24.5t22 88.5h58q0 -58 -17.5 -93t-45.5 -50t-62 -15h-105zM106 647q2 60 31.5 83.5t64.5 23.5q32 0 57.5 -15.5t49 -30.5t48.5 -15q26 0 43 16t18 47h40q-1 -51 -26 -80t-70 -29
q-31 0 -56.5 15.5t-50 31t-49.5 15.5q-24 0 -41.5 -15t-17.5 -47h-41z" />
    <glyph glyph-name="ohungarumlaut" unicode="&#x151;" horiz-adv-x="577" 
d="M288 -6q-78 0 -129 22.5t-76.5 82t-25.5 169.5q0 84 14.5 137.5t43 83t72 41t101.5 11.5q77 0 128.5 -22t77.5 -81t26 -170q0 -112 -25.5 -171t-77 -81t-129.5 -22zM288 59q37 0 65.5 7t48 28t29 63t9.5 111t-9.5 110.5t-29 62.5t-48 28t-65.5 7q-38 0 -66 -7t-47 -28
t-29 -62.5t-10 -110.5t10 -111t29 -63t47 -28t66 -7zM319 631l100 136h65l-119 -136h-46zM169 631l100 136h65l-119 -136h-46z" />
    <glyph glyph-name="uni020F" unicode="&#x20f;" horiz-adv-x="577" 
d="M288 -6q-78 0 -129 22.5t-76.5 82t-25.5 169.5q0 84 14.5 137.5t43 83t72 41t101.5 11.5q77 0 128.5 -22t77.5 -81t26 -170q0 -112 -25.5 -171t-77 -81t-129.5 -22zM288 59q37 0 65.5 7t48 28t29 63t9.5 111t-9.5 110.5t-29 62.5t-48 28t-65.5 7q-38 0 -66 -7t-47 -28
t-29 -62.5t-10 -110.5t10 -111t29 -63t47 -28t66 -7zM286 771q36 0 65.5 -13.5t47.5 -44.5t18 -83h-39q0 57 -27.5 80.5t-64.5 22.5q-41 0 -67 -22.5t-26 -80.5h-39q0 53 18 84t48 44t66 13z" />
    <glyph glyph-name="omacron" unicode="&#x14d;" horiz-adv-x="577" 
d="M288 -6q-78 0 -129 22.5t-76.5 82t-25.5 169.5q0 84 14.5 137.5t43 83t72 41t101.5 11.5q77 0 128.5 -22t77.5 -81t26 -170q0 -112 -25.5 -171t-77 -81t-129.5 -22zM288 59q37 0 65.5 7t48 28t29 63t9.5 111t-9.5 110.5t-29 62.5t-48 28t-65.5 7q-38 0 -66 -7t-47 -28
t-29 -62.5t-10 -110.5t10 -111t29 -63t47 -28t66 -7zM153 672v47h265v-47h-265z" />
    <glyph glyph-name="uni1E53" unicode="&#x1e53;" horiz-adv-x="577" 
d="M288 -6q-78 0 -129 22.5t-76.5 82t-25.5 169.5q0 84 14.5 137.5t43 83t72 41t101.5 11.5q77 0 128.5 -22t77.5 -81t26 -170q0 -112 -25.5 -171t-77 -81t-129.5 -22zM288 59q37 0 65.5 7t48 28t29 63t9.5 111t-9.5 110.5t-29 62.5t-48 28t-65.5 7q-38 0 -66 -7t-47 -28
t-29 -62.5t-10 -110.5t10 -111t29 -63t47 -28t66 -7zM153 672v47h265v-47h-265zM252 758l104 136h67l-125 -136h-46z" />
    <glyph glyph-name="uni1E51" unicode="&#x1e51;" horiz-adv-x="577" 
d="M288 -6q-78 0 -129 22.5t-76.5 82t-25.5 169.5q0 84 14.5 137.5t43 83t72 41t101.5 11.5q77 0 128.5 -22t77.5 -81t26 -170q0 -112 -25.5 -171t-77 -81t-129.5 -22zM288 59q37 0 65.5 7t48 28t29 63t9.5 111t-9.5 110.5t-29 62.5t-48 28t-65.5 7q-38 0 -66 -7t-47 -28
t-29 -62.5t-10 -110.5t10 -111t29 -63t47 -28t66 -7zM153 672v47h265v-47h-265zM277 758l-125 136h67l104 -136h-46z" />
    <glyph glyph-name="uni01EB" unicode="&#x1eb;" horiz-adv-x="577" 
d="M288 -6q-78 0 -129 22.5t-76.5 82t-25.5 169.5q0 84 14.5 137.5t43 83t72 41t101.5 11.5q77 0 128.5 -22t77.5 -81t26 -170q0 -112 -25.5 -171t-77 -81t-129.5 -22zM288 59q37 0 65.5 7t48 28t29 63t9.5 111t-9.5 110.5t-29 62.5t-48 28t-65.5 7q-38 0 -66 -7t-47 -28
t-29 -62.5t-10 -110.5t10 -111t29 -63t47 -28t66 -7zM340 -187q-51 0 -78 26t-27 63q0 29 18 54.5t57 43.5h30q-63 -34 -63 -81q0 -30 21.5 -47.5t61.5 -17.5h6v-38q-10 -3 -26 -3z" />
    <glyph glyph-name="oslash" unicode="&#xf8;" horiz-adv-x="577" 
d="M51 0l51 63q-22 31 -33.5 81t-11.5 124q0 84 14.5 137.5t43 83t72 41t101.5 11.5q53 0 94.5 -9.5t70.5 -34.5l29 37h43l-50 -62q22 -31 33.5 -81t11.5 -123q0 -112 -25.5 -171t-77 -81t-129.5 -22q-53 0 -94 9.5t-69 34.5l-31 -38h-43zM136 268q0 -93 19 -140l250 309
q-20 24 -49 31.5t-68 7.5q-38 0 -66 -7t-47 -28t-29 -62.5t-10 -110.5zM288 59q37 0 65.5 7t48 28t29 63t9.5 111q0 91 -18 138l-250 -309q20 -24 48.5 -31t67.5 -7z" />
    <glyph glyph-name="oslashacute" unicode="&#x1ff;" horiz-adv-x="577" 
d="M51 0l51 63q-22 31 -33.5 81t-11.5 124q0 84 14.5 137.5t43 83t72 41t101.5 11.5q53 0 94.5 -9.5t70.5 -34.5l29 37h43l-50 -62q22 -31 33.5 -81t11.5 -123q0 -112 -25.5 -171t-77 -81t-129.5 -22q-53 0 -94 9.5t-69 34.5l-31 -38h-43zM136 268q0 -93 19 -140l250 309
q-20 24 -49 31.5t-68 7.5q-38 0 -66 -7t-47 -28t-29 -62.5t-10 -110.5zM288 59q37 0 65.5 7t48 28t29 63t9.5 111q0 91 -18 138l-250 -309q20 -24 48.5 -31t67.5 -7zM256 631l104 136h67l-125 -136h-46z" />
    <glyph glyph-name="otilde" unicode="&#xf5;" horiz-adv-x="577" 
d="M288 -6q-78 0 -129 22.5t-76.5 82t-25.5 169.5q0 84 14.5 137.5t43 83t72 41t101.5 11.5q77 0 128.5 -22t77.5 -81t26 -170q0 -112 -25.5 -171t-77 -81t-129.5 -22zM288 59q37 0 65.5 7t48 28t29 63t9.5 111t-9.5 110.5t-29 62.5t-48 28t-65.5 7q-38 0 -66 -7t-47 -28
t-29 -62.5t-10 -110.5t10 -111t29 -63t47 -28t66 -7zM123 647q2 60 31.5 83.5t64.5 23.5q32 0 57.5 -15.5t49 -30.5t48.5 -15q26 0 43 16t18 47h40q-1 -51 -26 -80t-70 -29q-31 0 -56.5 15.5t-50 31t-49.5 15.5q-24 0 -41.5 -15t-17.5 -47h-41z" />
    <glyph glyph-name="uni1E4D" unicode="&#x1e4d;" horiz-adv-x="577" 
d="M288 -6q-78 0 -129 22.5t-76.5 82t-25.5 169.5q0 84 14.5 137.5t43 83t72 41t101.5 11.5q77 0 128.5 -22t77.5 -81t26 -170q0 -112 -25.5 -171t-77 -81t-129.5 -22zM288 59q37 0 65.5 7t48 28t29 63t9.5 111t-9.5 110.5t-29 62.5t-48 28t-65.5 7q-38 0 -66 -7t-47 -28
t-29 -62.5t-10 -110.5t10 -111t29 -63t47 -28t66 -7zM123 647q2 60 31.5 83.5t64.5 23.5q32 0 57.5 -15.5t49 -30.5t48.5 -15q26 0 43 16t18 47h40q-1 -51 -26 -80t-70 -29q-31 0 -56.5 15.5t-50 31t-49.5 15.5q-24 0 -41.5 -15t-17.5 -47h-41zM252 784l104 136h67
l-125 -136h-46z" />
    <glyph glyph-name="uni1E4F" unicode="&#x1e4f;" horiz-adv-x="577" 
d="M288 -6q-78 0 -129 22.5t-76.5 82t-25.5 169.5q0 84 14.5 137.5t43 83t72 41t101.5 11.5q77 0 128.5 -22t77.5 -81t26 -170q0 -112 -25.5 -171t-77 -81t-129.5 -22zM288 59q37 0 65.5 7t48 28t29 63t9.5 111t-9.5 110.5t-29 62.5t-48 28t-65.5 7q-38 0 -66 -7t-47 -28
t-29 -62.5t-10 -110.5t10 -111t29 -63t47 -28t66 -7zM123 647q2 60 31.5 83.5t64.5 23.5q32 0 57.5 -15.5t49 -30.5t48.5 -15q26 0 43 16t18 47h40q-1 -51 -26 -80t-70 -29q-31 0 -56.5 15.5t-50 31t-49.5 15.5q-24 0 -41.5 -15t-17.5 -47h-41zM376 810q-16 0 -16 16v78
q0 16 16 16h36q16 0 16 -16v-78q0 -16 -16 -16h-36zM181 810q-16 0 -16 16v78q0 16 16 16h36q16 0 16 -16v-78q0 -16 -16 -16h-36z" />
    <glyph glyph-name="uni022D" unicode="&#x22d;" horiz-adv-x="577" 
d="M288 -6q-78 0 -129 22.5t-76.5 82t-25.5 169.5q0 84 14.5 137.5t43 83t72 41t101.5 11.5q77 0 128.5 -22t77.5 -81t26 -170q0 -112 -25.5 -171t-77 -81t-129.5 -22zM288 59q37 0 65.5 7t48 28t29 63t9.5 111t-9.5 110.5t-29 62.5t-48 28t-65.5 7q-38 0 -66 -7t-47 -28
t-29 -62.5t-10 -110.5t10 -111t29 -63t47 -28t66 -7zM153 838v47h265v-47h-265zM113 647q2 60 31.5 83.5t64.5 23.5q32 0 57.5 -15.5t49 -30.5t48.5 -15q26 0 43 16t18 47h40q-1 -51 -26 -80t-70 -29q-31 0 -56.5 15.5t-50 31t-49.5 15.5q-24 0 -41.5 -15t-17.5 -47h-41z
" />
    <glyph glyph-name="oe" unicode="&#x153;" horiz-adv-x="921" 
d="M286 -6q-77 0 -128 22.5t-76 82t-25 169.5q0 84 14.5 137.5t43 83t72 41t101.5 11.5q69 0 117 -19t73 -73q43 92 175 92q69 0 116 -14.5t71 -54t24 -115.5q0 -64 -40.5 -93t-103.5 -29h-205q1 -96 38.5 -137.5t121.5 -41.5h175v-48q-44 -6 -91 -10t-104 -4
q-64 0 -108 22.5t-68 73.5q-25 -56 -73.5 -76t-119.5 -20zM514 287h191q39 0 63 15t24 62q0 50 -15 75t-46 33.5t-78 8.5q-80 0 -109.5 -46t-29.5 -148zM288 56q37 0 65.5 7t48 28.5t29 63.5t9.5 113q0 70 -9.5 112.5t-29 63.5t-48 28t-65.5 7q-38 0 -66 -7t-47 -28
t-29 -63.5t-10 -112.5q0 -71 10 -113t29 -63.5t47 -28.5t66 -7z" />
    <glyph glyph-name="p" unicode="p" horiz-adv-x="578" 
d="M76 -237v771h64l15 -55q18 13 46.5 27.5t62 24.5t66.5 10q69 0 111 -38.5t61 -100.5t19 -134q0 -135 -46 -205t-145 -70q-44 0 -90 14t-85 37v-281h-79zM308 60q38 0 68 19t48 64.5t18 124.5q0 75 -19 120.5t-49.5 66t-65.5 20.5q-46 0 -84.5 -14.5t-68.5 -30.5v-327
q35 -19 74.5 -31t78.5 -12z" />
    <glyph glyph-name="uni1E57" unicode="&#x1e57;" horiz-adv-x="578" 
d="M76 -237v771h64l15 -55q18 13 46.5 27.5t62 24.5t66.5 10q69 0 111 -38.5t61 -100.5t19 -134q0 -135 -46 -205t-145 -70q-44 0 -90 14t-85 37v-281h-79zM308 60q38 0 68 19t48 64.5t18 124.5q0 75 -19 120.5t-49.5 66t-65.5 20.5q-46 0 -84.5 -14.5t-68.5 -30.5v-327
q35 -19 74.5 -31t78.5 -12zM257 660q-16 0 -16 16v78q0 16 16 16h37q15 0 15 -16v-78q0 -16 -15 -16h-37z" />
    <glyph glyph-name="thorn" unicode="&#xfe;" horiz-adv-x="578" 
d="M76 -237v1000h79v-284q18 13 46.5 27.5t62 24.5t66.5 10q68 0 110 -38.5t61.5 -100.5t19.5 -134q0 -135 -47 -205t-144 -70q-44 0 -90 14t-85 37v-281h-79zM308 60q38 0 68 19t48 63.5t18 122.5q0 76 -19 122.5t-49.5 67t-65.5 20.5q-46 0 -84.5 -14.5t-68.5 -30.5v-327
q35 -19 74.5 -31t78.5 -12z" />
    <glyph glyph-name="q" unicode="q" horiz-adv-x="575" 
d="M423 -237v291q-39 -26 -85.5 -43t-90.5 -17q-106 0 -148 68.5t-42 205.5q0 139 48 206t152 67q71 0 136 -4.5t109 -9.5v-764h-79zM266 59q41 0 80.5 12t76.5 33v375h-148q-53 0 -83 -26t-43 -73t-13 -110q0 -114 30 -162.5t100 -48.5z" />
    <glyph glyph-name="r" unicode="r" horiz-adv-x="412" 
d="M76 0v534h60l19 -93q36 43 80.5 71t102.5 28q29 0 50 -5v-81q-13 2 -28 3.5t-30 1.5q-55 0 -94 -20.5t-81 -59.5v-379h-79z" />
    <glyph glyph-name="racute" unicode="&#x155;" horiz-adv-x="412" 
d="M76 0v534h60l19 -93q36 43 80.5 71t102.5 28q29 0 50 -5v-81q-13 2 -28 3.5t-30 1.5q-55 0 -94 -20.5t-81 -59.5v-379h-79zM178 631l104 136h67l-125 -136h-46z" />
    <glyph glyph-name="rcaron" unicode="&#x159;" horiz-adv-x="412" 
d="M76 0v534h60l19 -93q36 43 80.5 71t102.5 28q29 0 50 -5v-81q-13 2 -28 3.5t-30 1.5q-55 0 -94 -20.5t-81 -59.5v-379h-79zM181 631l-111 135h48l92 -97l100 97h48l-121 -135h-56z" />
    <glyph glyph-name="uni0157" unicode="&#x157;" horiz-adv-x="412" 
d="M76 0v534h60l19 -93q36 43 80.5 71t102.5 28q29 0 50 -5v-81q-13 2 -28 3.5t-30 1.5q-55 0 -94 -20.5t-81 -59.5v-379h-79zM33 -202v32l30 5q23 4 38 11.5t22.5 28t7.5 62.5h49q0 -75 -21.5 -107t-87.5 -32h-38z" />
    <glyph glyph-name="uni0211" unicode="&#x211;" horiz-adv-x="412" 
d="M76 0v534h60l19 -93q36 43 80.5 71t102.5 28q29 0 50 -5v-81q-13 2 -28 3.5t-30 1.5q-55 0 -94 -20.5t-81 -59.5v-379h-79zM279 631l-125 136h68l104 -136h-47zM133 631l-125 136h68l104 -136h-47z" />
    <glyph glyph-name="uni1E5B" unicode="&#x1e5b;" horiz-adv-x="412" 
d="M76 0v534h60l19 -93q36 43 80.5 71t102.5 28q29 0 50 -5v-81q-13 2 -28 3.5t-30 1.5q-55 0 -94 -20.5t-81 -59.5v-379h-79zM93 -210q-16 0 -16 16v78q0 16 16 16h37q16 0 16 -16v-78q0 -16 -16 -16h-37z" />
    <glyph glyph-name="uni0213" unicode="&#x213;" horiz-adv-x="412" 
d="M76 0v534h60l19 -93q36 43 80.5 71t102.5 28q29 0 50 -5v-81q-13 2 -28 3.5t-30 1.5q-55 0 -94 -20.5t-81 -59.5v-379h-79zM208 771q36 0 65.5 -13.5t47.5 -44.5t18 -83h-39q0 57 -27.5 80.5t-64.5 22.5q-41 0 -67 -22.5t-26 -80.5h-39q0 53 18 84t48 44t66 13z" />
    <glyph glyph-name="uni1E5F" unicode="&#x1e5f;" horiz-adv-x="412" 
d="M76 0v534h60l19 -93q36 43 80.5 71t102.5 28q29 0 50 -5v-81q-13 2 -28 3.5t-30 1.5q-55 0 -94 -20.5t-81 -59.5v-379h-79zM-21 -188v47h265v-47h-265z" />
    <glyph glyph-name="s" unicode="s" horiz-adv-x="500" 
d="M260 -6q-20 0 -49 1t-60 3t-57 4.5t-40 5.5v48h219q32 0 56.5 5t38 22t13.5 51v24q0 35 -23 55t-74 20h-75q-71 0 -115.5 28t-44.5 104v28q0 75 44 110.5t144 35.5q28 0 64.5 -2t71.5 -5.5t57 -7.5v-48h-206q-51 0 -78.5 -17t-27.5 -66v-22q0 -47 28.5 -59.5t75.5 -12.5
h76q73 0 113 -34t40 -98v-37q0 -54 -24 -83.5t-67 -41t-100 -11.5z" />
    <glyph glyph-name="sacute" unicode="&#x15b;" horiz-adv-x="500" 
d="M260 -6q-20 0 -49 1t-60 3t-57 4.5t-40 5.5v48h219q32 0 56.5 5t38 22t13.5 51v24q0 35 -23 55t-74 20h-75q-71 0 -115.5 28t-44.5 104v28q0 75 44 110.5t144 35.5q28 0 64.5 -2t71.5 -5.5t57 -7.5v-48h-206q-51 0 -78.5 -17t-27.5 -66v-22q0 -47 28.5 -59.5t75.5 -12.5
h76q73 0 113 -34t40 -98v-37q0 -54 -24 -83.5t-67 -41t-100 -11.5zM208 631l104 136h67l-125 -136h-46z" />
    <glyph glyph-name="uni1E65" unicode="&#x1e65;" horiz-adv-x="500" 
d="M260 -6q-20 0 -49 1t-60 3t-57 4.5t-40 5.5v48h219q32 0 56.5 5t38 22t13.5 51v24q0 35 -23 55t-74 20h-75q-71 0 -115.5 28t-44.5 104v28q0 75 44 110.5t144 35.5q28 0 64.5 -2t71.5 -5.5t57 -7.5v-48h-206q-51 0 -78.5 -17t-27.5 -66v-22q0 -47 28.5 -59.5t75.5 -12.5
h76q73 0 113 -34t40 -98v-37q0 -54 -24 -83.5t-67 -41t-100 -11.5zM171 631l104 136h67l-125 -136h-46zM237 796q-16 0 -16 16v78q0 16 16 16h37q15 0 15 -16v-78q0 -16 -15 -16h-37z" />
    <glyph glyph-name="scaron" unicode="&#x161;" horiz-adv-x="500" 
d="M260 -6q-20 0 -49 1t-60 3t-57 4.5t-40 5.5v48h219q32 0 56.5 5t38 22t13.5 51v24q0 35 -23 55t-74 20h-75q-71 0 -115.5 28t-44.5 104v28q0 75 44 110.5t144 35.5q28 0 64.5 -2t71.5 -5.5t57 -7.5v-48h-206q-51 0 -78.5 -17t-27.5 -66v-22q0 -47 28.5 -59.5t75.5 -12.5
h76q73 0 113 -34t40 -98v-37q0 -54 -24 -83.5t-67 -41t-100 -11.5zM211 631l-111 135h48l92 -97l100 97h48l-121 -135h-56z" />
    <glyph glyph-name="uni1E67" unicode="&#x1e67;" horiz-adv-x="500" 
d="M260 -6q-20 0 -49 1t-60 3t-57 4.5t-40 5.5v48h219q32 0 56.5 5t38 22t13.5 51v24q0 35 -23 55t-74 20h-75q-71 0 -115.5 28t-44.5 104v28q0 75 44 110.5t144 35.5q28 0 64.5 -2t71.5 -5.5t57 -7.5v-48h-206q-51 0 -78.5 -17t-27.5 -66v-22q0 -47 28.5 -59.5t75.5 -12.5
h76q73 0 113 -34t40 -98v-37q0 -54 -24 -83.5t-67 -41t-100 -11.5zM211 631l-111 135h48l92 -97l100 97h48l-121 -135h-56zM221 800q-16 0 -16 16v78q0 16 16 16h37q15 0 15 -16v-78q0 -16 -15 -16h-37z" />
    <glyph glyph-name="scedilla" unicode="&#x15f;" horiz-adv-x="500" 
d="M260 -6q-20 0 -49 1t-60 3t-57 4.5t-40 5.5v48h219q32 0 56.5 5t38 22t13.5 51v24q0 35 -23 55t-74 20h-75q-71 0 -115.5 28t-44.5 104v28q0 75 44 110.5t144 35.5q28 0 64.5 -2t71.5 -5.5t57 -7.5v-48h-206q-51 0 -78.5 -17t-27.5 -66v-22q0 -47 28.5 -59.5t75.5 -12.5
h76q73 0 113 -34t40 -98v-37q0 -54 -24 -83.5t-67 -41t-100 -11.5zM182 -66l52 79h37l-45 -68q73 -4 73 -63q0 -34 -25 -52.5t-71 -18.5h-33v32l22 2q56 5 56 45q0 17 -13 29.5t-53 14.5z" />
    <glyph glyph-name="scircumflex" unicode="&#x15d;" horiz-adv-x="500" 
d="M260 -6q-20 0 -49 1t-60 3t-57 4.5t-40 5.5v48h219q32 0 56.5 5t38 22t13.5 51v24q0 35 -23 55t-74 20h-75q-71 0 -115.5 28t-44.5 104v28q0 75 44 110.5t144 35.5q28 0 64.5 -2t71.5 -5.5t57 -7.5v-48h-206q-51 0 -78.5 -17t-27.5 -66v-22q0 -47 28.5 -59.5t75.5 -12.5
h76q73 0 113 -34t40 -98v-37q0 -54 -24 -83.5t-67 -41t-100 -11.5zM93 631l122 135h56l110 -135h-48l-91 97l-100 -97h-49z" />
    <glyph glyph-name="uni0219" unicode="&#x219;" horiz-adv-x="500" 
d="M260 -6q-20 0 -49 1t-60 3t-57 4.5t-40 5.5v48h219q32 0 56.5 5t38 22t13.5 51v24q0 35 -23 55t-74 20h-75q-71 0 -115.5 28t-44.5 104v28q0 75 44 110.5t144 35.5q28 0 64.5 -2t71.5 -5.5t57 -7.5v-48h-206q-51 0 -78.5 -17t-27.5 -66v-22q0 -47 28.5 -59.5t75.5 -12.5
h76q73 0 113 -34t40 -98v-37q0 -54 -24 -83.5t-67 -41t-100 -11.5zM157 -202v32l30 5q23 4 38 11.5t22.5 28t7.5 62.5h49q0 -75 -21.5 -107t-87.5 -32h-38z" />
    <glyph glyph-name="uni1E61" unicode="&#x1e61;" horiz-adv-x="500" 
d="M260 -6q-20 0 -49 1t-60 3t-57 4.5t-40 5.5v48h219q32 0 56.5 5t38 22t13.5 51v24q0 35 -23 55t-74 20h-75q-71 0 -115.5 28t-44.5 104v28q0 75 44 110.5t144 35.5q28 0 64.5 -2t71.5 -5.5t57 -7.5v-48h-206q-51 0 -78.5 -17t-27.5 -66v-22q0 -47 28.5 -59.5t75.5 -12.5
h76q73 0 113 -34t40 -98v-37q0 -54 -24 -83.5t-67 -41t-100 -11.5zM221 660q-16 0 -16 16v78q0 16 16 16h37q15 0 15 -16v-78q0 -16 -15 -16h-37z" />
    <glyph glyph-name="uni1E63" unicode="&#x1e63;" horiz-adv-x="500" 
d="M260 -6q-20 0 -49 1t-60 3t-57 4.5t-40 5.5v48h219q32 0 56.5 5t38 22t13.5 51v24q0 35 -23 55t-74 20h-75q-71 0 -115.5 28t-44.5 104v28q0 75 44 110.5t144 35.5q28 0 64.5 -2t71.5 -5.5t57 -7.5v-48h-206q-51 0 -78.5 -17t-27.5 -66v-22q0 -47 28.5 -59.5t75.5 -12.5
h76q73 0 113 -34t40 -98v-37q0 -54 -24 -83.5t-67 -41t-100 -11.5zM218 -210q-16 0 -16 16v78q0 16 16 16h37q16 0 16 -16v-78q0 -16 -16 -16h-37z" />
    <glyph glyph-name="uni1E69" unicode="&#x1e69;" horiz-adv-x="500" 
d="M260 -6q-20 0 -49 1t-60 3t-57 4.5t-40 5.5v48h219q32 0 56.5 5t38 22t13.5 51v24q0 35 -23 55t-74 20h-75q-71 0 -115.5 28t-44.5 104v28q0 75 44 110.5t144 35.5q28 0 64.5 -2t71.5 -5.5t57 -7.5v-48h-206q-51 0 -78.5 -17t-27.5 -66v-22q0 -47 28.5 -59.5t75.5 -12.5
h76q73 0 113 -34t40 -98v-37q0 -54 -24 -83.5t-67 -41t-100 -11.5zM218 -210q-16 0 -16 16v78q0 16 16 16h37q16 0 16 -16v-78q0 -16 -16 -16h-37zM221 660q-16 0 -16 16v78q0 16 16 16h37q15 0 15 -16v-78q0 -16 -15 -16h-37z" />
    <glyph glyph-name="germandbls" unicode="&#xdf;" horiz-adv-x="584" 
d="M392 -7q-48 0 -92.5 4.5t-69.5 10.5v52q26 -1 64.5 -2.5t80.5 -1.5q46 0 69.5 14t32 34t8.5 36v23q0 23 -14 37t-37 22.5t-48.5 17t-48.5 20t-37.5 31.5t-14.5 52q0 33 15.5 59t38 48.5t45 44t37.5 46t15 55.5q0 53 -36.5 79t-104.5 26q-73 0 -111.5 -40.5t-38.5 -119.5
v-541h-79v548q0 61 24 111t75 79t130 29t126.5 -22t68.5 -60t21 -84q0 -39 -15 -67.5t-37.5 -51t-44.5 -42t-37.5 -40t-15.5 -45.5q0 -27 20.5 -41t50 -24t59.5 -22.5t50 -35.5t20 -64v-29q0 -52 -24 -84t-62.5 -47t-82.5 -15z" />
    <glyph glyph-name="t" unicode="t" horiz-adv-x="367" 
d="M253 0q-77 0 -115 39.5t-36 133.5l3 296h-85v51l86 14l13 149h61v-149h154v-65h-154v-296q0 -46 13 -68.5t32 -30.5t36 -10l65 -6v-58h-73z" />
    <glyph glyph-name="tbar" unicode="&#x167;" horiz-adv-x="367" 
d="M253 0q-77 0 -115 39.5t-36 133.5l1 122h-83v34h83l2 140h-85v51l86 14l13 149h61v-149h154v-65h-154v-140h140v-34h-140v-122q0 -46 13 -68.5t32 -30.5t36 -10l65 -6v-58h-73z" />
    <glyph glyph-name="tcaron" unicode="&#x165;" horiz-adv-x="367" 
d="M253 0q-77 0 -115 39.5t-36 133.5l3 296h-85v51l86 14l13 149h61v-149h154v-65h-154v-296q0 -46 13 -68.5t32 -30.5t36 -10l65 -6v-58h-73zM253 582l-6 141v60h73v-60l-6 -141h-61z" />
    <glyph glyph-name="uni0163" unicode="&#x163;" horiz-adv-x="367" 
d="M253 0q-77 0 -115 39.5t-36 133.5l3 296h-85v51l86 14l13 149h61v-149h154v-65h-154v-296q0 -46 13 -68.5t32 -30.5t36 -10l65 -6v-58h-73zM135 -66l52 79h37l-45 -68q73 -4 73 -63q0 -34 -25 -52.5t-71 -18.5h-33v32l22 2q56 5 56 45q0 17 -13 29.5t-53 14.5z" />
    <glyph glyph-name="uni021B" unicode="&#x21b;" horiz-adv-x="367" 
d="M253 0q-77 0 -115 39.5t-36 133.5l3 296h-85v51l86 14l13 149h61v-149h154v-65h-154v-296q0 -46 13 -68.5t32 -30.5t36 -10l65 -6v-58h-73zM101 -202v32l30 5q23 4 38 11.5t22.5 28t7.5 62.5h49q0 -75 -21.5 -107t-87.5 -32h-38z" />
    <glyph glyph-name="uni1E97" unicode="&#x1e97;" horiz-adv-x="367" 
d="M253 0q-77 0 -115 39.5t-36 133.5l3 296h-85v51l86 14l13 149h61v-149h154v-65h-154v-296q0 -46 13 -68.5t32 -30.5t36 -10l65 -6v-58h-73zM239 740q-16 0 -16 16v78q0 16 16 16h36q16 0 16 -16v-78q0 -16 -16 -16h-36zM44 740q-16 0 -16 16v78q0 16 16 16h36
q16 0 16 -16v-78q0 -16 -16 -16h-36z" />
    <glyph glyph-name="uni1E6B" unicode="&#x1e6b;" horiz-adv-x="367" 
d="M253 0q-77 0 -115 39.5t-36 133.5l3 296h-85v51l86 14l13 149h61v-149h154v-65h-154v-296q0 -46 13 -68.5t32 -30.5t36 -10l65 -6v-58h-73zM133 747q-16 0 -16 16v78q0 16 16 16h37q15 0 15 -16v-78q0 -16 -15 -16h-37z" />
    <glyph glyph-name="uni1E6D" unicode="&#x1e6d;" horiz-adv-x="367" 
d="M253 0q-77 0 -115 39.5t-36 133.5l3 296h-85v51l86 14l13 149h61v-149h154v-65h-154v-296q0 -46 13 -68.5t32 -30.5t36 -10l65 -6v-58h-73zM171 -210q-16 0 -16 16v78q0 16 16 16h37q16 0 16 -16v-78q0 -16 -16 -16h-37z" />
    <glyph glyph-name="uni1E6F" unicode="&#x1e6f;" horiz-adv-x="367" 
d="M253 0q-77 0 -115 39.5t-36 133.5l3 296h-85v51l86 14l13 149h61v-149h154v-65h-154v-296q0 -46 13 -68.5t32 -30.5t36 -10l65 -6v-58h-73zM57 -188v47h265v-47h-265z" />
    <glyph glyph-name="u" unicode="u" horiz-adv-x="588" 
d="M235 -6q-77 0 -118.5 40t-41.5 124v376h79v-356q0 -67 30 -90.5t86 -23.5q46 0 85 13t81 38v419h79v-534h-62l-17 59q-41 -27 -93 -46t-108 -19z" />
    <glyph glyph-name="uacute" unicode="&#xfa;" horiz-adv-x="588" 
d="M235 -6q-77 0 -118.5 40t-41.5 124v376h79v-356q0 -67 30 -90.5t86 -23.5q46 0 85 13t81 38v419h79v-534h-62l-17 59q-41 -27 -93 -46t-108 -19zM254 631l104 136h67l-125 -136h-46z" />
    <glyph glyph-name="ubreve" unicode="&#x16d;" horiz-adv-x="588" 
d="M235 -6q-77 0 -118.5 40t-41.5 124v376h79v-356q0 -67 30 -90.5t86 -23.5q46 0 85 13t81 38v419h79v-534h-62l-17 59q-41 -27 -93 -46t-108 -19zM279 629q-36 0 -65.5 13.5t-47.5 44.5t-18 83h39q0 -57 27.5 -80.5t64.5 -22.5q41 0 67 22.5t26 80.5h39q0 -53 -18 -84
t-48 -44t-66 -13z" />
    <glyph glyph-name="ucircumflex" unicode="&#xfb;" horiz-adv-x="588" 
d="M235 -6q-77 0 -118.5 40t-41.5 124v376h79v-356q0 -67 30 -90.5t86 -23.5q46 0 85 13t81 38v419h79v-534h-62l-17 59q-41 -27 -93 -46t-108 -19zM139 631l122 135h56l110 -135h-48l-91 97l-100 -97h-49z" />
    <glyph glyph-name="uni0215" unicode="&#x215;" horiz-adv-x="588" 
d="M235 -6q-77 0 -118.5 40t-41.5 124v376h79v-356q0 -67 30 -90.5t86 -23.5q46 0 85 13t81 38v419h79v-534h-62l-17 59q-41 -27 -93 -46t-108 -19zM355 631l-125 136h68l104 -136h-47zM209 631l-125 136h68l104 -136h-47z" />
    <glyph glyph-name="udieresis" unicode="&#xfc;" horiz-adv-x="588" 
d="M235 -6q-77 0 -118.5 40t-41.5 124v376h79v-356q0 -67 30 -90.5t86 -23.5q46 0 85 13t81 38v419h79v-534h-62l-17 59q-41 -27 -93 -46t-108 -19zM364 653q-16 0 -16 16v78q0 16 16 16h36q16 0 16 -16v-78q0 -16 -16 -16h-36zM169 653q-16 0 -16 16v78q0 16 16 16h36
q16 0 16 -16v-78q0 -16 -16 -16h-36z" />
    <glyph glyph-name="uni1EE5" unicode="&#x1ee5;" horiz-adv-x="588" 
d="M235 -6q-77 0 -118.5 40t-41.5 124v376h79v-356q0 -67 30 -90.5t86 -23.5q46 0 85 13t81 38v419h79v-534h-62l-17 59q-41 -27 -93 -46t-108 -19zM264 -210q-16 0 -16 16v78q0 16 16 16h37q16 0 16 -16v-78q0 -16 -16 -16h-37z" />
    <glyph glyph-name="ugrave" unicode="&#xf9;" horiz-adv-x="588" 
d="M235 -6q-77 0 -118.5 40t-41.5 124v376h79v-356q0 -67 30 -90.5t86 -23.5q46 0 85 13t81 38v419h79v-534h-62l-17 59q-41 -27 -93 -46t-108 -19zM282 631l-125 136h67l104 -136h-46z" />
    <glyph glyph-name="uni1EE7" unicode="&#x1ee7;" horiz-adv-x="588" 
d="M235 -6q-77 0 -118.5 40t-41.5 124v376h79v-356q0 -67 30 -90.5t86 -23.5q46 0 85 13t81 38v419h79v-534h-62l-17 59q-41 -27 -93 -46t-108 -19zM268 603v37q32 9 44 25.5t12 33.5q0 20 -10.5 32t-37.5 12q-17 0 -35 -6v34q19 6 45 6q42 0 62 -21t20 -56q0 -31 -24 -56.5
t-76 -40.5z" />
    <glyph glyph-name="uhorn" unicode="&#x1b0;" horiz-adv-x="588" 
d="M235 -6q-77 0 -118.5 40t-41.5 124v376h79v-356q0 -67 30 -90.5t86 -23.5q46 0 85 13t81 38v419h37q35 0 57 24.5t22 88.5h58q0 -74 -27.5 -110.5t-67.5 -44.5v-492h-62l-17 59q-41 -27 -93 -46t-108 -19z" />
    <glyph glyph-name="uni1EE9" unicode="&#x1ee9;" horiz-adv-x="588" 
d="M235 -6q-77 0 -118.5 40t-41.5 124v376h79v-356q0 -67 30 -90.5t86 -23.5q46 0 85 13t81 38v419h37q35 0 57 24.5t22 88.5h58q0 -74 -27.5 -110.5t-67.5 -44.5v-492h-62l-17 59q-41 -27 -93 -46t-108 -19zM263 631l104 136h67l-125 -136h-46z" />
    <glyph glyph-name="uni1EF1" unicode="&#x1ef1;" horiz-adv-x="588" 
d="M235 -6q-77 0 -118.5 40t-41.5 124v376h79v-356q0 -67 30 -90.5t86 -23.5q46 0 85 13t81 38v419h37q35 0 57 24.5t22 88.5h58q0 -74 -27.5 -110.5t-67.5 -44.5v-492h-62l-17 59q-41 -27 -93 -46t-108 -19zM254 -210q-16 0 -16 16v78q0 16 16 16h37q16 0 16 -16v-78
q0 -16 -16 -16h-37z" />
    <glyph glyph-name="uni1EEB" unicode="&#x1eeb;" horiz-adv-x="588" 
d="M235 -6q-77 0 -118.5 40t-41.5 124v376h79v-356q0 -67 30 -90.5t86 -23.5q46 0 85 13t81 38v419h37q35 0 57 24.5t22 88.5h58q0 -74 -27.5 -110.5t-67.5 -44.5v-492h-62l-17 59q-41 -27 -93 -46t-108 -19zM287 631l-125 136h67l104 -136h-46z" />
    <glyph glyph-name="uni1EED" unicode="&#x1eed;" horiz-adv-x="588" 
d="M235 -6q-77 0 -118.5 40t-41.5 124v376h79v-356q0 -67 30 -90.5t86 -23.5q46 0 85 13t81 38v419h37q35 0 57 24.5t22 88.5h58q0 -74 -27.5 -110.5t-67.5 -44.5v-492h-62l-17 59q-41 -27 -93 -46t-108 -19zM275 603v37q32 9 44 25.5t12 33.5q0 20 -10.5 32t-37.5 12
q-17 0 -35 -6v34q19 6 45 6q42 0 62 -21t20 -56q0 -31 -24 -56.5t-76 -40.5z" />
    <glyph glyph-name="uni1EEF" unicode="&#x1eef;" horiz-adv-x="588" 
d="M235 -6q-77 0 -118.5 40t-41.5 124v376h79v-356q0 -67 30 -90.5t86 -23.5q46 0 85 13t81 38v419h37q35 0 57 24.5t22 88.5h58q0 -74 -27.5 -110.5t-67.5 -44.5v-492h-62l-17 59q-41 -27 -93 -46t-108 -19zM119 647q2 60 31.5 83.5t64.5 23.5q32 0 57.5 -15.5t49 -30.5
t48.5 -15q26 0 43 16t18 47h40q-1 -51 -26 -80t-70 -29q-31 0 -56.5 15.5t-50 31t-49.5 15.5q-24 0 -41.5 -15t-17.5 -47h-41z" />
    <glyph glyph-name="uhungarumlaut" unicode="&#x171;" horiz-adv-x="588" 
d="M235 -6q-77 0 -118.5 40t-41.5 124v376h79v-356q0 -67 30 -90.5t86 -23.5q46 0 85 13t81 38v419h79v-534h-62l-17 59q-41 -27 -93 -46t-108 -19zM317 631l100 136h65l-119 -136h-46zM167 631l100 136h65l-119 -136h-46z" />
    <glyph glyph-name="uni0217" unicode="&#x217;" horiz-adv-x="588" 
d="M235 -6q-77 0 -118.5 40t-41.5 124v376h79v-356q0 -67 30 -90.5t86 -23.5q46 0 85 13t81 38v419h79v-534h-62l-17 59q-41 -27 -93 -46t-108 -19zM284 771q36 0 65.5 -13.5t47.5 -44.5t18 -83h-39q0 57 -27.5 80.5t-64.5 22.5q-41 0 -67 -22.5t-26 -80.5h-39q0 53 18 84
t48 44t66 13z" />
    <glyph glyph-name="umacron" unicode="&#x16b;" horiz-adv-x="588" 
d="M235 -6q-77 0 -118.5 40t-41.5 124v376h79v-356q0 -67 30 -90.5t86 -23.5q46 0 85 13t81 38v419h79v-534h-62l-17 59q-41 -27 -93 -46t-108 -19zM151 672v47h265v-47h-265z" />
    <glyph glyph-name="uni1E7B" unicode="&#x1e7b;" horiz-adv-x="588" 
d="M235 -6q-77 0 -118.5 40t-41.5 124v376h79v-356q0 -67 30 -90.5t86 -23.5q46 0 85 13t81 38v419h79v-534h-62l-17 59q-41 -27 -93 -46t-108 -19zM151 672v47h265v-47h-265zM364 786q-16 0 -16 16v78q0 16 16 16h36q16 0 16 -16v-78q0 -16 -16 -16h-36zM169 786
q-16 0 -16 16v78q0 16 16 16h36q16 0 16 -16v-78q0 -16 -16 -16h-36z" />
    <glyph glyph-name="uogonek" unicode="&#x173;" horiz-adv-x="588" 
d="M235 -6q-77 0 -118.5 40t-41.5 124v376h79v-356q0 -67 30 -90.5t86 -23.5q46 0 85 13t81 38v419h79v-534h-62l-17 59q-41 -27 -93 -46t-108 -19zM514 -187q-51 0 -78 26t-27 63q0 29 18 54.5t57 43.5h30q-63 -34 -63 -81q0 -30 21.5 -47.5t61.5 -17.5h6v-38
q-10 -3 -26 -3z" />
    <glyph glyph-name="uring" unicode="&#x16f;" horiz-adv-x="588" 
d="M235 -6q-77 0 -118.5 40t-41.5 124v376h79v-356q0 -67 30 -90.5t86 -23.5q46 0 85 13t81 38v419h79v-534h-62l-17 59q-41 -27 -93 -46t-108 -19zM287 594q-54 0 -83 23t-29 83q0 61 29 84.5t83 23.5t82 -23.5t28 -84.5q0 -60 -28 -83t-82 -23zM287 627q36 0 53 15t17 58
t-17 59t-53 16q-37 0 -55 -16t-18 -59t18 -58t55 -15z" />
    <glyph glyph-name="utilde" unicode="&#x169;" horiz-adv-x="588" 
d="M235 -6q-77 0 -118.5 40t-41.5 124v376h79v-356q0 -67 30 -90.5t86 -23.5q46 0 85 13t81 38v419h79v-534h-62l-17 59q-41 -27 -93 -46t-108 -19zM121 647q2 60 31.5 83.5t64.5 23.5q32 0 57.5 -15.5t49 -30.5t48.5 -15q26 0 43 16t18 47h40q-1 -51 -26 -80t-70 -29
q-31 0 -56.5 15.5t-50 31t-49.5 15.5q-24 0 -41.5 -15t-17.5 -47h-41z" />
    <glyph glyph-name="uni1E79" unicode="&#x1e79;" horiz-adv-x="588" 
d="M235 -6q-77 0 -118.5 40t-41.5 124v376h79v-356q0 -67 30 -90.5t86 -23.5q46 0 85 13t81 38v419h79v-534h-62l-17 59q-41 -27 -93 -46t-108 -19zM121 647q2 60 31.5 83.5t64.5 23.5q32 0 57.5 -15.5t49 -30.5t48.5 -15q26 0 43 16t18 47h40q-1 -51 -26 -80t-70 -29
q-31 0 -56.5 15.5t-50 31t-49.5 15.5q-24 0 -41.5 -15t-17.5 -47h-41zM251 784l104 136h67l-125 -136h-46z" />
    <glyph glyph-name="v" unicode="v" horiz-adv-x="536" 
d="M220 0l-201 534h81l166 -460l171 460h80l-207 -534h-90z" />
    <glyph glyph-name="w" unicode="w" horiz-adv-x="797" 
d="M181 0l-162 534h81l131 -460l135 460h69l135 -460l127 460h81l-161 -534h-87l-131 428l-132 -428h-86z" />
    <glyph glyph-name="wacute" unicode="&#x1e83;" horiz-adv-x="797" 
d="M181 0l-162 534h81l131 -460l135 460h69l135 -460l127 460h81l-161 -534h-87l-131 428l-132 -428h-86zM371 631l104 136h67l-125 -136h-46z" />
    <glyph glyph-name="wcircumflex" unicode="&#x175;" horiz-adv-x="797" 
d="M181 0l-162 534h81l131 -460l135 460h69l135 -460l127 460h81l-161 -534h-87l-131 428l-132 -428h-86zM256 631l122 135h56l110 -135h-48l-91 97l-100 -97h-49z" />
    <glyph glyph-name="wdieresis" unicode="&#x1e85;" horiz-adv-x="797" 
d="M181 0l-162 534h81l131 -460l135 460h69l135 -460l127 460h81l-161 -534h-87l-131 428l-132 -428h-86zM481 653q-16 0 -16 16v78q0 16 16 16h36q16 0 16 -16v-78q0 -16 -16 -16h-36zM286 653q-16 0 -16 16v78q0 16 16 16h36q16 0 16 -16v-78q0 -16 -16 -16h-36z" />
    <glyph glyph-name="wgrave" unicode="&#x1e81;" horiz-adv-x="797" 
d="M181 0l-162 534h81l131 -460l135 460h69l135 -460l127 460h81l-161 -534h-87l-131 428l-132 -428h-86zM399 631l-125 136h67l104 -136h-46z" />
    <glyph glyph-name="x" unicode="x" horiz-adv-x="507" 
d="M22 0l188 271l-188 263h81l155 -216l146 215l82 1l-188 -271l188 -263h-82l-153 214l-149 -214h-80z" />
    <glyph glyph-name="y" unicode="y" horiz-adv-x="541" 
d="M219 -237l68 237q-26 0 -52.5 11t-49.5 38.5t-38 75.5l-128 409h83l119 -392q14 -40 32 -55t33 -17t18 -2l137 466h81l-195 -672l-46 -99h-62z" />
    <glyph glyph-name="yacute" unicode="&#xfd;" horiz-adv-x="541" 
d="M219 -237l68 237q-26 0 -52.5 11t-49.5 38.5t-38 75.5l-128 409h83l119 -392q14 -40 32 -55t33 -17t18 -2l137 466h81l-195 -672l-46 -99h-62zM235 631l104 136h67l-125 -136h-46z" />
    <glyph glyph-name="ycircumflex" unicode="&#x177;" horiz-adv-x="541" 
d="M219 -237l68 237q-26 0 -52.5 11t-49.5 38.5t-38 75.5l-128 409h83l119 -392q14 -40 32 -55t33 -17t18 -2l137 466h81l-195 -672l-46 -99h-62zM120 631l122 135h56l110 -135h-48l-91 97l-100 -97h-49z" />
    <glyph glyph-name="ydieresis" unicode="&#xff;" horiz-adv-x="541" 
d="M219 -237l68 237q-26 0 -52.5 11t-49.5 38.5t-38 75.5l-128 409h83l119 -392q14 -40 32 -55t33 -17t18 -2l137 466h81l-195 -672l-46 -99h-62zM345 653q-16 0 -16 16v78q0 16 16 16h36q16 0 16 -16v-78q0 -16 -16 -16h-36zM150 653q-16 0 -16 16v78q0 16 16 16h36
q16 0 16 -16v-78q0 -16 -16 -16h-36z" />
    <glyph glyph-name="uni1E8F" unicode="&#x1e8f;" horiz-adv-x="541" 
d="M219 -237l68 237q-26 0 -52.5 11t-49.5 38.5t-38 75.5l-128 409h83l119 -392q14 -40 32 -55t33 -17t18 -2l137 466h81l-195 -672l-46 -99h-62zM437 -210q-16 0 -16 16v78q0 16 16 16h37q16 0 16 -16v-78q0 -16 -16 -16h-37z" />
    <glyph glyph-name="uni1EF5" unicode="&#x1ef5;" horiz-adv-x="541" 
d="M219 -237l68 237q-26 0 -52.5 11t-49.5 38.5t-38 75.5l-128 409h83l119 -392q14 -40 32 -55t33 -17t18 -2l137 466h81l-195 -672l-46 -99h-62zM437 -210q-16 0 -16 16v78q0 16 16 16h37q16 0 16 -16v-78q0 -16 -16 -16h-37z" />
    <glyph glyph-name="ygrave" unicode="&#x1ef3;" horiz-adv-x="541" 
d="M219 -237l68 237q-26 0 -52.5 11t-49.5 38.5t-38 75.5l-128 409h83l119 -392q14 -40 32 -55t33 -17t18 -2l137 466h81l-195 -672l-46 -99h-62zM263 631l-125 136h67l104 -136h-46z" />
    <glyph glyph-name="uni1EF7" unicode="&#x1ef7;" horiz-adv-x="541" 
d="M219 -237l68 237q-26 0 -52.5 11t-49.5 38.5t-38 75.5l-128 409h83l119 -392q14 -40 32 -55t33 -17t18 -2l137 466h81l-195 -672l-46 -99h-62zM249 603v37q32 9 44 25.5t12 33.5q0 20 -10.5 32t-37.5 12q-17 0 -35 -6v34q19 6 45 6q42 0 62 -21t20 -56q0 -31 -24 -56.5
t-76 -40.5z" />
    <glyph glyph-name="uni0233" unicode="&#x233;" horiz-adv-x="541" 
d="M219 -237l68 237q-26 0 -52.5 11t-49.5 38.5t-38 75.5l-128 409h83l119 -392q14 -40 32 -55t33 -17t18 -2l137 466h81l-195 -672l-46 -99h-62zM132 672v47h265v-47h-265z" />
    <glyph glyph-name="uni1EF9" unicode="&#x1ef9;" horiz-adv-x="541" 
d="M219 -237l68 237q-26 0 -52.5 11t-49.5 38.5t-38 75.5l-128 409h83l119 -392q14 -40 32 -55t33 -17t18 -2l137 466h81l-195 -672l-46 -99h-62zM102 647q2 60 31.5 83.5t64.5 23.5q32 0 57.5 -15.5t49 -30.5t48.5 -15q26 0 43 16t18 47h40q-1 -51 -26 -80t-70 -29
q-31 0 -56.5 15.5t-50 31t-49.5 15.5q-24 0 -41.5 -15t-17.5 -47h-41z" />
    <glyph glyph-name="z" unicode="z" horiz-adv-x="494" 
d="M51 0v60l308 409h-315v65h407v-60l-309 -409h309v-65h-400z" />
    <glyph glyph-name="zacute" unicode="&#x17a;" horiz-adv-x="494" 
d="M51 0v60l308 409h-315v65h407v-60l-309 -409h309v-65h-400zM205 631l104 136h67l-125 -136h-46z" />
    <glyph glyph-name="zcaron" unicode="&#x17e;" horiz-adv-x="494" 
d="M51 0v60l308 409h-315v65h407v-60l-309 -409h309v-65h-400zM208 631l-111 135h48l92 -97l100 97h48l-121 -135h-56z" />
    <glyph glyph-name="zdotaccent" unicode="&#x17c;" horiz-adv-x="494" 
d="M51 0v60l308 409h-315v65h407v-60l-309 -409h309v-65h-400zM218 660q-16 0 -16 16v78q0 16 16 16h37q15 0 15 -16v-78q0 -16 -15 -16h-37z" />
    <glyph glyph-name="uni1E93" unicode="&#x1e93;" horiz-adv-x="494" 
d="M51 0v60l308 409h-315v65h407v-60l-309 -409h309v-65h-400zM215 -210q-16 0 -16 16v78q0 16 16 16h37q16 0 16 -16v-78q0 -16 -16 -16h-37z" />
    <glyph glyph-name="a.salt" horiz-adv-x="529" 
d="M45 166q0 63 41.5 102t125.5 39h181v66q0 33 -11 56.5t-41 36.5t-86 13h-166v47q35 6 81.5 11t109.5 5q98 1 145 -38t47 -127v-307q-31 -20 -73 -37.5t-88.5 -28t-90.5 -10.5h-24q-69 0 -110 35t-41 99v38zM124 141q0 -33 13.5 -52t34 -27.5t41.5 -8.5q45 -1 92.5 11
t87.5 35v168l-163 -7q-57 -2 -81.5 -28.5t-24.5 -66.5v-24z" />
    <glyph glyph-name="aacute.salt" horiz-adv-x="529" 
d="M45 166q0 63 41.5 102t125.5 39h181v66q0 33 -11 56.5t-41 36.5t-86 13h-166v47q35 6 81.5 11t109.5 5q98 1 145 -38t47 -127v-307q-31 -20 -73 -37.5t-88.5 -28t-90.5 -10.5h-24q-69 0 -110 35t-41 99v38zM124 141q0 -33 13.5 -52t34 -27.5t41.5 -8.5q45 -1 92.5 11
t87.5 35v168l-163 -7q-57 -2 -81.5 -28.5t-24.5 -66.5v-24zM245 631l104 136h67l-125 -136h-46z" />
    <glyph glyph-name="abreve.salt" horiz-adv-x="529" 
d="M45 166q0 63 41.5 102t125.5 39h181v66q0 33 -11 56.5t-41 36.5t-86 13h-166v47q35 6 81.5 11t109.5 5q98 1 145 -38t47 -127v-307q-31 -20 -73 -37.5t-88.5 -28t-90.5 -10.5h-24q-69 0 -110 35t-41 99v38zM124 141q0 -33 13.5 -52t34 -27.5t41.5 -8.5q45 -1 92.5 11
t87.5 35v168l-163 -7q-57 -2 -81.5 -28.5t-24.5 -66.5v-24zM270 629q-36 0 -65.5 13.5t-47.5 44.5t-18 83h39q0 -57 27.5 -80.5t64.5 -22.5q41 0 67 22.5t26 80.5h39q0 -53 -18 -84t-48 -44t-66 -13z" />
    <glyph glyph-name="uni1EAF.salt" horiz-adv-x="529" 
d="M45 166q0 63 41.5 102t125.5 39h181v66q0 33 -11 56.5t-41 36.5t-86 13h-166v47q35 6 81.5 11t109.5 5q98 1 145 -38t47 -127v-307q-31 -20 -73 -37.5t-88.5 -28t-90.5 -10.5h-24q-69 0 -110 35t-41 99v38zM124 141q0 -33 13.5 -52t34 -27.5t41.5 -8.5q45 -1 92.5 11
t87.5 35v168l-163 -7q-57 -2 -81.5 -28.5t-24.5 -66.5v-24zM241 741l104 136h68l-125 -136h-47zM178 734q0 -43 28 -60.5t64 -16.5q41 0 67 17t26 60h40q0 -43 -18.5 -67t-48.5 -34.5t-66 -10.5q-54 0 -92 25t-38 87h38z" />
    <glyph glyph-name="uni1EB7.salt" horiz-adv-x="529" 
d="M45 166q0 63 41.5 102t125.5 39h181v66q0 33 -11 56.5t-41 36.5t-86 13h-166v47q35 6 81.5 11t109.5 5q98 1 145 -38t47 -127v-307q-31 -20 -73 -37.5t-88.5 -28t-90.5 -10.5h-24q-69 0 -110 35t-41 99v38zM124 141q0 -33 13.5 -52t34 -27.5t41.5 -8.5q45 -1 92.5 11
t87.5 35v168l-163 -7q-57 -2 -81.5 -28.5t-24.5 -66.5v-24zM270 629q-36 0 -65.5 13.5t-47.5 44.5t-18 83h39q0 -57 27.5 -80.5t64.5 -22.5q41 0 67 22.5t26 80.5h39q0 -53 -18 -84t-48 -44t-66 -13zM248 -210q-16 0 -16 16v78q0 16 16 16h37q16 0 16 -16v-78q0 -16 -16 -16
h-37z" />
    <glyph glyph-name="uni1EB1.salt" horiz-adv-x="529" 
d="M45 166q0 63 41.5 102t125.5 39h181v66q0 33 -11 56.5t-41 36.5t-86 13h-166v47q35 6 81.5 11t109.5 5q98 1 145 -38t47 -127v-307q-31 -20 -73 -37.5t-88.5 -28t-90.5 -10.5h-24q-69 0 -110 35t-41 99v38zM124 141q0 -33 13.5 -52t34 -27.5t41.5 -8.5q45 -1 92.5 11
t87.5 35v168l-163 -7q-57 -2 -81.5 -28.5t-24.5 -66.5v-24zM263 741l-125 136h68l103 -136h-46zM178 734q0 -43 28 -60.5t64 -16.5q41 0 67 17t26 60h40q0 -43 -18.5 -67t-48.5 -34.5t-66 -10.5q-54 0 -92 25t-38 87h38z" />
    <glyph glyph-name="uni1EB3.salt" horiz-adv-x="529" 
d="M45 166q0 63 41.5 102t125.5 39h181v66q0 33 -11 56.5t-41 36.5t-86 13h-166v47q35 6 81.5 11t109.5 5q98 1 145 -38t47 -127v-307q-31 -20 -73 -37.5t-88.5 -28t-90.5 -10.5h-24q-69 0 -110 35t-41 99v38zM124 141q0 -33 13.5 -52t34 -27.5t41.5 -8.5q45 -1 92.5 11
t87.5 35v168l-163 -7q-57 -2 -81.5 -28.5t-24.5 -66.5v-24zM253 699v37q33 10 45 26t12 33q0 21 -11 32.5t-37 11.5q-17 0 -36 -6v34q20 7 46 7q42 0 61.5 -21t19.5 -56q0 -32 -23.5 -57.5t-76.5 -40.5zM270 622q-54 0 -92 25t-38 87h38q0 -43 28 -60.5t64 -16.5q41 0 67 17
t26 60h40q0 -43 -18.5 -67t-48.5 -34.5t-66 -10.5z" />
    <glyph glyph-name="uni1EB5.salt" horiz-adv-x="529" 
d="M45 166q0 63 41.5 102t125.5 39h181v66q0 33 -11 56.5t-41 36.5t-86 13h-166v47q35 6 81.5 11t109.5 5q98 1 145 -38t47 -127v-307q-31 -20 -73 -37.5t-88.5 -28t-90.5 -10.5h-24q-69 0 -110 35t-41 99v38zM124 141q0 -33 13.5 -52t34 -27.5t41.5 -8.5q45 -1 92.5 11
t87.5 35v168l-163 -7q-57 -2 -81.5 -28.5t-24.5 -66.5v-24zM115 769q2 50 27.5 66.5t54.5 16.5q28 0 52 -10.5t46 -21t45 -10.5q24 0 39 11.5t15 32.5h40q-4 -84 -83 -84q-26 0 -50 10.5t-47 21t-46 10.5q-22 0 -37 -11t-15 -32h-41zM178 734q0 -43 28 -60.5t64 -16.5
q41 0 67 17t26 60h40q0 -43 -18.5 -67t-48.5 -34.5t-66 -10.5q-54 0 -92 25t-38 87h38z" />
    <glyph glyph-name="acircumflex.salt" horiz-adv-x="529" 
d="M45 166q0 63 41.5 102t125.5 39h181v66q0 33 -11 56.5t-41 36.5t-86 13h-166v47q35 6 81.5 11t109.5 5q98 1 145 -38t47 -127v-307q-31 -20 -73 -37.5t-88.5 -28t-90.5 -10.5h-24q-69 0 -110 35t-41 99v38zM124 141q0 -33 13.5 -52t34 -27.5t41.5 -8.5q45 -1 92.5 11
t87.5 35v168l-163 -7q-57 -2 -81.5 -28.5t-24.5 -66.5v-24zM130 631l122 135h56l110 -135h-48l-91 97l-100 -97h-49z" />
    <glyph glyph-name="uni1EA5.salt" horiz-adv-x="529" 
d="M45 166q0 63 41.5 102t125.5 39h181v66q0 33 -11 56.5t-41 36.5t-86 13h-166v47q35 6 81.5 11t109.5 5q98 1 145 -38t47 -127v-307q-31 -20 -73 -37.5t-88.5 -28t-90.5 -10.5h-24q-69 0 -110 35t-41 99v38zM124 141q0 -33 13.5 -52t34 -27.5t41.5 -8.5q45 -1 92.5 11
t87.5 35v168l-163 -7q-57 -2 -81.5 -28.5t-24.5 -66.5v-24zM448 837h68l-109 -129h-46zM251 729h57l110 -98h-48l-92 61l-100 -61h-48z" />
    <glyph glyph-name="uni1EAD.salt" horiz-adv-x="529" 
d="M45 166q0 63 41.5 102t125.5 39h181v66q0 33 -11 56.5t-41 36.5t-86 13h-166v47q35 6 81.5 11t109.5 5q98 1 145 -38t47 -127v-307q-31 -20 -73 -37.5t-88.5 -28t-90.5 -10.5h-24q-69 0 -110 35t-41 99v38zM124 141q0 -33 13.5 -52t34 -27.5t41.5 -8.5q45 -1 92.5 11
t87.5 35v168l-163 -7q-57 -2 -81.5 -28.5t-24.5 -66.5v-24zM130 631l122 135h56l110 -135h-48l-91 97l-100 -97h-49zM248 -210q-16 0 -16 16v78q0 16 16 16h37q16 0 16 -16v-78q0 -16 -16 -16h-37z" />
    <glyph glyph-name="uni1EA7.salt" horiz-adv-x="529" 
d="M45 166q0 63 41.5 102t125.5 39h181v66q0 33 -11 56.5t-41 36.5t-86 13h-166v47q35 6 81.5 11t109.5 5q98 1 145 -38t47 -127v-307q-31 -20 -73 -37.5t-88.5 -28t-90.5 -10.5h-24q-69 0 -110 35t-41 99v38zM124 141q0 -33 13.5 -52t34 -27.5t41.5 -8.5q45 -1 92.5 11
t87.5 35v168l-163 -7q-57 -2 -81.5 -28.5t-24.5 -66.5v-24zM38 837h68l87 -129h-46zM251 729h57l110 -98h-48l-92 61l-100 -61h-48z" />
    <glyph glyph-name="uni1EA9.salt" horiz-adv-x="529" 
d="M45 166q0 63 41.5 102t125.5 39h181v66q0 33 -11 56.5t-41 36.5t-86 13h-166v47q35 6 81.5 11t109.5 5q98 1 145 -38t47 -127v-307q-31 -20 -73 -37.5t-88.5 -28t-90.5 -10.5h-24q-69 0 -110 35t-41 99v38zM124 141q0 -33 13.5 -52t34 -27.5t41.5 -8.5q45 -1 92.5 11
t87.5 35v168l-163 -7q-57 -2 -81.5 -28.5t-24.5 -66.5v-24zM384 683v36q28 9 39 23t11 28q0 17 -9.5 27t-32.5 10q-17 0 -35 -6v30q20 7 45 7q37 0 54.5 -17.5t17.5 -47.5q0 -29 -21.5 -53t-68.5 -37zM130 631l121 98h57l110 -98h-48l-92 61l-100 -61h-48z" />
    <glyph glyph-name="uni1EAB.salt" horiz-adv-x="529" 
d="M45 166q0 63 41.5 102t125.5 39h181v66q0 33 -11 56.5t-41 36.5t-86 13h-166v47q35 6 81.5 11t109.5 5q98 1 145 -38t47 -127v-307q-31 -20 -73 -37.5t-88.5 -28t-90.5 -10.5h-24q-69 0 -110 35t-41 99v38zM124 141q0 -33 13.5 -52t34 -27.5t41.5 -8.5q45 -1 92.5 11
t87.5 35v168l-163 -7q-57 -2 -81.5 -28.5t-24.5 -66.5v-24zM115 776q2 49 27.5 66t54.5 17q28 0 52 -10.5t46 -21t45 -10.5q24 0 39 11t15 33h40q-4 -85 -83 -85q-27 0 -51.5 10.5t-48 21t-47.5 10.5q-19 0 -33.5 -10.5t-14.5 -31.5h-41zM308 729l110 -98h-48l-92 61
l-100 -61h-48l121 98h57z" />
    <glyph glyph-name="uni0201.salt" horiz-adv-x="529" 
d="M45 166q0 63 41.5 102t125.5 39h181v66q0 33 -11 56.5t-41 36.5t-86 13h-166v47q35 6 81.5 11t109.5 5q98 1 145 -38t47 -127v-307q-31 -20 -73 -37.5t-88.5 -28t-90.5 -10.5h-24q-69 0 -110 35t-41 99v38zM124 141q0 -33 13.5 -52t34 -27.5t41.5 -8.5q45 -1 92.5 11
t87.5 35v168l-163 -7q-57 -2 -81.5 -28.5t-24.5 -66.5v-24zM346 631l-125 136h68l104 -136h-47zM200 631l-125 136h68l104 -136h-47z" />
    <glyph glyph-name="adieresis.salt" horiz-adv-x="529" 
d="M45 166q0 63 41.5 102t125.5 39h181v66q0 33 -11 56.5t-41 36.5t-86 13h-166v47q35 6 81.5 11t109.5 5q98 1 145 -38t47 -127v-307q-31 -20 -73 -37.5t-88.5 -28t-90.5 -10.5h-24q-69 0 -110 35t-41 99v38zM124 141q0 -33 13.5 -52t34 -27.5t41.5 -8.5q45 -1 92.5 11
t87.5 35v168l-163 -7q-57 -2 -81.5 -28.5t-24.5 -66.5v-24zM355 653q-16 0 -16 16v78q0 16 16 16h36q16 0 16 -16v-78q0 -16 -16 -16h-36zM160 653q-16 0 -16 16v78q0 16 16 16h36q16 0 16 -16v-78q0 -16 -16 -16h-36z" />
    <glyph glyph-name="uni1EA1.salt" horiz-adv-x="529" 
d="M45 166q0 63 41.5 102t125.5 39h181v66q0 33 -11 56.5t-41 36.5t-86 13h-166v47q35 6 81.5 11t109.5 5q98 1 145 -38t47 -127v-307q-31 -20 -73 -37.5t-88.5 -28t-90.5 -10.5h-24q-69 0 -110 35t-41 99v38zM124 141q0 -33 13.5 -52t34 -27.5t41.5 -8.5q45 -1 92.5 11
t87.5 35v168l-163 -7q-57 -2 -81.5 -28.5t-24.5 -66.5v-24zM248 -210q-16 0 -16 16v78q0 16 16 16h37q16 0 16 -16v-78q0 -16 -16 -16h-37z" />
    <glyph glyph-name="agrave.salt" horiz-adv-x="529" 
d="M45 166q0 63 41.5 102t125.5 39h181v66q0 33 -11 56.5t-41 36.5t-86 13h-166v47q35 6 81.5 11t109.5 5q98 1 145 -38t47 -127v-307q-31 -20 -73 -37.5t-88.5 -28t-90.5 -10.5h-24q-69 0 -110 35t-41 99v38zM124 141q0 -33 13.5 -52t34 -27.5t41.5 -8.5q45 -1 92.5 11
t87.5 35v168l-163 -7q-57 -2 -81.5 -28.5t-24.5 -66.5v-24zM273 631l-125 136h67l104 -136h-46z" />
    <glyph glyph-name="uni1EA3.salt" horiz-adv-x="529" 
d="M45 166q0 63 41.5 102t125.5 39h181v66q0 33 -11 56.5t-41 36.5t-86 13h-166v47q35 6 81.5 11t109.5 5q98 1 145 -38t47 -127v-307q-31 -20 -73 -37.5t-88.5 -28t-90.5 -10.5h-24q-69 0 -110 35t-41 99v38zM124 141q0 -33 13.5 -52t34 -27.5t41.5 -8.5q45 -1 92.5 11
t87.5 35v168l-163 -7q-57 -2 -81.5 -28.5t-24.5 -66.5v-24zM259 603v37q32 9 44 25.5t12 33.5q0 20 -10.5 32t-37.5 12q-17 0 -35 -6v34q19 6 45 6q42 0 62 -21t20 -56q0 -31 -24 -56.5t-76 -40.5z" />
    <glyph glyph-name="uni0203.salt" horiz-adv-x="529" 
d="M45 166q0 63 41.5 102t125.5 39h181v66q0 33 -11 56.5t-41 36.5t-86 13h-166v47q35 6 81.5 11t109.5 5q98 1 145 -38t47 -127v-307q-31 -20 -73 -37.5t-88.5 -28t-90.5 -10.5h-24q-69 0 -110 35t-41 99v38zM124 141q0 -33 13.5 -52t34 -27.5t41.5 -8.5q45 -1 92.5 11
t87.5 35v168l-163 -7q-57 -2 -81.5 -28.5t-24.5 -66.5v-24zM275 771q36 0 65.5 -13.5t47.5 -44.5t18 -83h-39q0 57 -27.5 80.5t-64.5 22.5q-41 0 -67 -22.5t-26 -80.5h-39q0 53 18 84t48 44t66 13z" />
    <glyph glyph-name="amacron.salt" horiz-adv-x="529" 
d="M45 166q0 63 41.5 102t125.5 39h181v66q0 33 -11 56.5t-41 36.5t-86 13h-166v47q35 6 81.5 11t109.5 5q98 1 145 -38t47 -127v-307q-31 -20 -73 -37.5t-88.5 -28t-90.5 -10.5h-24q-69 0 -110 35t-41 99v38zM124 141q0 -33 13.5 -52t34 -27.5t41.5 -8.5q45 -1 92.5 11
t87.5 35v168l-163 -7q-57 -2 -81.5 -28.5t-24.5 -66.5v-24zM142 672v47h265v-47h-265z" />
    <glyph glyph-name="aogonek.salt" horiz-adv-x="529" 
d="M45 166q0 63 41.5 102t125.5 39h181v66q0 33 -11 56.5t-41 36.5t-86 13h-166v47q35 6 81.5 11t109.5 5q98 1 145 -38t47 -127v-307q-31 -20 -73 -37.5t-88.5 -28t-90.5 -10.5h-24q-69 0 -110 35t-41 99v38zM124 141q0 -33 13.5 -52t34 -27.5t41.5 -8.5q45 -1 92.5 11
t87.5 35v168l-163 -7q-57 -2 -81.5 -28.5t-24.5 -66.5v-24zM286 -187q-51 0 -78 26t-27 63q0 29 18 54.5t57 43.5h30q-63 -34 -63 -81q0 -30 21.5 -47.5t61.5 -17.5h6v-38q-10 -3 -26 -3z" />
    <glyph glyph-name="aring.salt" horiz-adv-x="529" 
d="M45 166q0 63 41.5 102t125.5 39h181v66q0 33 -11 56.5t-41 36.5t-86 13h-166v47q35 6 81.5 11t109.5 5q98 1 145 -38t47 -127v-307q-31 -20 -73 -37.5t-88.5 -28t-90.5 -10.5h-24q-69 0 -110 35t-41 99v38zM124 141q0 -33 13.5 -52t34 -27.5t41.5 -8.5q45 -1 92.5 11
t87.5 35v168l-163 -7q-57 -2 -81.5 -28.5t-24.5 -66.5v-24zM278 594q-54 0 -83 23t-29 83q0 61 29 84.5t83 23.5t82 -23.5t28 -84.5q0 -60 -28 -83t-82 -23zM278 627q36 0 53 15t17 58t-17 59t-53 16q-37 0 -55 -16t-18 -59t18 -58t55 -15z" />
    <glyph glyph-name="aringacute.salt" horiz-adv-x="529" 
d="M45 166q0 63 41.5 102t125.5 39h181v66q0 33 -11 56.5t-41 36.5t-86 13h-166v47q35 6 81.5 11t109.5 5q98 1 145 -38t47 -127v-307q-31 -20 -73 -37.5t-88.5 -28t-90.5 -10.5h-24q-69 0 -110 35t-41 99v38zM124 141q0 -33 13.5 -52t34 -27.5t41.5 -8.5q45 -1 92.5 11
t87.5 35v168l-163 -7q-57 -2 -81.5 -28.5t-24.5 -66.5v-24zM278 594q-54 0 -83 23t-29 83q0 61 29 84.5t83 23.5t82 -23.5t28 -84.5q0 -60 -28 -83t-82 -23zM278 627q36 0 53 15t17 58t-17 59t-53 16q-37 0 -55 -16t-18 -59t18 -58t55 -15zM245 791l104 136h67l-125 -136
h-46z" />
    <glyph glyph-name="atilde.salt" horiz-adv-x="529" 
d="M45 166q0 63 41.5 102t125.5 39h181v66q0 33 -11 56.5t-41 36.5t-86 13h-166v47q35 6 81.5 11t109.5 5q98 1 145 -38t47 -127v-307q-31 -20 -73 -37.5t-88.5 -28t-90.5 -10.5h-24q-69 0 -110 35t-41 99v38zM124 141q0 -33 13.5 -52t34 -27.5t41.5 -8.5q45 -1 92.5 11
t87.5 35v168l-163 -7q-57 -2 -81.5 -28.5t-24.5 -66.5v-24zM112 647q2 60 31.5 83.5t64.5 23.5q32 0 57.5 -15.5t49 -30.5t48.5 -15q26 0 43 16t18 47h40q-1 -51 -26 -80t-70 -29q-31 0 -56.5 15.5t-50 31t-49.5 15.5q-24 0 -41.5 -15t-17.5 -47h-41z" />
    <glyph glyph-name="b.salt" horiz-adv-x="569" 
d="M306 -10q-73 0 -133.5 6t-103.5 17v750h79v-263q28 12 61 21t65.5 13.5t55.5 4.5q74 0 113.5 -34.5t55 -97t15.5 -148.5q0 -132 -51 -200.5t-157 -68.5zM148 59q38 -1 77 -1.5t80 -0.5q69 0 99 54.5t30 150.5q0 109 -29 160t-97 51q-44 0 -80 -7.5t-80 -20.5v-386z" />
    <glyph glyph-name="uni1E03.salt" horiz-adv-x="569" 
d="M306 -10q-73 0 -133.5 6t-103.5 17v750h79v-263q28 12 61 21t65.5 13.5t55.5 4.5q74 0 113.5 -34.5t55 -97t15.5 -148.5q0 -132 -51 -200.5t-157 -68.5zM148 59q38 -1 77 -1.5t80 -0.5q69 0 99 54.5t30 150.5q0 109 -29 160t-97 51q-44 0 -80 -7.5t-80 -20.5v-386z
M90 860q-16 0 -16 16v78q0 16 16 16h37q15 0 15 -16v-78q0 -16 -15 -16h-37z" />
    <glyph glyph-name="d.salt" horiz-adv-x="568" 
d="M260 -10q-106 0 -155 67.5t-49 201.5q0 86 15 148.5t56 97t119 34.5q21 0 52 -4t63.5 -11t58.5 -18v257h80v-741q-38 -13 -100 -22.5t-140 -9.5zM264 57q41 0 80 2t76 4v387q-44 13 -78 19.5t-76 6.5q-75 0 -103 -52.5t-28 -161.5q0 -96 28.5 -150.5t100.5 -54.5z" />
    <glyph glyph-name="dcaron.salt" horiz-adv-x="568" 
d="M260 -10q-106 0 -155 67.5t-49 201.5q0 86 15 148.5t56 97t119 34.5q21 0 52 -4t63.5 -11t58.5 -18v257h80v-741q-38 -13 -100 -22.5t-140 -9.5zM264 57q41 0 80 2t76 4v387q-44 13 -78 19.5t-76 6.5q-75 0 -103 -52.5t-28 -161.5q0 -96 28.5 -150.5t100.5 -54.5z
M572 582l-6 141v60h73v-60l-6 -141h-61z" />
    <glyph glyph-name="dcroat.salt" horiz-adv-x="568" 
d="M260 -10q-106 0 -155 67.5t-49 201.5q0 86 15 148.5t56 97t119 34.5q21 0 52 -4t63.5 -11t58.5 -18v123h-139v35h139v99h80v-99h68v-35h-68v-607q-38 -13 -100 -22.5t-140 -9.5zM264 57q41 0 80 2t76 4v387q-44 13 -78 19.5t-76 6.5q-75 0 -103 -52.5t-28 -161.5
q0 -96 28.5 -150.5t100.5 -54.5z" />
    <glyph glyph-name="uni1E0B.salt" horiz-adv-x="568" 
d="M260 -10q-106 0 -155 67.5t-49 201.5q0 86 15 148.5t56 97t119 34.5q21 0 52 -4t63.5 -11t58.5 -18v257h80v-741q-38 -13 -100 -22.5t-140 -9.5zM264 57q41 0 80 2t76 4v387q-44 13 -78 19.5t-76 6.5q-75 0 -103 -52.5t-28 -161.5q0 -96 28.5 -150.5t100.5 -54.5z
M441 860q-16 0 -16 16v78q0 16 16 16h37q15 0 15 -16v-78q0 -16 -15 -16h-37z" />
    <glyph glyph-name="uni1E0D.salt" horiz-adv-x="568" 
d="M260 -10q-106 0 -155 67.5t-49 201.5q0 86 15 148.5t56 97t119 34.5q21 0 52 -4t63.5 -11t58.5 -18v257h80v-741q-38 -13 -100 -22.5t-140 -9.5zM264 57q41 0 80 2t76 4v387q-44 13 -78 19.5t-76 6.5q-75 0 -103 -52.5t-28 -161.5q0 -96 28.5 -150.5t100.5 -54.5z
M262 -210q-16 0 -16 16v78q0 16 16 16h37q16 0 16 -16v-78q0 -16 -16 -16h-37z" />
    <glyph glyph-name="uni1E0F.salt" horiz-adv-x="568" 
d="M260 -10q-106 0 -155 67.5t-49 201.5q0 86 15 148.5t56 97t119 34.5q21 0 52 -4t63.5 -11t58.5 -18v257h80v-741q-38 -13 -100 -22.5t-140 -9.5zM264 57q41 0 80 2t76 4v387q-44 13 -78 19.5t-76 6.5q-75 0 -103 -52.5t-28 -161.5q0 -96 28.5 -150.5t100.5 -54.5z
M148 -188v47h265v-47h-265z" />
    <glyph glyph-name="f.salt" horiz-adv-x="346" 
d="M80 595q0 85 32.5 129.5t120.5 44.5q34 0 58.5 -3t44.5 -7v-56h-89q-55 0 -71.5 -26.5t-16.5 -77.5v-65h162v-65h-162v-469h-79v595z" />
    <glyph glyph-name="uni1E1F.salt" horiz-adv-x="346" 
d="M80 595q0 85 32.5 129.5t120.5 44.5q34 0 58.5 -3t44.5 -7v-56h-89q-55 0 -71.5 -26.5t-16.5 -77.5v-65h162v-65h-162v-469h-79v595zM204 870q-16 0 -16 16v78q0 16 16 16h37q15 0 15 -16v-78q0 -16 -15 -16h-37z" />
    <glyph glyph-name="g.salt" horiz-adv-x="571" 
d="M272 541q72 0 128.5 -4.5t98.5 -9.5v-531q0 -123 -55.5 -181t-182.5 -58q-56 0 -100.5 5.5t-76.5 11.5v47h159q99 0 138 39t39 121v69q-38 -26 -84 -41t-91 -15q-101 0 -144.5 66.5t-43.5 205.5q0 89 20.5 150.5t67.5 93t127 31.5zM136 270q0 -114 30.5 -162.5
t100.5 -48.5q43 0 79.5 12.5t73.5 32.5v373q-35 1 -72.5 1.5t-73.5 0.5q-79 0 -108.5 -56t-29.5 -153z" />
    <glyph glyph-name="gbreve.salt" horiz-adv-x="571" 
d="M272 541q72 0 128.5 -4.5t98.5 -9.5v-531q0 -123 -55.5 -181t-182.5 -58q-56 0 -100.5 5.5t-76.5 11.5v47h159q99 0 138 39t39 121v69q-38 -26 -84 -41t-91 -15q-101 0 -144.5 66.5t-43.5 205.5q0 89 20.5 150.5t67.5 93t127 31.5zM136 270q0 -114 30.5 -162.5
t100.5 -48.5q43 0 79.5 12.5t73.5 32.5v373q-35 1 -72.5 1.5t-73.5 0.5q-79 0 -108.5 -56t-29.5 -153zM292 629q-36 0 -65.5 13.5t-47.5 44.5t-18 83h39q0 -57 27.5 -80.5t64.5 -22.5q41 0 67 22.5t26 80.5h39q0 -53 -18 -84t-48 -44t-66 -13z" />
    <glyph glyph-name="gcaron.salt" horiz-adv-x="571" 
d="M272 541q72 0 128.5 -4.5t98.5 -9.5v-531q0 -123 -55.5 -181t-182.5 -58q-56 0 -100.5 5.5t-76.5 11.5v47h159q99 0 138 39t39 121v69q-38 -26 -84 -41t-91 -15q-101 0 -144.5 66.5t-43.5 205.5q0 89 20.5 150.5t67.5 93t127 31.5zM136 270q0 -114 30.5 -162.5
t100.5 -48.5q43 0 79.5 12.5t73.5 32.5v373q-35 1 -72.5 1.5t-73.5 0.5q-79 0 -108.5 -56t-29.5 -153zM270 631l-111 135h48l92 -97l100 97h48l-121 -135h-56z" />
    <glyph glyph-name="gcircumflex.salt" horiz-adv-x="571" 
d="M272 541q72 0 128.5 -4.5t98.5 -9.5v-531q0 -123 -55.5 -181t-182.5 -58q-56 0 -100.5 5.5t-76.5 11.5v47h159q99 0 138 39t39 121v69q-38 -26 -84 -41t-91 -15q-101 0 -144.5 66.5t-43.5 205.5q0 89 20.5 150.5t67.5 93t127 31.5zM136 270q0 -114 30.5 -162.5
t100.5 -48.5q43 0 79.5 12.5t73.5 32.5v373q-35 1 -72.5 1.5t-73.5 0.5q-79 0 -108.5 -56t-29.5 -153zM152 631l122 135h56l110 -135h-48l-91 97l-100 -97h-49z" />
    <glyph glyph-name="uni0123.salt" horiz-adv-x="571" 
d="M272 541q72 0 128.5 -4.5t98.5 -9.5v-531q0 -123 -55.5 -181t-182.5 -58q-56 0 -100.5 5.5t-76.5 11.5v47h159q99 0 138 39t39 121v69q-38 -26 -84 -41t-91 -15q-101 0 -144.5 66.5t-43.5 205.5q0 89 20.5 150.5t67.5 93t127 31.5zM136 270q0 -114 30.5 -162.5
t100.5 -48.5q43 0 79.5 12.5t73.5 32.5v373q-35 1 -72.5 1.5t-73.5 0.5q-79 0 -108.5 -56t-29.5 -153zM246 614q0 76 21.5 107.5t87.5 31.5h38v-32l-30 -5q-23 -3 -38 -10.5t-22.5 -28t-7.5 -63.5h-49z" />
    <glyph glyph-name="gdotaccent.salt" horiz-adv-x="571" 
d="M272 541q72 0 128.5 -4.5t98.5 -9.5v-531q0 -123 -55.5 -181t-182.5 -58q-56 0 -100.5 5.5t-76.5 11.5v47h159q99 0 138 39t39 121v69q-38 -26 -84 -41t-91 -15q-101 0 -144.5 66.5t-43.5 205.5q0 89 20.5 150.5t67.5 93t127 31.5zM136 270q0 -114 30.5 -162.5
t100.5 -48.5q43 0 79.5 12.5t73.5 32.5v373q-35 1 -72.5 1.5t-73.5 0.5q-79 0 -108.5 -56t-29.5 -153zM280 660q-16 0 -16 16v78q0 16 16 16h37q15 0 15 -16v-78q0 -16 -15 -16h-37z" />
    <glyph glyph-name="uni1E21.salt" horiz-adv-x="571" 
d="M272 541q72 0 128.5 -4.5t98.5 -9.5v-531q0 -123 -55.5 -181t-182.5 -58q-56 0 -100.5 5.5t-76.5 11.5v47h159q99 0 138 39t39 121v69q-38 -26 -84 -41t-91 -15q-101 0 -144.5 66.5t-43.5 205.5q0 89 20.5 150.5t67.5 93t127 31.5zM136 270q0 -114 30.5 -162.5
t100.5 -48.5q43 0 79.5 12.5t73.5 32.5v373q-35 1 -72.5 1.5t-73.5 0.5q-79 0 -108.5 -56t-29.5 -153zM164 672v47h265v-47h-265z" />
    <glyph glyph-name="m.salt" horiz-adv-x="902" 
d="M76 486q48 21 85.5 33.5t74 18t83.5 5.5q52 0 87.5 -17.5t63.5 -50.5q40 28 98.5 48t119.5 20q60 0 97 -24.5t54 -66t17 -92.5v-360h-79v354q0 50 -29.5 83.5t-79.5 33.5q-52 0 -99 -16.5t-75 -37.5q11 -28 11 -64v-353h-79v354q0 50 -30 83.5t-81 33.5q-41 0 -77 -8
t-83 -27v-436h-79v486z" />
    <glyph glyph-name="uni1E41.salt" horiz-adv-x="902" 
d="M76 486q48 21 85.5 33.5t74 18t83.5 5.5q52 0 87.5 -17.5t63.5 -50.5q40 28 98.5 48t119.5 20q60 0 97 -24.5t54 -66t17 -92.5v-360h-79v354q0 50 -29.5 83.5t-79.5 33.5q-52 0 -99 -16.5t-75 -37.5q11 -28 11 -64v-353h-79v354q0 50 -30 83.5t-81 33.5q-41 0 -77 -8
t-83 -27v-436h-79v486zM454 660q-16 0 -16 16v78q0 16 16 16h37q15 0 15 -16v-78q0 -16 -15 -16h-37z" />
    <glyph glyph-name="uni1E43.salt" horiz-adv-x="902" 
d="M76 486q48 21 85.5 33.5t74 18t83.5 5.5q52 0 87.5 -17.5t63.5 -50.5q40 28 98.5 48t119.5 20q60 0 97 -24.5t54 -66t17 -92.5v-360h-79v354q0 50 -29.5 83.5t-79.5 33.5q-52 0 -99 -16.5t-75 -37.5q11 -28 11 -64v-353h-79v354q0 50 -30 83.5t-81 33.5q-41 0 -77 -8
t-83 -27v-436h-79v486zM445 -210q-16 0 -16 16v78q0 16 16 16h37q16 0 16 -16v-78q0 -16 -16 -16h-37z" />
    <glyph glyph-name="n.salt" horiz-adv-x="585" 
d="M76 486q114 57 242 57q68 0 108 -25t57.5 -66t17.5 -89v-363h-79v354q0 51 -29.5 84t-82.5 33q-46 0 -84.5 -10t-70.5 -25v-436h-79v486z" />
    <glyph glyph-name="nacute.salt" horiz-adv-x="585" 
d="M76 486q114 57 242 57q68 0 108 -25t57.5 -66t17.5 -89v-363h-79v354q0 51 -29.5 84t-82.5 33q-46 0 -84.5 -10t-70.5 -25v-436h-79v486zM253 631l104 136h67l-125 -136h-46z" />
    <glyph glyph-name="ncaron.salt" horiz-adv-x="585" 
d="M76 486q114 57 242 57q68 0 108 -25t57.5 -66t17.5 -89v-363h-79v354q0 51 -29.5 84t-82.5 33q-46 0 -84.5 -10t-70.5 -25v-436h-79v486zM256 631l-111 135h48l92 -97l100 97h48l-121 -135h-56z" />
    </font>
</defs>
</svg>
